<svg width="37" height="26" viewBox="0 0 37 26" fill="none" xmlns="http://www.w3.org/2000/svg">
<rect x="1.05" y="1.05" width="23.9" height="23.9" rx="11.95" fill="black"/>
<rect x="1.05" y="1.05" width="23.9" height="23.9" rx="11.95" stroke="white" stroke-width="0.1"/>
<path d="M10.5 17C13 18.5 13 18.5 15.5 17C14.8258 18.5 13.5 19.5 13 19.5C12.5 19.5 11.5 18.5 10.5 17Z" fill="white" stroke="white" stroke-miterlimit="16" stroke-linejoin="round"/>
<path d="M7 11C7.5 11.5 9.5 14.5 12.5 11C10.5 12 8.5 12 7 11Z" fill="white" stroke="white" stroke-width="0.5" stroke-miterlimit="16" stroke-linejoin="round"/>
<path d="M15 11C15.5 11.5 17.5 14.5 20.5 11C18.5 12 16.5 12 15 11Z" fill="white" stroke="white" stroke-width="0.5" stroke-miterlimit="16" stroke-linejoin="round"/>
<path d="M9.9502 6.48486C9.34043 6.12683 6.9499 5.98487 5.44992 8.98493C7.13378 7.51367 7.44986 6.48481 9.9502 6.48486Z" fill="white" stroke="white" stroke-width="0.5" stroke-miterlimit="16" stroke-linejoin="round"/>
<path d="M21.5007 8.29172C21.4376 7.58767 19 5.29279 16.9999 6.29286C18.5 6.29279 18.9998 6.29285 21.5007 8.29172Z" fill="white" stroke="white" stroke-width="0.5" stroke-miterlimit="16" stroke-linejoin="round"/>
<path d="M24.8758 19.8271C24.7727 20.3696 25.129 20.8931 25.6716 20.9961L28.0236 21.443C28.2981 21.4951 28.5629 21.3148 28.6151 21.0403V21.0403C28.6672 20.7658 28.487 20.501 28.2124 20.4488L27.6328 20.3387V20.3387C27.1793 20.6539 26.5517 20.545 26.2364 20.0916L26.2219 20.0707L25.1283 18.4979L24.8758 19.8271Z" fill="black"/>
<path d="M26.2219 20.0707L26.2364 20.0916C26.5517 20.545 27.1793 20.6539 27.6328 20.3387V20.3387L26.2219 20.0707Z" fill="black"/>
<path d="M26.2219 20.0707L26.2855 19.7356C26.3886 19.193 26.912 18.8368 27.4546 18.9398L28.3761 19.1149C28.6985 19.1761 29.0094 18.9645 29.0707 18.6421V18.6421C29.1311 18.3243 28.9261 18.0166 28.6096 17.9498L27.2607 17.6654C26.9499 17.5999 26.7486 17.2977 26.8079 16.9857V16.9857C26.8687 16.6658 27.1796 16.4576 27.4986 16.5232L28.8184 16.7948C29.1376 16.8604 29.4488 16.6521 29.5096 16.3319V16.3319C29.5698 16.0152 29.3618 15.7096 29.045 15.6494L26.7695 15.2171C26.2269 15.1141 25.7035 15.4704 25.6004 16.0129L25.1283 18.4979L26.2219 20.0707Z" fill="black"/>
<path d="M18.9998 21.8243L24.5623 17.6838L20.8537 12.3499C20.8065 12.4161 20.7725 12.4931 20.7564 12.5779L18.9998 21.8243Z" fill="white"/>
<path d="M33.7911 24.3349L29.9735 18.7119L27.6328 20.3387L28.2124 20.4488C28.487 20.501 28.6672 20.7658 28.6151 21.0403V21.0403C28.5629 21.3148 28.2981 21.4951 28.0236 21.443L25.6716 20.9961C25.129 20.8931 24.7727 20.3696 24.8758 19.8271L25.1283 18.4979L24.5623 17.6838L18.9998 21.8243L33.4415 24.5679C33.6043 24.5988 33.7608 24.4945 33.7911 24.3349Z" fill="white"/>
<path d="M29.9735 18.7119L35.6026 14.7996L21.4557 12.112C21.2868 12.0799 21.1213 12.1206 20.9927 12.2117L20.8537 12.3499L24.5623 17.6838L25.1283 18.4979L25.6004 16.0129C25.7035 15.4704 26.2269 15.1141 26.7695 15.2171L29.045 15.6494C29.3618 15.7096 29.5698 16.0152 29.5096 16.3319V16.3319C29.4488 16.6521 29.1376 16.8604 28.8184 16.7948L27.4986 16.5232C27.1796 16.4576 26.8687 16.6658 26.8079 16.9857V16.9857C26.7486 17.2977 26.9499 17.5999 27.2607 17.6654L28.6096 17.9498C28.9261 18.0166 29.1311 18.3243 29.0707 18.6421V18.6421C29.0094 18.9645 28.6985 19.1761 28.3761 19.1149L27.4546 18.9398C26.912 18.8368 26.3886 19.193 26.2855 19.7356L26.2219 20.0707L27.6328 20.3387L29.9735 18.7119Z" fill="white"/>
<path fill-rule="evenodd" clip-rule="evenodd" d="M20.9927 12.2117C20.9392 12.2496 20.8921 12.2962 20.8537 12.3499L20.9927 12.2117Z" fill="#D9D9D9"/>
<path d="M33.7911 24.3349L35.6026 14.7996L29.9735 18.7119L33.7911 24.3349Z" fill="white"/>
<path d="M18.9998 21.8243L24.5623 17.6838M18.9998 21.8243L20.7564 12.5779M18.9998 21.8243L33.4415 24.5679M35.6026 14.7996L33.7911 24.3349M35.6026 14.7996L29.9735 18.7119M35.6026 14.7996L21.4557 12.112M20.9927 12.2117L20.8537 12.3499M20.9927 12.2117C20.9392 12.2496 20.8921 12.2962 20.8537 12.3499M20.9927 12.2117C21.1213 12.1206 21.2868 12.0799 21.4557 12.112M33.7911 24.3349V24.3349C33.7608 24.4945 33.6069 24.5993 33.4473 24.569L33.4415 24.5679M33.7911 24.3349L29.9735 18.7119M33.7911 24.3349C33.7608 24.4945 33.6043 24.5988 33.4415 24.5679M29.9735 18.7119L27.6328 20.3387M24.5623 17.6838L25.1283 18.4979M24.5623 17.6838L20.8537 12.3499M26.2219 20.0707L26.2364 20.0916C26.5517 20.545 27.1793 20.6539 27.6328 20.3387V20.3387M26.2219 20.0707L26.2855 19.7356C26.3886 19.193 26.912 18.8368 27.4546 18.9398L28.3761 19.1149C28.6985 19.1761 29.0094 18.9645 29.0707 18.6421V18.6421C29.1311 18.3243 28.9261 18.0166 28.6096 17.9498L27.2607 17.6654C26.9499 17.5999 26.7486 17.2977 26.8079 16.9857V16.9857C26.8687 16.6658 27.1796 16.4576 27.4986 16.5232L28.8184 16.7948C29.1376 16.8604 29.4488 16.6521 29.5096 16.3319V16.3319C29.5698 16.0152 29.3618 15.7096 29.045 15.6494L26.7695 15.2171C26.2269 15.1141 25.7035 15.4704 25.6004 16.0129L25.1283 18.4979M26.2219 20.0707L25.1283 18.4979M26.2219 20.0707L27.6328 20.3387M20.7564 12.5779C20.7725 12.4931 20.8065 12.4161 20.8537 12.3499M20.7564 12.5779V12.5779C20.8171 12.2587 21.1249 12.0492 21.4441 12.1098L21.4557 12.112M20.8537 12.3499C20.9843 12.167 21.2166 12.0666 21.4557 12.112M27.6328 20.3387L28.2124 20.4488C28.487 20.501 28.6672 20.7658 28.6151 21.0403V21.0403C28.5629 21.3148 28.2981 21.4951 28.0236 21.443L25.6716 20.9961C25.129 20.8931 24.7727 20.3696 24.8758 19.8271L25.1283 18.4979" stroke="black" stroke-width="0.2"/>
</svg>
