<svg width="85" height="85" viewBox="0 0 85 85" fill="none" xmlns="http://www.w3.org/2000/svg">
<rect x="2.05" y="2.05" width="81.9" height="81.9" rx="40.95" fill="black"/>
<rect x="2.05" y="2.05" width="81.9" height="81.9" rx="40.95" stroke="white" stroke-width="0.1"/>
<path d="M32.7739 60C41.7739 64.8 41.7739 64.8 50.7739 60C48.3469 64.8 43.5739 68 41.7739 68C39.9739 68 36.3739 64.8 32.7739 60Z" fill="white" stroke="white" stroke-miterlimit="16" stroke-linejoin="round"/>
<path d="M20.7739 39C22.5012 40.7935 29.4103 51.5542 39.7739 39C32.8648 42.5869 25.9557 42.5869 20.7739 39Z" fill="white" stroke="white" stroke-width="0.5" stroke-miterlimit="16" stroke-linejoin="round"/>
<path d="M49.7739 39C51.4103 40.7935 57.9557 51.5542 67.7739 39C61.2285 42.5869 54.683 42.5869 49.7739 39Z" fill="white" stroke="white" stroke-width="0.5" stroke-miterlimit="16" stroke-linejoin="round"/>
<path d="M31.1976 23.1585C29.0792 21.9147 20.7744 21.4215 15.5633 31.8439C21.4132 26.7327 22.5113 23.1584 31.1976 23.1585Z" fill="white" stroke="white" stroke-width="0.5" stroke-miterlimit="16" stroke-linejoin="round"/>
<path d="M71.3242 29.4357C71.1049 26.9898 62.6366 19.0172 55.6882 22.4915C60.8995 22.4913 62.6357 22.4915 71.3242 29.4357Z" fill="white" stroke="white" stroke-width="0.5" stroke-miterlimit="16" stroke-linejoin="round"/>
<path d="M14.4341 75.7882C14.3311 76.3308 14.6874 76.8542 15.2299 76.9573L19.0812 77.6889C19.4792 77.7645 19.8631 77.5032 19.9387 77.1053V77.1053C20.0143 76.7073 19.753 76.3234 19.355 76.2478L18.5147 76.0881L18.1388 76.3493C17.6854 76.6645 17.0623 76.5524 16.7471 76.0991L16.4693 75.6996L14.8841 73.4196L14.4341 75.7882Z" fill="black"/>
<path d="M16.4693 75.6996L16.7471 76.0991C17.0623 76.5524 17.6854 76.6645 18.1388 76.3493L18.5147 76.0881L16.4693 75.6996Z" fill="black"/>
<path d="M16.4693 75.6996L16.6455 74.7722C16.7486 74.2296 17.272 73.8733 17.8146 73.9764L19.5922 74.3141C20.0596 74.4029 20.5104 74.096 20.5991 73.6287V73.6287C20.6867 73.168 20.3895 72.7219 19.9307 72.6252L17.9752 72.2128C17.5247 72.1178 17.233 71.6798 17.3189 71.2275V71.2275C17.407 70.7638 17.8578 70.4619 18.3202 70.557L20.2334 70.9507C20.6961 71.0459 21.1472 70.7438 21.2354 70.2797V70.2797C21.3226 69.8206 21.0211 69.3776 20.5619 69.2904L16.8215 68.5798C16.2789 68.4767 15.7555 68.833 15.6524 69.3756L14.8841 73.4196L16.4693 75.6996Z" fill="black"/>
<path d="M5.99994 78.2417L14.0636 72.2395L8.68744 64.5073C8.61895 64.6032 8.56977 64.7148 8.54641 64.8377L5.99994 78.2417Z" fill="white"/>
<path d="M27.4421 81.8813L21.9079 73.7298L18.5147 76.0881L19.355 76.2478C19.753 76.3234 20.0143 76.7073 19.9387 77.1053V77.1053C19.8631 77.5032 19.4792 77.7645 19.0812 77.6889L15.2299 76.9573C14.6874 76.8542 14.3311 76.3308 14.4341 75.7882L14.8841 73.4196L14.0636 72.2395L5.99994 78.2417L26.9353 82.219C27.1712 82.2638 27.3981 82.1126 27.4421 81.8813Z" fill="white"/>
<path d="M21.9079 73.7298L30.0681 68.0584L9.56007 64.1623C9.31529 64.1158 9.07537 64.1748 8.88886 64.3069L8.68744 64.5073L14.0636 72.2395L14.8841 73.4196L15.6524 69.3756C15.7555 68.833 16.2789 68.4767 16.8215 68.5798L20.5619 69.2904C21.0211 69.3776 21.3226 69.8206 21.2354 70.2797V70.2797C21.1472 70.7438 20.6961 71.0459 20.2334 70.9507L18.3202 70.557C17.8578 70.4619 17.407 70.7638 17.3189 71.2275V71.2275C17.233 71.6798 17.5247 72.1178 17.9752 72.2128L19.9307 72.6252C20.3895 72.7219 20.6867 73.168 20.5991 73.6287V73.6287C20.5104 74.096 20.0596 74.4029 19.5922 74.3141L17.8146 73.9764C17.272 73.8733 16.7486 74.2296 16.6455 74.7722L16.4693 75.6996L18.5147 76.0881L21.9079 73.7298Z" fill="white"/>
<path fill-rule="evenodd" clip-rule="evenodd" d="M8.88886 64.3069C8.81133 64.3618 8.74303 64.4294 8.68744 64.5073L8.88886 64.3069Z" fill="#D9D9D9"/>
<path d="M27.4421 81.8813L30.0681 68.0584L21.9079 73.7298L27.4421 81.8813Z" fill="white"/>
<path d="M5.99994 78.2417L14.0636 72.2395M5.99994 78.2417L8.54641 64.8377M5.99994 78.2417L26.9353 82.219M30.0681 68.0584L27.4421 81.8813M30.0681 68.0584L21.9079 73.7298M30.0681 68.0584L9.56007 64.1623M8.88886 64.3069L8.68744 64.5073M8.88886 64.3069C8.81133 64.3618 8.74303 64.4294 8.68744 64.5073M8.88886 64.3069C9.07537 64.1748 9.31529 64.1158 9.56007 64.1623M27.4421 81.8813V81.8813C27.3981 82.1126 27.175 82.2645 26.9436 82.2206L26.9353 82.219M27.4421 81.8813L21.9079 73.7298M27.4421 81.8813C27.3981 82.1126 27.1712 82.2638 26.9353 82.219M21.9079 73.7298L18.5147 76.0881M14.0636 72.2395L14.8841 73.4196M14.0636 72.2395L8.68744 64.5073M16.4693 75.6996L16.7471 76.0991C17.0623 76.5524 17.6854 76.6645 18.1388 76.3493L18.5147 76.0881M16.4693 75.6996L16.6455 74.7722C16.7486 74.2296 17.272 73.8733 17.8146 73.9764L19.5922 74.3141C20.0596 74.4029 20.5104 74.096 20.5991 73.6287V73.6287C20.6867 73.168 20.3895 72.7219 19.9307 72.6252L17.9752 72.2128C17.5247 72.1178 17.233 71.6798 17.3189 71.2275V71.2275C17.407 70.7638 17.8578 70.4619 18.3202 70.557L20.2334 70.9507C20.6961 71.0459 21.1472 70.7438 21.2354 70.2797V70.2797C21.3226 69.8206 21.0211 69.3776 20.5619 69.2904L16.8215 68.5798C16.2789 68.4767 15.7555 68.833 15.6524 69.3756L14.8841 73.4196M16.4693 75.6996L14.8841 73.4196M16.4693 75.6996L18.5147 76.0881M8.54641 64.8377C8.56977 64.7148 8.61895 64.6032 8.68744 64.5073M8.54641 64.8377V64.8377C8.63431 64.3751 9.08064 64.0713 9.54331 64.1592L9.56007 64.1623M8.68744 64.5073C8.87674 64.2421 9.21353 64.0965 9.56007 64.1623M18.5147 76.0881L19.355 76.2478C19.753 76.3234 20.0143 76.7073 19.9387 77.1053V77.1053C19.8631 77.5032 19.4792 77.7645 19.0812 77.6889L15.2299 76.9573C14.6874 76.8542 14.3311 76.3308 14.4341 75.7882L14.8841 73.4196" stroke="black" stroke-width="0.2"/>
</svg>
