<svg width="105" height="85" viewBox="0 0 105 85" fill="none" xmlns="http://www.w3.org/2000/svg">
<rect x="1.05" y="1.05" width="82.9" height="82.9" rx="41.45" fill="black"/>
<rect x="1.05" y="1.05" width="82.9" height="82.9" rx="41.45" stroke="white" stroke-width="0.1"/>
<path d="M54.2742 18.2621C54.2742 18.2621 56.2364 15.3465 56.2364 28.9638C54.2742 42.5812 52.3119 30.9092 52.3119 30.9092C52.3119 21.1825 54.2742 18.2621 54.2742 18.2621Z" fill="white"/>
<path d="M64 49.3153C54.4446 54.8358 35.7426 62.5646 21 49.3153C24.4126 54.8358 32.6722 69.5268 42.5006 67.8706C52.329 66.2145 59.9048 53.4557 64 49.3153Z" fill="white"/>
<path d="M26.8025 18.2621C26.8025 18.2621 24.8402 21.1825 24.8402 30.9092L28.7647 28.9638L26.8025 18.2621Z" fill="white"/>
<path d="M24.8402 30.9092C24.8402 30.9092 26.8025 42.5812 28.7647 28.9638L24.8402 30.9092Z" fill="white"/>
<path d="M24.8402 30.9092C24.8402 30.9092 26.8025 42.5812 28.7647 28.9638M24.8402 30.9092C24.8402 21.1825 26.8025 18.2621 26.8025 18.2621M24.8402 30.9092L28.7647 28.9638M28.7647 28.9638C28.7647 15.3465 26.8025 18.2621 26.8025 18.2621M28.7647 28.9638L26.8025 18.2621M56.2364 28.9638C56.2364 15.3465 54.2742 18.2621 54.2742 18.2621M56.2364 28.9638C54.2742 42.5812 52.3119 30.9092 52.3119 30.9092M56.2364 28.9638L54.2742 18.2621M56.2364 28.9638L52.3119 30.9092M54.2742 18.2621C54.2742 18.2621 52.3119 21.1825 52.3119 30.9092M64 49.3153C54.4446 54.8358 35.7426 62.5646 21 49.3153C24.4126 54.8358 32.6722 69.5268 42.5006 67.8706C52.329 66.2145 59.9048 53.4557 64 49.3153Z" stroke="white" stroke-miterlimit="16" stroke-linejoin="round"/>
<path d="M62 52.7135C47.8182 62.2109 30.0909 59.4973 24.7727 54.0703L23 50C35.4091 59.4973 54.9091 54.0703 62 50V52.7135Z" stroke="#020202" stroke-width="0.5" stroke-miterlimit="16" stroke-linejoin="round"/>
<path fill-rule="evenodd" clip-rule="evenodd" d="M66 79C66 79.5523 66.4477 80 67 80H101C101.552 80 102 79.5523 102 79V64.2829V53.3079C102 52.7556 101.552 52.3079 101 52.3079H90.9796H87.3061H81.4286H77.7551H67C66.4477 52.3079 66 52.7556 66 53.3079V64.2829V79Z" fill="white"/>
<path d="M77.7551 52.3079H67C66.4477 52.3079 66 52.7556 66 53.3079V64.2829M77.7551 52.3079V49.7977C77.7551 49.4923 77.8915 49.2019 78.1417 49.0268C80.5133 47.3672 85.6996 45.4502 90.5933 49.0203C90.84 49.2004 90.9796 49.4923 90.9796 49.7977V52.3079M77.7551 52.3079H81.4286H87.3061H90.9796M90.9796 52.3079H101C101.552 52.3079 102 52.7556 102 53.3079V64.2829M66 64.2829V79C66 79.5523 66.4477 80 67 80H101C101.552 80 102 79.5523 102 79V64.2829M66 64.2829C68.7817 67.7606 74.0572 71.9566 80.6939 72.9772C82.9949 73.3311 85.4597 73.3032 88.0408 72.7313C88.1694 72.7028 88.2983 72.673 88.4275 72.6418C92.7112 71.6067 97.3063 69.0644 102 64.2829" stroke="#C9C9C9" stroke-width="0.2"/>
</svg>
