<svg width="33" height="24" viewBox="0 0 33 24" fill="none" xmlns="http://www.w3.org/2000/svg">
<g clip-path="url(#clip0_185_58)">
<rect x="9.05" y="0.05" width="23.9" height="23.9" rx="11.95" fill="black"/>
<rect x="9.05" y="0.05" width="23.9" height="23.9" rx="11.95" stroke="white" stroke-width="0.1"/>
<path d="M24 6.24937C24 6.24937 24.5 5.5 24.5 8.99998C24 12.5 23.5 9.5 23.5 9.5C23.5 7 24 6.24937 24 6.24937Z" fill="white"/>
<path d="M26.4782 14.2308C24.0434 15.6497 19.278 17.6362 15.5215 14.2308C16.391 15.6497 18.4957 19.4257 21 19C23.5043 18.5743 25.4347 15.295 26.4782 14.2308Z" fill="white"/>
<path d="M16.5 9.5C16.5 9.5 17 12.5 17.5 8.99998M16.5 9.5C16.5 7 17 6.24937 17 6.24937M16.5 9.5L17.5 8.99998M17.5 8.99998C17.5 5.5 17 6.24937 17 6.24937M17.5 8.99998L17 6.24937M24.5 8.99998C24.5 5.5 24 6.24937 24 6.24937M24.5 8.99998C24 12.5 23.5 9.5 23.5 9.5M24.5 8.99998L24 6.24937M24.5 8.99998L23.5 9.5M24 6.24937C24 6.24937 23.5 7 23.5 9.5M26.4782 14.2308C24.0434 15.6497 19.278 17.6362 15.5215 14.2308C16.391 15.6497 18.4957 19.4257 21 19C23.5043 18.5743 25.4347 15.295 26.4782 14.2308Z" stroke="white" stroke-miterlimit="16" stroke-linejoin="round"/>
<path d="M26.5 14.5C22.5 18 17.5 17 16 15L15.5 13.5C19 17 24.5 15 26.5 13.5V14.5Z" stroke="#020202" stroke-width="0.5" stroke-miterlimit="16" stroke-linejoin="round"/>
<path fill-rule="evenodd" clip-rule="evenodd" d="M1 22C1 22.5523 1.44772 23 2 23H11C11.5523 23 12 22.5523 12 22V18.2372V15.6085C12 15.0562 11.5523 14.6085 11 14.6085H8.63265H7.5102H5.71429H4.59184H2C1.44772 14.6085 1 15.0562 1 15.6085V18.2372V22Z" fill="white"/>
<path d="M4.59184 14.6085H2C1.44772 14.6085 1 15.0562 1 15.6085V18.2372M4.59184 14.6085V14.1873C4.59184 13.8804 4.7292 13.5837 4.99869 13.4369C5.74731 13.0293 6.99912 12.7063 8.23105 13.427C8.49591 13.582 8.63265 13.8804 8.63265 14.1873V14.6085M4.59184 14.6085H5.71429H7.5102H8.63265M8.63265 14.6085H11C11.5523 14.6085 12 15.0562 12 15.6085V18.2372M1 18.2372V22C1 22.5523 1.44772 23 2 23H11C11.5523 23 12 22.5523 12 22V18.2372M1 18.2372C1.84996 19.2911 3.46191 20.5626 5.4898 20.8719C6.1929 20.9791 6.94601 20.9707 7.73469 20.7974C7.77399 20.7887 7.81337 20.7797 7.85283 20.7702C9.16174 20.4566 10.5658 19.6862 12 18.2372" stroke="#C9C9C9" stroke-width="0.2"/>
</g>
<defs>
<clipPath id="clip0_185_58">
<rect width="33" height="24" fill="white"/>
</clipPath>
</defs>
</svg>
