<svg width="85" height="62" viewBox="0 0 85 62" fill="none" xmlns="http://www.w3.org/2000/svg">
<rect x="21.05" y="0.05" width="61.9" height="61.9" rx="30.95" fill="black"/>
<rect x="21.05" y="0.05" width="61.9" height="61.9" rx="30.95" stroke="white" stroke-width="0.1"/>
<path d="M41.7391 14.6833C45.1826 11.1843 47 21.9729 47.4783 27.8047C42.887 18.4739 38.8696 23.9169 37.4348 27.8047C37.4348 26.3467 37.4348 19.0571 41.7391 14.6833Z" fill="white"/>
<path d="M63.2609 14.6833C66.7043 11.1843 67.5652 21.973 67.5652 27.8047C62.9739 18.4739 58.9565 23.9169 57.5217 27.8047C57.5217 27.8047 58.9565 19.0571 63.2609 14.6833Z" fill="white"/>
<path d="M36 36.5522C46.3304 45.883 62.3043 40.4401 69 36.5522C66.1304 39.4681 60.762 45.7134 53.875 46.8797C46.988 48.0461 38.3913 40.4401 36 36.5522Z" fill="white"/>
<path d="M41.7391 14.6833C45.1826 11.1843 47 21.9729 47.4783 27.8047C42.887 18.4739 38.8696 23.9169 37.4348 27.8047C37.4348 26.3467 37.4348 19.0571 41.7391 14.6833Z" stroke="white" stroke-miterlimit="16" stroke-linejoin="round"/>
<path d="M63.2609 14.6833C66.7043 11.1843 67.5652 21.973 67.5652 27.8047C62.9739 18.4739 58.9565 23.9169 57.5217 27.8047C57.5217 27.8047 58.9565 19.0571 63.2609 14.6833Z" stroke="white" stroke-miterlimit="16" stroke-linejoin="round"/>
<path d="M36 36.5522C46.3304 45.883 62.3043 40.4401 69 36.5522C66.1304 39.4681 60.762 45.7134 53.875 46.8797C46.988 48.0461 38.3913 40.4401 36 36.5522Z" stroke="white" stroke-miterlimit="16" stroke-linejoin="round"/>
<path d="M8.91726 31.9975C8.80297 30.8507 10.7589 29.9669 12.6419 31.7023C12.6419 31.7023 18.564 37.7411 21.4971 40.4792L22.682 40.9293C22.682 40.9293 23.6977 40.8281 23.6985 39.6916C23.7015 35.1458 26.5805 34.2907 26.5805 34.2907C28.7933 33.6156 29.0824 34.6095 28.9503 35.1909C28.1369 36.1811 27.8563 39.4667 27.8177 40.9857C27.8177 40.9857 28.9054 46.1805 29.1671 48.806C26.2813 59.8893 17.987 56.7385 17.987 56.7385C17.987 56.7385 9.60023 50.7559 5.68907 47.7365C4.24171 46.1762 5.68679 44.8958 6.95514 45.3734L12.6867 49.3119C13.6348 49.672 13.4205 49.0494 13.1948 48.6931L3.88768 41.0977C1.95461 39.2815 3.91297 36.8896 5.86506 38.0596L13.9876 45.2049C14.8907 45.1149 14.6654 44.3798 14.4399 44.0235L5.07624 35.8655C3.20752 34.2725 6.23961 31.9818 7.67412 33.3338C10.4003 35.9031 15.9768 41.143 16.4732 41.5481C16.9696 41.9531 17.0189 41.3043 16.9816 40.9292C15.7406 39.9165 12.8752 37.4747 11.3411 35.8093C9.80707 34.144 9.02564 33.085 8.91726 31.9975Z" fill="white"/>
<path d="M19.2989 35.7825C19.3239 35.9027 19.3428 36.0243 19.355 36.1471L19.2989 35.7825Z" fill="white"/>
<path d="M15.4638 31.4211C16.6018 32.024 18.8657 33.6997 19.2989 35.7825M19.2989 35.7825C19.3239 35.9027 19.3428 36.0243 19.355 36.1471L19.2989 35.7825ZM22.1211 35.3033C20.9748 33.3341 18.2195 29.3283 16.3684 29.0582M8.45139 52.575C7.47329 52.2937 5.11117 51.0896 3.48742 48.5241M7.54706 54.9379C6.36205 54.4878 3.57487 52.8337 1.90627 49.8181M22.682 40.9293C22.682 40.9293 23.6977 40.8281 23.6985 39.6916C23.7015 35.1458 26.5805 34.2907 26.5805 34.2907C28.7933 33.6156 29.0824 34.6095 28.9503 35.1909C28.1369 36.1811 27.8563 39.4667 27.8177 40.9857C27.8177 40.9857 28.9054 46.1805 29.1671 48.806C26.2813 59.8893 17.987 56.7385 17.987 56.7385C17.987 56.7385 9.60023 50.7559 5.68907 47.7365C4.24171 46.1762 5.68679 44.8958 6.95514 45.3734L12.6867 49.3119C13.6348 49.672 13.4205 49.0494 13.1948 48.6931L3.88768 41.0977C1.95461 39.2815 3.91297 36.8896 5.86506 38.0596L13.9876 45.2049C14.8907 45.1149 14.6654 44.3798 14.4399 44.0235L5.07624 35.8655C3.20752 34.2725 6.23961 31.9818 7.67412 33.3338C10.4003 35.9031 15.9768 41.143 16.4732 41.5481C16.9696 41.9531 17.0189 41.3043 16.9816 40.9292C15.7406 39.9165 12.8752 37.4747 11.3411 35.8093C9.80707 34.144 9.02564 33.085 8.91726 31.9975C8.80297 30.8507 10.7589 29.9669 12.6419 31.7023C12.6419 31.7023 18.564 37.7411 21.4971 40.4792L22.682 40.9293Z" stroke="black" stroke-width="0.4"/>
</svg>
