<svg width="98" height="85" viewBox="0 0 98 85" fill="none" xmlns="http://www.w3.org/2000/svg">
<g clip-path="url(#clip0_189_2)">
<rect x="15.05" y="2.05" width="81.9" height="81.9" rx="40.95" fill="black"/>
<rect x="15.05" y="2.05" width="81.9" height="81.9" rx="40.95" stroke="white" stroke-width="0.1"/>
<path d="M42.4783 21.8903C46.9652 17.331 49.3333 31.389 49.9565 38.9879C43.9739 26.8297 38.7391 33.922 36.8696 38.9879C36.8696 37.0882 36.8696 27.5895 42.4783 21.8903Z" fill="white"/>
<path d="M70.5217 21.8904C75.0087 17.331 76.1304 31.389 76.1304 38.9879C70.1478 26.8297 64.913 33.922 63.0435 38.9879C63.0435 38.9879 64.913 27.5896 70.5217 21.8904Z" fill="white"/>
<path d="M35 50.3863C48.4609 62.5445 69.2754 55.4522 78 50.3863C74.2609 54.1857 67.2656 62.3235 58.2917 63.8433C49.3178 65.3631 38.1159 55.4522 35 50.3863Z" fill="white"/>
<path d="M42.4783 21.8903C46.9652 17.331 49.3333 31.389 49.9565 38.9879C43.9739 26.8297 38.7391 33.922 36.8696 38.9879C36.8696 37.0882 36.8696 27.5895 42.4783 21.8903Z" stroke="white" stroke-miterlimit="16" stroke-linejoin="round"/>
<path d="M70.5217 21.8904C75.0087 17.331 76.1304 31.389 76.1304 38.9879C70.1478 26.8297 64.913 33.922 63.0435 38.9879C63.0435 38.9879 64.913 27.5896 70.5217 21.8904Z" stroke="white" stroke-miterlimit="16" stroke-linejoin="round"/>
<path d="M35 50.3863C48.4609 62.5445 69.2754 55.4522 78 50.3863C74.2609 54.1857 67.2656 62.3235 58.2917 63.8433C49.3178 65.3631 38.1159 55.4522 35 50.3863Z" stroke="white" stroke-miterlimit="16" stroke-linejoin="round"/>
<path d="M7.1747 47.8511C6.82479 46.3339 9.29432 44.8139 12.1156 46.8165C12.1156 46.8165 21.0881 53.893 25.4886 57.0592L27.1538 57.4591C27.1538 57.4591 28.4976 57.1491 28.3036 55.626C27.5277 49.5335 31.2391 47.8935 31.2391 47.8935C34.0888 46.6091 34.6467 47.8916 34.5695 48.6933C33.6494 50.1598 33.8371 54.6111 34.0459 56.6535C34.0459 56.6535 36.395 63.4285 37.1961 66.9021C35.2306 82.2502 23.5745 79.451 23.5745 79.451C23.5745 79.451 11.3086 72.8726 5.5491 69.4973C3.34173 67.6546 5.05862 65.6907 6.84032 66.1132L15.1972 70.4079C16.5295 70.7278 16.1355 69.9302 15.7719 69.4914L1.99589 60.9095C-0.906299 58.8073 1.30774 55.2659 4.12456 56.4989L16.2358 64.6808C17.4306 64.4052 17.0026 63.4587 16.6392 63.0199L2.69095 53.6938C-0.0866965 51.8797 3.58364 48.2896 5.73804 49.8553C9.83234 52.8307 18.2046 58.8959 18.9394 59.3536C19.6741 59.8113 19.6289 58.9333 19.5144 58.437C17.6776 57.2928 13.4186 54.5122 11.077 52.5436C8.73548 50.575 7.50656 49.29 7.1747 47.8511Z" fill="white" fill-opacity="0.9"/>
<path d="M21.7369 51.1422C21.791 51.299 21.8372 51.4587 21.8747 51.6212L21.7369 51.1422Z" fill="white" fill-opacity="0.9"/>
<path d="M15.8491 45.9554C17.4775 46.5681 20.7989 48.4253 21.7369 51.1422M21.7369 51.1422C21.791 51.299 21.8372 51.4587 21.8747 51.6212L21.7369 51.1422ZM25.4368 50.0157C23.5627 47.5735 19.1829 42.6779 16.6559 42.6336M10.0812 75.5075C8.72213 75.2983 5.34999 74.0901 2.73375 70.9306M9.2747 78.8293C7.6094 78.4294 3.5904 76.6909 0.836831 72.9359M27.1538 57.4591C27.1538 57.4591 28.4976 57.1491 28.3036 55.626C27.5277 49.5335 31.2391 47.8935 31.2391 47.8935C34.0888 46.6091 34.6467 47.8916 34.5695 48.6933C33.6494 50.1598 33.8371 54.6111 34.0459 56.6535C34.0459 56.6535 36.395 63.4285 37.1961 66.9021C35.2306 82.2502 23.5745 79.451 23.5745 79.451C23.5745 79.451 11.3086 72.8726 5.5491 69.4973C3.34173 67.6546 5.05862 65.6907 6.84032 66.1132L15.1972 70.4079C16.5295 70.7278 16.1355 69.9302 15.7719 69.4914L1.99589 60.9095C-0.906299 58.8073 1.30774 55.2659 4.12456 56.4989L16.2358 64.6808C17.4306 64.4052 17.0026 63.4587 16.6392 63.0199L2.69095 53.6938C-0.0866964 51.8797 3.58364 48.2896 5.73804 49.8553C9.83234 52.8307 18.2046 58.8959 18.9394 59.3536C19.6741 59.8113 19.6289 58.9333 19.5144 58.437C17.6776 57.2928 13.4186 54.5122 11.077 52.5436C8.73548 50.575 7.50656 49.29 7.1747 47.8511C6.82479 46.3339 9.29432 44.8139 12.1156 46.8165C12.1156 46.8165 21.0881 53.893 25.4886 57.0592L27.1538 57.4591Z" stroke="white" stroke-width="0.4"/>
</g>
<defs>
<clipPath id="clip0_189_2">
<rect width="98" height="85" fill="white"/>
</clipPath>
</defs>
</svg>
