<svg width="30" height="24" viewBox="0 0 30 24" fill="none" xmlns="http://www.w3.org/2000/svg">
<rect x="5.05" y="0.05" width="23.9" height="23.9" rx="11.95" fill="black"/>
<rect x="5.05" y="0.05" width="23.9" height="23.9" rx="11.95" stroke="white" stroke-width="0.1"/>
<path d="M11 14.2308C14.7565 17.6362 20.5652 15.6498 23 14.2308C21.9565 15.295 20.0043 16.5743 17.5 17C14.9957 17.4257 11.8696 15.6498 11 14.2308Z" fill="white" stroke="white" stroke-miterlimit="16" stroke-linejoin="round"/>
<path d="M16.2644 6.83939C13.4644 5.63939 9.0977 6.00606 7.26436 6.33939C6.60914 6.44032 7.32468 7.38146 7.76436 7.83942C8.56436 11.4394 11.0977 12.3394 12.2644 12.3394C15.0644 12.3394 16.7644 9.67275 17.2644 8.33942C18.8644 11.5394 21.5977 12.3394 22.7644 12.3394C25.1644 12.3394 26.431 9.67275 26.7644 8.33942C27.5644 6.73942 27.431 6.3394 27.2644 6.33939C24.0644 5.53938 19.931 6.33939 18.2644 6.8394C17.4644 7.2394 16.5977 7.00606 16.2644 6.83939Z" fill="#F4F4F4" stroke="white" stroke-width="0.5" stroke-miterlimit="16" stroke-linejoin="round"/>
<path fill-rule="evenodd" clip-rule="evenodd" d="M2.74956 18.3755C2.51015 18.4171 2.34984 18.645 2.39149 18.8844V18.8844C2.43315 19.1238 2.66099 19.2841 2.9004 19.2425L6.84996 18.5553C7.08937 18.5136 7.24968 18.2858 7.20802 18.0464V18.0464C7.16637 17.807 6.93852 17.6466 6.69912 17.6883L2.74956 18.3755ZM2.86488 19.0253C2.74518 19.0462 2.63125 18.966 2.61043 18.8463V18.8463C2.5896 18.7266 2.66976 18.6127 2.78946 18.5918L3.01277 18.553C3.13248 18.5322 3.2464 18.6123 3.26723 18.732V18.732C3.28805 18.8517 3.2079 18.9656 3.08819 18.9865L2.86488 19.0253ZM3.95955 18.8349C3.83984 18.8557 3.72592 18.7755 3.70509 18.6558V18.6558C3.68427 18.5361 3.76442 18.4222 3.88413 18.4014L4.10744 18.3625C4.22714 18.3417 4.34107 18.4219 4.36189 18.5416V18.5416C4.38272 18.6613 4.30256 18.7752 4.18286 18.796L3.95955 18.8349ZM5.27315 18.6063C5.15344 18.6271 5.03952 18.547 5.01869 18.4273V18.4273C4.99787 18.3076 5.07802 18.1937 5.19773 18.1728L5.30938 18.1534L5.42104 18.134C5.54074 18.1131 5.65466 18.1933 5.67549 18.313V18.313C5.69632 18.4327 5.61616 18.5466 5.49646 18.5675L5.27315 18.6063ZM6.58675 18.3778C6.46704 18.3986 6.35312 18.3184 6.33229 18.1987V18.1987C6.31146 18.079 6.39162 17.9651 6.51132 17.9443L6.73464 17.9054C6.85434 17.8846 6.96826 17.9648 6.98909 18.0845V18.0845C7.00992 18.2042 6.92976 18.3181 6.81006 18.3389L6.58675 18.3778Z" fill="white"/>
<path d="M5.19773 18.1728C5.07802 18.1937 4.99787 18.3076 5.01869 18.4273V18.4273C5.03952 18.547 5.15344 18.6271 5.27315 18.6063L5.49646 18.5675C5.61616 18.5466 5.69632 18.4327 5.67549 18.313V18.313C5.65466 18.1933 5.54074 18.1131 5.42104 18.134L5.30938 18.1534L5.19773 18.1728Z" fill="black"/>
<path d="M3.88413 18.4014C3.76442 18.4222 3.68427 18.5361 3.70509 18.6558V18.6558C3.72592 18.7755 3.83984 18.8557 3.95955 18.8349L4.18286 18.796C4.30256 18.7752 4.38272 18.6613 4.36189 18.5416V18.5416C4.34107 18.4219 4.22714 18.3417 4.10744 18.3625L3.88413 18.4014Z" fill="black"/>
<path d="M2.78946 18.5918C2.66976 18.6127 2.5896 18.7266 2.61043 18.8463V18.8463C2.63125 18.966 2.74518 19.0462 2.86488 19.0253L3.08819 18.9865C3.2079 18.9656 3.28805 18.8517 3.26723 18.732V18.732C3.2464 18.6123 3.13248 18.5322 3.01277 18.553L2.78946 18.5918Z" fill="black"/>
<path d="M6.51132 17.9443C6.39162 17.9651 6.31146 18.079 6.33229 18.1987V18.1987C6.35312 18.3184 6.46704 18.3986 6.58675 18.3778L6.81006 18.3389C6.92976 18.3181 7.00992 18.2042 6.98909 18.0845V18.0845C6.96826 17.9648 6.85434 17.8846 6.73464 17.9054L6.51132 17.9443Z" fill="black"/>
<path d="M4.96998 16.2027C4.78861 16.2343 4.66717 16.4069 4.69872 16.5882L4.73529 16.7984C4.76685 16.9798 4.93946 17.1012 5.12083 17.0697V17.0697C5.3022 17.0381 5.42365 16.8655 5.39209 16.6841L5.35552 16.474C5.32397 16.2926 5.15135 16.1712 4.96998 16.2027V16.2027Z" fill="black"/>
<path d="M3.76585 16.4122C3.52644 16.4539 3.36175 16.6825 3.40341 16.9219V16.9219C3.44506 17.1613 3.67729 17.3208 3.9167 17.2792V17.2792C4.1561 17.2375 4.32079 17.0089 4.27914 16.7695V16.7695C4.23749 16.5301 4.00526 16.3706 3.76585 16.4122V16.4122Z" fill="black"/>
<path d="M2.08981 17.1504C2.04815 16.911 2.21284 16.6824 2.45225 16.6408V16.6408C2.69166 16.5991 2.92389 16.7587 2.96554 16.9981V16.9981C3.00719 17.2375 2.8425 17.4661 2.6031 17.5077V17.5077C2.36369 17.5494 2.13146 17.3898 2.08981 17.1504V17.1504Z" fill="black"/>
<path d="M2.22599 15.3403C2.4654 15.2986 2.69762 15.4582 2.73928 15.6976V15.6976C2.78093 15.937 2.61624 16.1656 2.37683 16.2073V16.2073C2.13742 16.2489 1.9052 16.0894 1.86354 15.85V15.85C1.82189 15.6106 1.98658 15.382 2.22599 15.3403V15.3403Z" fill="black"/>
<path d="M3.53959 15.1117C3.30018 15.1534 3.13549 15.382 3.17714 15.6214V15.6214C3.2188 15.8608 3.45102 16.0204 3.69043 15.9787V15.9787C3.92984 15.9371 4.09453 15.7085 4.05288 15.4691V15.4691C4.01122 15.2296 3.779 15.0701 3.53959 15.1117V15.1117Z" fill="black"/>
<path d="M4.74372 14.9022C4.56235 14.9338 4.4409 15.1064 4.47246 15.2878L4.50903 15.498C4.54058 15.6793 4.71319 15.8008 4.89456 15.7692V15.7692C5.07593 15.7377 5.19738 15.5651 5.16583 15.3837L5.12926 15.1735C5.0977 14.9921 4.92509 14.8707 4.74372 14.9022V14.9022Z" fill="black"/>
<path d="M5.94785 14.6927C5.70844 14.7344 5.54375 14.963 5.58541 15.2024V15.2024C5.62706 15.4418 5.85929 15.6014 6.0987 15.5597V15.5597C6.3381 15.5181 6.50279 15.2895 6.46114 15.05V15.05C6.41949 14.8106 6.18726 14.6511 5.94785 14.6927V14.6927Z" fill="black"/>
<path d="M5.72159 13.3923C5.48218 13.4339 5.31749 13.6625 5.35914 13.9019V13.9019C5.4008 14.1414 5.63302 14.3009 5.87243 14.2593V14.2593C6.11184 14.2176 6.27653 13.989 6.23488 13.7496V13.7496C6.19322 13.5102 5.961 13.3506 5.72159 13.3923V13.3923Z" fill="black"/>
<path d="M4.51746 13.6018C4.33609 13.6333 4.21464 13.8059 4.24619 13.9873L4.28276 14.1975C4.31432 14.3789 4.48693 14.5003 4.6683 14.4688V14.4688C4.84967 14.4372 4.97112 14.2646 4.93956 14.0832L4.90299 13.873C4.87144 13.6917 4.69883 13.5702 4.51746 13.6018V13.6018Z" fill="black"/>
<path fill-rule="evenodd" clip-rule="evenodd" d="M6.08261 8.98517C5.98794 8.44106 5.47011 8.07671 4.926 8.17138L0.985199 8.85703C0.441089 8.9517 0.0767439 9.46953 0.171412 10.0136L1.71412 18.8804C1.80879 19.4245 2.32663 19.7889 2.87074 19.6942L6.81153 19.0086C7.35564 18.9139 7.71999 18.3961 7.62532 17.852L6.08261 8.98517ZM2.74956 18.3755C2.51015 18.4171 2.34984 18.645 2.39149 18.8844V18.8844C2.43315 19.1238 2.66099 19.2841 2.9004 19.2425L6.84996 18.5553C7.08937 18.5136 7.24968 18.2858 7.20802 18.0464V18.0464C7.16637 17.807 6.93852 17.6466 6.69912 17.6883L2.74956 18.3755ZM5.12083 17.0697C4.93946 17.1012 4.76685 16.9798 4.73529 16.7984L4.69872 16.5882C4.66717 16.4069 4.78861 16.2343 4.96998 16.2027V16.2027C5.15135 16.1712 5.32397 16.2926 5.35552 16.474L5.39209 16.6841C5.42365 16.8655 5.3022 17.0381 5.12083 17.0697V17.0697ZM3.76585 16.4122C3.52644 16.4539 3.36175 16.6825 3.40341 16.9219V16.9219C3.44506 17.1613 3.67729 17.3208 3.9167 17.2792V17.2792C4.1561 17.2375 4.32079 17.0089 4.27914 16.7695V16.7695C4.23749 16.5301 4.00526 16.3706 3.76585 16.4122V16.4122ZM2.96554 16.9981C2.92389 16.7587 2.69166 16.5991 2.45225 16.6408V16.6408C2.21284 16.6824 2.04815 16.911 2.08981 17.1504V17.1504C2.13146 17.3898 2.36369 17.5494 2.6031 17.5077V17.5077C2.8425 17.4661 3.00719 17.2375 2.96554 16.9981V16.9981ZM2.22599 15.3403C2.4654 15.2986 2.69762 15.4582 2.73928 15.6976V15.6976C2.78093 15.937 2.61624 16.1656 2.37683 16.2073V16.2073C2.13742 16.2489 1.9052 16.0894 1.86354 15.85V15.85C1.82189 15.6106 1.98658 15.382 2.22599 15.3403V15.3403ZM3.69043 15.9787C3.45102 16.0204 3.2188 15.8608 3.17714 15.6214V15.6214C3.13549 15.382 3.30018 15.1534 3.53959 15.1117V15.1117C3.779 15.0701 4.01122 15.2296 4.05288 15.4691V15.4691C4.09453 15.7085 3.92984 15.9371 3.69043 15.9787V15.9787ZM4.74372 14.9022C4.56235 14.9338 4.4409 15.1064 4.47246 15.2878L4.50903 15.498C4.54058 15.6793 4.71319 15.8008 4.89456 15.7692V15.7692C5.07593 15.7377 5.19738 15.5651 5.16583 15.3837L5.12926 15.1735C5.0977 14.9921 4.92509 14.8707 4.74372 14.9022V14.9022ZM6.0987 15.5597C5.85929 15.6014 5.62706 15.4418 5.58541 15.2024V15.2024C5.54375 14.963 5.70844 14.7344 5.94785 14.6927V14.6927C6.18726 14.6511 6.41949 14.8106 6.46114 15.05V15.05C6.50279 15.2895 6.3381 15.5181 6.0987 15.5597V15.5597ZM5.72159 13.3923C5.48218 13.4339 5.31749 13.6625 5.35914 13.9019V13.9019C5.4008 14.1414 5.63302 14.3009 5.87243 14.2593V14.2593C6.11184 14.2176 6.27653 13.989 6.23488 13.7496V13.7496C6.19322 13.5102 5.961 13.3506 5.72159 13.3923V13.3923ZM4.6683 14.4688C4.48693 14.5003 4.31432 14.3789 4.28276 14.1975L4.24619 13.9873C4.21464 13.8059 4.33609 13.6333 4.51746 13.6018V13.6018C4.69883 13.5702 4.87144 13.6917 4.90299 13.873L4.93956 14.0832C4.97112 14.2646 4.84967 14.4372 4.6683 14.4688V14.4688ZM3.31332 13.8113C3.07391 13.8529 2.90922 14.0815 2.95088 14.321V14.321C2.99253 14.5604 3.22476 14.7199 3.46417 14.6783V14.6783C3.70357 14.6366 3.86826 14.408 3.82661 14.1686V14.1686C3.78496 13.9292 3.55273 13.7696 3.31332 13.8113V13.8113ZM3.2379 13.3778C3.47731 13.3361 3.642 13.1075 3.60035 12.8681V12.8681C3.55869 12.6287 3.32647 12.4692 3.08706 12.5108V12.5108C2.84765 12.5525 2.68296 12.7811 2.72461 13.0205V13.0205C2.76627 13.2599 2.99849 13.4195 3.2379 13.3778V13.3778ZM1.77346 12.7394C2.01287 12.6977 2.24509 12.8573 2.28675 13.0967V13.0967C2.3284 13.3361 2.16371 13.5647 1.9243 13.6063V13.6063C1.68489 13.648 1.45267 13.4885 1.41101 13.249V13.249C1.36936 13.0096 1.53405 12.781 1.77346 12.7394V12.7394ZM1.69804 12.3059C1.45863 12.3475 1.2264 12.188 1.18475 11.9486V11.9486C1.1431 11.7092 1.30779 11.4806 1.54719 11.4389V11.4389C1.7866 11.3973 2.01883 11.5568 2.06048 11.7962V11.7962C2.10214 12.0356 1.93745 12.2642 1.69804 12.3059V12.3059ZM2.86079 11.2104C2.62139 11.252 2.45669 11.4806 2.49835 11.72V11.72C2.54 11.9594 2.77223 12.119 3.01164 12.0773V12.0773C3.25105 12.0357 3.41574 11.8071 3.37408 11.5677V11.5677C3.33243 11.3283 3.1002 11.1687 2.86079 11.2104V11.2104ZM2.78537 10.7769C2.54596 10.8185 2.31374 10.659 2.27208 10.4196V10.4196C2.23043 10.1802 2.39512 9.95155 2.63453 9.9099V9.9099C2.87394 9.86824 3.10616 10.0278 3.14782 10.2672V10.2672C3.18947 10.5066 3.02478 10.7352 2.78537 10.7769V10.7769ZM1.32093 10.1384C1.08152 10.1801 0.916831 10.4087 0.958486 10.6481V10.6481C1.00014 10.8875 1.23236 11.0471 1.47177 11.0054V11.0054C1.71118 10.9638 1.87587 10.7352 1.83422 10.4958V10.4958C1.79256 10.2563 1.56034 10.0968 1.32093 10.1384V10.1384ZM3.98951 10.5674C3.80813 10.5989 3.63552 10.4775 3.60397 10.2961L3.5674 10.0859C3.53584 9.90456 3.65729 9.73195 3.83866 9.70039V9.70039C4.02003 9.66884 4.19264 9.79028 4.2242 9.97165L4.26077 10.1818C4.29232 10.3632 4.17088 10.5358 3.98951 10.5674V10.5674ZM5.04279 9.49089C4.80339 9.53254 4.6387 9.76115 4.68035 10.0006V10.0006C4.722 10.24 4.95423 10.3995 5.19364 10.3579V10.3579C5.43305 10.3162 5.59774 10.0876 5.55608 9.84819V9.84819C5.51443 9.60878 5.2822 9.44923 5.04279 9.49089V9.49089ZM4.21577 11.8678C4.0344 11.8994 3.86179 11.7779 3.83023 11.5966L3.79366 11.3864C3.76211 11.205 3.88356 11.0324 4.06493 11.0009V11.0009C4.2463 10.9693 4.41891 11.0907 4.45046 11.2721L4.48703 11.4823C4.51859 11.6637 4.39714 11.8363 4.21577 11.8678V11.8678ZM5.26906 10.7914C5.02965 10.833 4.86496 11.0616 4.90661 11.301V11.301C4.94827 11.5404 5.18049 11.7 5.4199 11.6583V11.6583C5.65931 11.6167 5.824 11.3881 5.78235 11.1487V11.1487C5.74069 10.9092 5.50847 10.7497 5.26906 10.7914V10.7914ZM5.64617 12.9588C5.40676 13.0004 5.17453 12.8409 5.13288 12.6015V12.6015C5.09122 12.3621 5.25591 12.1335 5.49532 12.0918V12.0918C5.73473 12.0502 5.96696 12.2097 6.00861 12.4491V12.4491C6.05027 12.6885 5.88558 12.9171 5.64617 12.9588V12.9588ZM4.29119 12.3013C4.47256 12.2698 4.64517 12.3912 4.67673 12.5726L4.7133 12.7828C4.74485 12.9641 4.6234 13.1367 4.44203 13.1683V13.1683C4.26066 13.1999 4.08805 13.0784 4.0565 12.897L4.01993 12.6869C3.98837 12.5055 4.10982 12.3329 4.29119 12.3013V12.3013ZM2.15057 14.9068C1.91116 14.9485 1.67893 14.7889 1.63728 14.5495V14.5495C1.59562 14.3101 1.76032 14.0815 1.99972 14.0398V14.0398C2.23913 13.9982 2.47136 14.1577 2.51301 14.3971V14.3971C2.55467 14.6365 2.38998 14.8652 2.15057 14.9068V14.9068Z" fill="white"/>
<path d="M1.99972 14.0398C1.76032 14.0815 1.59562 14.3101 1.63728 14.5495V14.5495C1.67893 14.7889 1.91116 14.9485 2.15057 14.9068V14.9068C2.38998 14.8652 2.55467 14.6365 2.51301 14.3971V14.3971C2.47136 14.1577 2.23913 13.9982 1.99972 14.0398V14.0398Z" fill="black"/>
<path d="M3.31332 13.8113C3.07391 13.8529 2.90922 14.0815 2.95088 14.321V14.321C2.99253 14.5604 3.22476 14.7199 3.46417 14.6783V14.6783C3.70357 14.6366 3.86826 14.408 3.82661 14.1686V14.1686C3.78496 13.9292 3.55273 13.7696 3.31332 13.8113V13.8113Z" fill="black"/>
<path d="M3.08706 12.5108C3.32647 12.4692 3.55869 12.6287 3.60035 12.8681V12.8681C3.642 13.1075 3.47731 13.3361 3.2379 13.3778V13.3778C2.99849 13.4195 2.76627 13.2599 2.72461 13.0205V13.0205C2.68296 12.7811 2.84765 12.5525 3.08706 12.5108V12.5108Z" fill="black"/>
<path d="M1.77346 12.7394C2.01287 12.6977 2.24509 12.8573 2.28675 13.0967V13.0967C2.3284 13.3361 2.16371 13.5647 1.9243 13.6063V13.6063C1.68489 13.648 1.45267 13.4885 1.41101 13.249V13.249C1.36936 13.0096 1.53405 12.781 1.77346 12.7394V12.7394Z" fill="black"/>
<path d="M4.29119 12.3013C4.47256 12.2698 4.64517 12.3912 4.67673 12.5726L4.7133 12.7828C4.74485 12.9641 4.6234 13.1367 4.44203 13.1683V13.1683C4.26066 13.1999 4.08805 13.0784 4.0565 12.897L4.01993 12.6869C3.98837 12.5055 4.10982 12.3329 4.29119 12.3013V12.3013Z" fill="#080808"/>
<path d="M5.49532 12.0918C5.25591 12.1335 5.09122 12.3621 5.13288 12.6015V12.6015C5.17453 12.8409 5.40676 13.0004 5.64617 12.9588V12.9588C5.88558 12.9171 6.05027 12.6885 6.00861 12.4491V12.4491C5.96696 12.2097 5.73473 12.0502 5.49532 12.0918V12.0918Z" fill="#020202"/>
<path d="M4.06493 11.0009C3.88356 11.0324 3.76211 11.205 3.79366 11.3864L3.83023 11.5966C3.86179 11.7779 4.0344 11.8994 4.21577 11.8678V11.8678C4.39714 11.8363 4.51859 11.6637 4.48703 11.4823L4.45046 11.2721C4.41891 11.0907 4.2463 10.9693 4.06493 11.0009V11.0009Z" fill="black"/>
<path d="M2.86079 11.2104C2.62139 11.252 2.45669 11.4806 2.49835 11.72V11.72C2.54 11.9594 2.77223 12.119 3.01164 12.0773V12.0773C3.25105 12.0357 3.41574 11.8071 3.37408 11.5677V11.5677C3.33243 11.3283 3.1002 11.1687 2.86079 11.2104V11.2104Z" fill="black"/>
<path d="M1.54719 11.4389C1.30779 11.4806 1.1431 11.7092 1.18475 11.9486V11.9486C1.2264 12.188 1.45863 12.3475 1.69804 12.3059V12.3059C1.93745 12.2642 2.10214 12.0356 2.06048 11.7962V11.7962C2.01883 11.5568 1.7866 11.3973 1.54719 11.4389V11.4389Z" fill="black"/>
<path d="M1.32093 10.1384C1.08152 10.1801 0.916831 10.4087 0.958486 10.6481V10.6481C1.00014 10.8875 1.23236 11.0471 1.47177 11.0054V11.0054C1.71118 10.9638 1.87587 10.7352 1.83422 10.4958V10.4958C1.79256 10.2563 1.56034 10.0968 1.32093 10.1384V10.1384Z" fill="black"/>
<path d="M2.63453 9.9099C2.39512 9.95155 2.23043 10.1802 2.27208 10.4196V10.4196C2.31374 10.659 2.54596 10.8185 2.78537 10.7769V10.7769C3.02478 10.7352 3.18947 10.5066 3.14782 10.2672V10.2672C3.10616 10.0278 2.87394 9.86824 2.63453 9.9099V9.9099Z" fill="black"/>
<path d="M3.83866 9.70039C3.65729 9.73195 3.53584 9.90456 3.5674 10.0859L3.60397 10.2961C3.63552 10.4775 3.80813 10.5989 3.98951 10.5674V10.5674C4.17088 10.5358 4.29232 10.3632 4.26077 10.1818L4.2242 9.97165C4.19264 9.79028 4.02003 9.66884 3.83866 9.70039V9.70039Z" fill="black"/>
<path d="M5.04279 9.49089C4.80339 9.53254 4.6387 9.76115 4.68035 10.0006V10.0006C4.722 10.24 4.95423 10.3995 5.19364 10.3579V10.3579C5.43305 10.3162 5.59774 10.0876 5.55608 9.84819V9.84819C5.51443 9.60878 5.2822 9.44923 5.04279 9.49089V9.49089Z" fill="black"/>
<path d="M5.26906 10.7914C5.02965 10.833 4.86496 11.0616 4.90661 11.301V11.301C4.94827 11.5404 5.18049 11.7 5.4199 11.6583V11.6583C5.65931 11.6167 5.824 11.3881 5.78235 11.1487V11.1487C5.74069 10.9092 5.50847 10.7497 5.26906 10.7914V10.7914Z" fill="black"/>
<path fill-rule="evenodd" clip-rule="evenodd" d="M2.74956 18.3755C2.51015 18.4171 2.34984 18.645 2.39149 18.8844V18.8844C2.43315 19.1238 2.66099 19.2841 2.9004 19.2425L6.84996 18.5553C7.08937 18.5136 7.24968 18.2858 7.20802 18.0464V18.0464C7.16637 17.807 6.93852 17.6466 6.69912 17.6883L2.74956 18.3755ZM2.86488 19.0253C2.74518 19.0462 2.63125 18.966 2.61043 18.8463V18.8463C2.5896 18.7266 2.66976 18.6127 2.78946 18.5918L3.01277 18.553C3.13248 18.5322 3.2464 18.6123 3.26723 18.732V18.732C3.28805 18.8517 3.2079 18.9656 3.08819 18.9865L2.86488 19.0253ZM3.95955 18.8349C3.83984 18.8557 3.72592 18.7755 3.70509 18.6558V18.6558C3.68427 18.5361 3.76442 18.4222 3.88413 18.4014L4.10744 18.3625C4.22714 18.3417 4.34107 18.4219 4.36189 18.5416V18.5416C4.38272 18.6613 4.30256 18.7752 4.18286 18.796L3.95955 18.8349ZM5.27315 18.6063C5.15344 18.6271 5.03952 18.547 5.01869 18.4273V18.4273C4.99787 18.3076 5.07802 18.1937 5.19773 18.1728L5.30938 18.1534L5.42104 18.134C5.54074 18.1131 5.65466 18.1933 5.67549 18.313V18.313C5.69632 18.4327 5.61616 18.5466 5.49646 18.5675L5.27315 18.6063ZM6.58675 18.3778C6.46704 18.3986 6.35312 18.3184 6.33229 18.1987V18.1987C6.31146 18.079 6.39162 17.9651 6.51132 17.9443L6.73464 17.9054C6.85434 17.8846 6.96826 17.9648 6.98909 18.0845V18.0845C7.00992 18.2042 6.92976 18.3181 6.81006 18.3389L6.58675 18.3778Z" stroke="black" stroke-width="0.2"/>
<path d="M5.19773 18.1728C5.07802 18.1937 4.99787 18.3076 5.01869 18.4273V18.4273C5.03952 18.547 5.15344 18.6271 5.27315 18.6063L5.49646 18.5675C5.61616 18.5466 5.69632 18.4327 5.67549 18.313V18.313C5.65466 18.1933 5.54074 18.1131 5.42104 18.134L5.30938 18.1534L5.19773 18.1728Z" stroke="black" stroke-width="0.2"/>
<path d="M3.88413 18.4014C3.76442 18.4222 3.68427 18.5361 3.70509 18.6558V18.6558C3.72592 18.7755 3.83984 18.8557 3.95955 18.8349L4.18286 18.796C4.30256 18.7752 4.38272 18.6613 4.36189 18.5416V18.5416C4.34107 18.4219 4.22714 18.3417 4.10744 18.3625L3.88413 18.4014Z" stroke="black" stroke-width="0.2"/>
<path d="M2.78946 18.5918C2.66976 18.6127 2.5896 18.7266 2.61043 18.8463V18.8463C2.63125 18.966 2.74518 19.0462 2.86488 19.0253L3.08819 18.9865C3.2079 18.9656 3.28805 18.8517 3.26723 18.732V18.732C3.2464 18.6123 3.13248 18.5322 3.01277 18.553L2.78946 18.5918Z" stroke="black" stroke-width="0.2"/>
<path d="M6.51132 17.9443C6.39162 17.9651 6.31146 18.079 6.33229 18.1987V18.1987C6.35312 18.3184 6.46704 18.3986 6.58675 18.3778L6.81006 18.3389C6.92976 18.3181 7.00992 18.2042 6.98909 18.0845V18.0845C6.96826 17.9648 6.85434 17.8846 6.73464 17.9054L6.51132 17.9443Z" stroke="black" stroke-width="0.2"/>
<path d="M4.96998 16.2027C4.78861 16.2343 4.66717 16.4069 4.69872 16.5882L4.73529 16.7984C4.76685 16.9798 4.93946 17.1012 5.12083 17.0697V17.0697C5.3022 17.0381 5.42365 16.8655 5.39209 16.6841L5.35552 16.474C5.32397 16.2926 5.15135 16.1712 4.96998 16.2027V16.2027Z" stroke="black" stroke-width="0.2"/>
<path d="M3.76585 16.4122C3.52644 16.4539 3.36175 16.6825 3.40341 16.9219V16.9219C3.44506 17.1613 3.67729 17.3208 3.9167 17.2792V17.2792C4.1561 17.2375 4.32079 17.0089 4.27914 16.7695V16.7695C4.23749 16.5301 4.00526 16.3706 3.76585 16.4122V16.4122Z" stroke="black" stroke-width="0.2"/>
<path d="M2.08981 17.1504C2.04815 16.911 2.21284 16.6824 2.45225 16.6408V16.6408C2.69166 16.5991 2.92389 16.7587 2.96554 16.9981V16.9981C3.00719 17.2375 2.8425 17.4661 2.6031 17.5077V17.5077C2.36369 17.5494 2.13146 17.3898 2.08981 17.1504V17.1504Z" stroke="black" stroke-width="0.2"/>
<path d="M2.22599 15.3403C2.4654 15.2986 2.69762 15.4582 2.73928 15.6976V15.6976C2.78093 15.937 2.61624 16.1656 2.37683 16.2073V16.2073C2.13742 16.2489 1.9052 16.0894 1.86354 15.85V15.85C1.82189 15.6106 1.98658 15.382 2.22599 15.3403V15.3403Z" stroke="black" stroke-width="0.2"/>
<path d="M3.53959 15.1117C3.30018 15.1534 3.13549 15.382 3.17714 15.6214V15.6214C3.2188 15.8608 3.45102 16.0204 3.69043 15.9787V15.9787C3.92984 15.9371 4.09453 15.7085 4.05288 15.4691V15.4691C4.01122 15.2296 3.779 15.0701 3.53959 15.1117V15.1117Z" stroke="black" stroke-width="0.2"/>
<path d="M4.74372 14.9022C4.56235 14.9338 4.4409 15.1064 4.47246 15.2878L4.50903 15.498C4.54058 15.6793 4.71319 15.8008 4.89456 15.7692V15.7692C5.07593 15.7377 5.19738 15.5651 5.16583 15.3837L5.12926 15.1735C5.0977 14.9921 4.92509 14.8707 4.74372 14.9022V14.9022Z" stroke="black" stroke-width="0.2"/>
<path d="M5.94785 14.6927C5.70844 14.7344 5.54375 14.963 5.58541 15.2024V15.2024C5.62706 15.4418 5.85929 15.6014 6.0987 15.5597V15.5597C6.3381 15.5181 6.50279 15.2895 6.46114 15.05V15.05C6.41949 14.8106 6.18726 14.6511 5.94785 14.6927V14.6927Z" stroke="black" stroke-width="0.2"/>
<path d="M5.72159 13.3923C5.48218 13.4339 5.31749 13.6625 5.35914 13.9019V13.9019C5.4008 14.1414 5.63302 14.3009 5.87243 14.2593V14.2593C6.11184 14.2176 6.27653 13.989 6.23488 13.7496V13.7496C6.19322 13.5102 5.961 13.3506 5.72159 13.3923V13.3923Z" stroke="black" stroke-width="0.2"/>
<path d="M4.51746 13.6018C4.33609 13.6333 4.21464 13.8059 4.24619 13.9873L4.28276 14.1975C4.31432 14.3789 4.48693 14.5003 4.6683 14.4688V14.4688C4.84967 14.4372 4.97112 14.2646 4.93956 14.0832L4.90299 13.873C4.87144 13.6917 4.69883 13.5702 4.51746 13.6018V13.6018Z" stroke="black" stroke-width="0.2"/>
<path fill-rule="evenodd" clip-rule="evenodd" d="M6.08261 8.98517C5.98794 8.44106 5.47011 8.07671 4.926 8.17138L0.985199 8.85703C0.441089 8.9517 0.0767439 9.46953 0.171412 10.0136L1.71412 18.8804C1.80879 19.4245 2.32663 19.7889 2.87074 19.6942L6.81153 19.0086C7.35564 18.9139 7.71999 18.3961 7.62532 17.852L6.08261 8.98517ZM2.74956 18.3755C2.51015 18.4171 2.34984 18.645 2.39149 18.8844V18.8844C2.43315 19.1238 2.66099 19.2841 2.9004 19.2425L6.84996 18.5553C7.08937 18.5136 7.24968 18.2858 7.20802 18.0464V18.0464C7.16637 17.807 6.93852 17.6466 6.69912 17.6883L2.74956 18.3755ZM5.12083 17.0697C4.93946 17.1012 4.76685 16.9798 4.73529 16.7984L4.69872 16.5882C4.66717 16.4069 4.78861 16.2343 4.96998 16.2027V16.2027C5.15135 16.1712 5.32397 16.2926 5.35552 16.474L5.39209 16.6841C5.42365 16.8655 5.3022 17.0381 5.12083 17.0697V17.0697ZM3.76585 16.4122C3.52644 16.4539 3.36175 16.6825 3.40341 16.9219V16.9219C3.44506 17.1613 3.67729 17.3208 3.9167 17.2792V17.2792C4.1561 17.2375 4.32079 17.0089 4.27914 16.7695V16.7695C4.23749 16.5301 4.00526 16.3706 3.76585 16.4122V16.4122ZM2.96554 16.9981C2.92389 16.7587 2.69166 16.5991 2.45225 16.6408V16.6408C2.21284 16.6824 2.04815 16.911 2.08981 17.1504V17.1504C2.13146 17.3898 2.36369 17.5494 2.6031 17.5077V17.5077C2.8425 17.4661 3.00719 17.2375 2.96554 16.9981V16.9981ZM2.22599 15.3403C2.4654 15.2986 2.69762 15.4582 2.73928 15.6976V15.6976C2.78093 15.937 2.61624 16.1656 2.37683 16.2073V16.2073C2.13742 16.2489 1.9052 16.0894 1.86354 15.85V15.85C1.82189 15.6106 1.98658 15.382 2.22599 15.3403V15.3403ZM3.69043 15.9787C3.45102 16.0204 3.2188 15.8608 3.17714 15.6214V15.6214C3.13549 15.382 3.30018 15.1534 3.53959 15.1117V15.1117C3.779 15.0701 4.01122 15.2296 4.05288 15.4691V15.4691C4.09453 15.7085 3.92984 15.9371 3.69043 15.9787V15.9787ZM4.74372 14.9022C4.56235 14.9338 4.4409 15.1064 4.47246 15.2878L4.50903 15.498C4.54058 15.6793 4.71319 15.8008 4.89456 15.7692V15.7692C5.07593 15.7377 5.19738 15.5651 5.16583 15.3837L5.12926 15.1735C5.0977 14.9921 4.92509 14.8707 4.74372 14.9022V14.9022ZM6.0987 15.5597C5.85929 15.6014 5.62706 15.4418 5.58541 15.2024V15.2024C5.54375 14.963 5.70844 14.7344 5.94785 14.6927V14.6927C6.18726 14.6511 6.41949 14.8106 6.46114 15.05V15.05C6.50279 15.2895 6.3381 15.5181 6.0987 15.5597V15.5597ZM5.72159 13.3923C5.48218 13.4339 5.31749 13.6625 5.35914 13.9019V13.9019C5.4008 14.1414 5.63302 14.3009 5.87243 14.2593V14.2593C6.11184 14.2176 6.27653 13.989 6.23488 13.7496V13.7496C6.19322 13.5102 5.961 13.3506 5.72159 13.3923V13.3923ZM4.6683 14.4688C4.48693 14.5003 4.31432 14.3789 4.28276 14.1975L4.24619 13.9873C4.21464 13.8059 4.33609 13.6333 4.51746 13.6018V13.6018C4.69883 13.5702 4.87144 13.6917 4.90299 13.873L4.93956 14.0832C4.97112 14.2646 4.84967 14.4372 4.6683 14.4688V14.4688ZM3.31332 13.8113C3.07391 13.8529 2.90922 14.0815 2.95088 14.321V14.321C2.99253 14.5604 3.22476 14.7199 3.46417 14.6783V14.6783C3.70357 14.6366 3.86826 14.408 3.82661 14.1686V14.1686C3.78496 13.9292 3.55273 13.7696 3.31332 13.8113V13.8113ZM3.2379 13.3778C3.47731 13.3361 3.642 13.1075 3.60035 12.8681V12.8681C3.55869 12.6287 3.32647 12.4692 3.08706 12.5108V12.5108C2.84765 12.5525 2.68296 12.7811 2.72461 13.0205V13.0205C2.76627 13.2599 2.99849 13.4195 3.2379 13.3778V13.3778ZM1.77346 12.7394C2.01287 12.6977 2.24509 12.8573 2.28675 13.0967V13.0967C2.3284 13.3361 2.16371 13.5647 1.9243 13.6063V13.6063C1.68489 13.648 1.45267 13.4885 1.41101 13.249V13.249C1.36936 13.0096 1.53405 12.781 1.77346 12.7394V12.7394ZM1.69804 12.3059C1.45863 12.3475 1.2264 12.188 1.18475 11.9486V11.9486C1.1431 11.7092 1.30779 11.4806 1.54719 11.4389V11.4389C1.7866 11.3973 2.01883 11.5568 2.06048 11.7962V11.7962C2.10214 12.0356 1.93745 12.2642 1.69804 12.3059V12.3059ZM2.86079 11.2104C2.62139 11.252 2.45669 11.4806 2.49835 11.72V11.72C2.54 11.9594 2.77223 12.119 3.01164 12.0773V12.0773C3.25105 12.0357 3.41574 11.8071 3.37408 11.5677V11.5677C3.33243 11.3283 3.1002 11.1687 2.86079 11.2104V11.2104ZM2.78537 10.7769C2.54596 10.8185 2.31374 10.659 2.27208 10.4196V10.4196C2.23043 10.1802 2.39512 9.95155 2.63453 9.9099V9.9099C2.87394 9.86824 3.10616 10.0278 3.14782 10.2672V10.2672C3.18947 10.5066 3.02478 10.7352 2.78537 10.7769V10.7769ZM1.32093 10.1384C1.08152 10.1801 0.916831 10.4087 0.958486 10.6481V10.6481C1.00014 10.8875 1.23236 11.0471 1.47177 11.0054V11.0054C1.71118 10.9638 1.87587 10.7352 1.83422 10.4958V10.4958C1.79256 10.2563 1.56034 10.0968 1.32093 10.1384V10.1384ZM3.98951 10.5674C3.80813 10.5989 3.63552 10.4775 3.60397 10.2961L3.5674 10.0859C3.53584 9.90456 3.65729 9.73195 3.83866 9.70039V9.70039C4.02003 9.66884 4.19264 9.79028 4.2242 9.97165L4.26077 10.1818C4.29232 10.3632 4.17088 10.5358 3.98951 10.5674V10.5674ZM5.04279 9.49089C4.80339 9.53254 4.6387 9.76115 4.68035 10.0006V10.0006C4.722 10.24 4.95423 10.3995 5.19364 10.3579V10.3579C5.43305 10.3162 5.59774 10.0876 5.55608 9.84819V9.84819C5.51443 9.60878 5.2822 9.44923 5.04279 9.49089V9.49089ZM4.21577 11.8678C4.0344 11.8994 3.86179 11.7779 3.83023 11.5966L3.79366 11.3864C3.76211 11.205 3.88356 11.0324 4.06493 11.0009V11.0009C4.2463 10.9693 4.41891 11.0907 4.45046 11.2721L4.48703 11.4823C4.51859 11.6637 4.39714 11.8363 4.21577 11.8678V11.8678ZM5.26906 10.7914C5.02965 10.833 4.86496 11.0616 4.90661 11.301V11.301C4.94827 11.5404 5.18049 11.7 5.4199 11.6583V11.6583C5.65931 11.6167 5.824 11.3881 5.78235 11.1487V11.1487C5.74069 10.9092 5.50847 10.7497 5.26906 10.7914V10.7914ZM5.64617 12.9588C5.40676 13.0004 5.17453 12.8409 5.13288 12.6015V12.6015C5.09122 12.3621 5.25591 12.1335 5.49532 12.0918V12.0918C5.73473 12.0502 5.96696 12.2097 6.00861 12.4491V12.4491C6.05027 12.6885 5.88558 12.9171 5.64617 12.9588V12.9588ZM4.29119 12.3013C4.47256 12.2698 4.64517 12.3912 4.67673 12.5726L4.7133 12.7828C4.74485 12.9641 4.6234 13.1367 4.44203 13.1683V13.1683C4.26066 13.1999 4.08805 13.0784 4.0565 12.897L4.01993 12.6869C3.98837 12.5055 4.10982 12.3329 4.29119 12.3013V12.3013ZM2.15057 14.9068C1.91116 14.9485 1.67893 14.7889 1.63728 14.5495V14.5495C1.59562 14.3101 1.76032 14.0815 1.99972 14.0398V14.0398C2.23913 13.9982 2.47136 14.1577 2.51301 14.3971V14.3971C2.55467 14.6365 2.38998 14.8652 2.15057 14.9068V14.9068Z" stroke="black" stroke-width="0.2"/>
<path d="M1.99972 14.0398C1.76032 14.0815 1.59562 14.3101 1.63728 14.5495V14.5495C1.67893 14.7889 1.91116 14.9485 2.15057 14.9068V14.9068C2.38998 14.8652 2.55467 14.6365 2.51301 14.3971V14.3971C2.47136 14.1577 2.23913 13.9982 1.99972 14.0398V14.0398Z" stroke="black" stroke-width="0.2"/>
<path d="M3.31332 13.8113C3.07391 13.8529 2.90922 14.0815 2.95088 14.321V14.321C2.99253 14.5604 3.22476 14.7199 3.46417 14.6783V14.6783C3.70357 14.6366 3.86826 14.408 3.82661 14.1686V14.1686C3.78496 13.9292 3.55273 13.7696 3.31332 13.8113V13.8113Z" stroke="black" stroke-width="0.2"/>
<path d="M3.08706 12.5108C3.32647 12.4692 3.55869 12.6287 3.60035 12.8681V12.8681C3.642 13.1075 3.47731 13.3361 3.2379 13.3778V13.3778C2.99849 13.4195 2.76627 13.2599 2.72461 13.0205V13.0205C2.68296 12.7811 2.84765 12.5525 3.08706 12.5108V12.5108Z" stroke="black" stroke-width="0.2"/>
<path d="M1.77346 12.7394C2.01287 12.6977 2.24509 12.8573 2.28675 13.0967V13.0967C2.3284 13.3361 2.16371 13.5647 1.9243 13.6063V13.6063C1.68489 13.648 1.45267 13.4885 1.41101 13.249V13.249C1.36936 13.0096 1.53405 12.781 1.77346 12.7394V12.7394Z" stroke="black" stroke-width="0.2"/>
<path d="M4.29119 12.3013C4.47256 12.2698 4.64517 12.3912 4.67673 12.5726L4.7133 12.7828C4.74485 12.9641 4.6234 13.1367 4.44203 13.1683V13.1683C4.26066 13.1999 4.08805 13.0784 4.0565 12.897L4.01993 12.6869C3.98837 12.5055 4.10982 12.3329 4.29119 12.3013V12.3013Z" stroke="black" stroke-width="0.2"/>
<path d="M5.49532 12.0918C5.25591 12.1335 5.09122 12.3621 5.13288 12.6015V12.6015C5.17453 12.8409 5.40676 13.0004 5.64617 12.9588V12.9588C5.88558 12.9171 6.05027 12.6885 6.00861 12.4491V12.4491C5.96696 12.2097 5.73473 12.0502 5.49532 12.0918V12.0918Z" stroke="black" stroke-width="0.2"/>
<path d="M4.06493 11.0009C3.88356 11.0324 3.76211 11.205 3.79366 11.3864L3.83023 11.5966C3.86179 11.7779 4.0344 11.8994 4.21577 11.8678V11.8678C4.39714 11.8363 4.51859 11.6637 4.48703 11.4823L4.45046 11.2721C4.41891 11.0907 4.2463 10.9693 4.06493 11.0009V11.0009Z" stroke="black" stroke-width="0.2"/>
<path d="M2.86079 11.2104C2.62139 11.252 2.45669 11.4806 2.49835 11.72V11.72C2.54 11.9594 2.77223 12.119 3.01164 12.0773V12.0773C3.25105 12.0357 3.41574 11.8071 3.37408 11.5677V11.5677C3.33243 11.3283 3.1002 11.1687 2.86079 11.2104V11.2104Z" stroke="black" stroke-width="0.2"/>
<path d="M1.54719 11.4389C1.30779 11.4806 1.1431 11.7092 1.18475 11.9486V11.9486C1.2264 12.188 1.45863 12.3475 1.69804 12.3059V12.3059C1.93745 12.2642 2.10214 12.0356 2.06048 11.7962V11.7962C2.01883 11.5568 1.7866 11.3973 1.54719 11.4389V11.4389Z" stroke="black" stroke-width="0.2"/>
<path d="M1.32093 10.1384C1.08152 10.1801 0.916831 10.4087 0.958486 10.6481V10.6481C1.00014 10.8875 1.23236 11.0471 1.47177 11.0054V11.0054C1.71118 10.9638 1.87587 10.7352 1.83422 10.4958V10.4958C1.79256 10.2563 1.56034 10.0968 1.32093 10.1384V10.1384Z" stroke="black" stroke-width="0.2"/>
<path d="M2.63453 9.9099C2.39512 9.95155 2.23043 10.1802 2.27208 10.4196V10.4196C2.31374 10.659 2.54596 10.8185 2.78537 10.7769V10.7769C3.02478 10.7352 3.18947 10.5066 3.14782 10.2672V10.2672C3.10616 10.0278 2.87394 9.86824 2.63453 9.9099V9.9099Z" stroke="black" stroke-width="0.2"/>
<path d="M3.83866 9.70039C3.65729 9.73195 3.53584 9.90456 3.5674 10.0859L3.60397 10.2961C3.63552 10.4775 3.80813 10.5989 3.98951 10.5674V10.5674C4.17088 10.5358 4.29232 10.3632 4.26077 10.1818L4.2242 9.97165C4.19264 9.79028 4.02003 9.66884 3.83866 9.70039V9.70039Z" stroke="black" stroke-width="0.2"/>
<path d="M5.04279 9.49089C4.80339 9.53254 4.6387 9.76115 4.68035 10.0006V10.0006C4.722 10.24 4.95423 10.3995 5.19364 10.3579V10.3579C5.43305 10.3162 5.59774 10.0876 5.55608 9.84819V9.84819C5.51443 9.60878 5.2822 9.44923 5.04279 9.49089V9.49089Z" stroke="black" stroke-width="0.2"/>
<path d="M5.26906 10.7914C5.02965 10.833 4.86496 11.0616 4.90661 11.301V11.301C4.94827 11.5404 5.18049 11.7 5.4199 11.6583V11.6583C5.65931 11.6167 5.824 11.3881 5.78235 11.1487V11.1487C5.74069 10.9092 5.50847 10.7497 5.26906 10.7914V10.7914Z" stroke="black" stroke-width="0.2"/>
</svg>
