<svg width="101" height="85" viewBox="0 0 101 85" fill="none" xmlns="http://www.w3.org/2000/svg">
<rect x="2.05" y="1.05" width="81.9" height="81.9" rx="40.95" fill="black"/>
<rect x="2.05" y="1.05" width="81.9" height="81.9" rx="40.95" stroke="white" stroke-width="0.1"/>
<path d="M22 51C34.8348 61.8167 54.6812 55.507 63 51C59.4348 54.3802 52.7649 58.4438 44.2083 59.7959C35.6518 61.148 24.971 55.507 22 51Z" fill="white" stroke="white" stroke-miterlimit="16" stroke-linejoin="round"/>
<path d="M39.8951 25.7806C30.5576 21.8054 15.9955 23.0201 9.8816 24.1243C7.69653 24.4586 10.0828 27.5762 11.549 29.0933C14.2169 41.0187 22.6652 44 26.5558 44C35.8933 44 41.5626 35.1664 43.23 30.7496C48.5657 41.3499 57.681 44 61.5716 44C69.5752 44 73.7993 35.1664 74.911 30.7496C77.5788 25.4494 77.1342 24.1243 76.5784 24.1243C65.9069 21.4742 52.1229 24.1243 46.5648 25.7806C43.897 27.1057 41.0068 26.3327 39.8951 25.7806Z" fill="#F4F4F4" stroke="white" stroke-width="0.5" stroke-miterlimit="16" stroke-linejoin="round"/>
<path fill-rule="evenodd" clip-rule="evenodd" d="M70.8288 69.2454C70.3522 68.9663 69.7396 69.1264 69.4605 69.603L69.0517 70.3012C68.7726 70.7778 68.9327 71.3904 69.4093 71.6695L81.1504 78.545C81.627 78.8241 82.2396 78.664 82.5187 78.1874L82.9275 77.4892C83.2066 77.0126 83.0465 76.4001 82.5699 76.121L70.8288 69.2454ZM70.1194 71.2715C69.7847 71.0755 69.6722 70.6453 69.8682 70.3106V70.3106C70.0642 69.9759 70.4944 69.8634 70.8291 70.0594L71.4535 70.4251C71.7882 70.6211 71.9006 71.0513 71.7046 71.386V71.386C71.5086 71.7207 71.0784 71.8331 70.7437 71.6371L70.1194 71.2715ZM73.18 73.0638C72.8453 72.8678 72.7329 72.4376 72.9289 72.1029V72.1029C73.1249 71.7682 73.5551 71.6558 73.8898 71.8518L74.5142 72.2174C74.8489 72.4134 74.9613 72.8436 74.7653 73.1783V73.1783C74.5693 73.513 74.1391 73.6254 73.8044 73.4294L73.18 73.0638ZM76.8529 75.2146C76.5182 75.0186 76.4057 74.5884 76.6017 74.2537V74.2537C76.7977 73.919 77.2279 73.8066 77.5626 74.0025L77.8748 74.1854L78.187 74.3682C78.5217 74.5642 78.6341 74.9944 78.4381 75.3291V75.3291C78.2421 75.6638 77.8119 75.7762 77.4772 75.5802L76.8529 75.2146ZM80.5257 77.3654C80.191 77.1694 80.0786 76.7392 80.2746 76.4045V76.4045C80.4705 76.0698 80.9008 75.9573 81.2354 76.1533L81.8598 76.519C82.1945 76.715 82.307 77.1452 82.111 77.4799V77.4799C81.915 77.8146 81.4848 77.927 81.1501 77.731L80.5257 77.3654Z" fill="white"/>
<path d="M77.5626 74.0025C77.2279 73.8066 76.7977 73.919 76.6017 74.2537V74.2537C76.4057 74.5884 76.5182 75.0186 76.8529 75.2146L77.4772 75.5802C77.8119 75.7762 78.2421 75.6638 78.4381 75.3291V75.3291C78.6341 74.9944 78.5217 74.5642 78.187 74.3682L77.8748 74.1854L77.5626 74.0025Z" fill="black"/>
<path d="M73.8898 71.8518C73.5551 71.6558 73.1249 71.7682 72.9289 72.1029V72.1029C72.7329 72.4376 72.8453 72.8678 73.18 73.0638L73.8044 73.4294C74.1391 73.6254 74.5693 73.513 74.7653 73.1783V73.1783C74.9613 72.8436 74.8489 72.4134 74.5142 72.2174L73.8898 71.8518Z" fill="black"/>
<path d="M70.8291 70.0594C70.4944 69.8634 70.0642 69.9759 69.8682 70.3106V70.3106C69.6722 70.6453 69.7847 71.0755 70.1194 71.2715L70.7437 71.6371C71.0784 71.8331 71.5086 71.7207 71.7046 71.386V71.386C71.9006 71.0513 71.7882 70.6211 71.4535 70.4251L70.8291 70.0594Z" fill="black"/>
<path d="M81.2354 76.1533C80.9008 75.9573 80.4705 76.0698 80.2746 76.4045V76.4045C80.0786 76.7392 80.191 77.1694 80.5257 77.3654L81.1501 77.731C81.4848 77.927 81.915 77.8146 82.111 77.4799V77.4799C82.307 77.1452 82.1945 76.715 81.8598 76.519L81.2354 76.1533Z" fill="black"/>
<path d="M81.0135 68.6989C80.5369 68.4198 79.9243 68.5799 79.6452 69.0565L79.2363 69.7547C78.9572 70.2312 79.1174 70.8438 79.5939 71.1229L79.7045 71.1877C80.1811 71.4667 80.7937 71.3066 81.0727 70.8301L81.4816 70.1318C81.7607 69.6553 81.6006 69.0427 81.124 68.7636L81.0135 68.6989Z" fill="black"/>
<path d="M77.3406 66.5481C76.8641 66.269 76.2515 66.4291 75.9724 66.9057L75.5635 67.6039C75.2844 68.0805 75.4445 68.693 75.9211 68.9721L76.6438 69.3953C77.1204 69.6744 77.733 69.5143 78.0121 69.0377L78.4209 68.3395C78.7 67.8629 78.5399 67.2504 78.0633 66.9713L77.3406 66.5481Z" fill="black"/>
<path d="M72.2996 64.7549C72.5786 64.2783 73.1912 64.1182 73.6678 64.3973L74.3905 64.8205C74.8671 65.0996 75.0272 65.7122 74.7481 66.1887L74.3392 66.8869C74.0602 67.3635 73.4476 67.5236 72.971 67.2446L72.2483 66.8213C71.7717 66.5423 71.6116 65.9297 71.8907 65.4531L72.2996 64.7549Z" fill="black"/>
<path d="M76.5198 61.1844C76.9964 61.4635 77.1565 62.0761 76.8774 62.5526L76.4685 63.2509C76.1894 63.7274 75.5768 63.8875 75.1003 63.6085L74.3776 63.1853C73.901 62.9062 73.7409 62.2936 74.02 61.817L74.4288 61.1188C74.7079 60.6422 75.3205 60.4821 75.7971 60.7612L76.5198 61.1844Z" fill="black"/>
<path d="M79.4699 62.912C78.9933 62.6329 78.3807 62.793 78.1017 63.2696L77.6928 63.9678C77.4137 64.4444 77.5738 65.057 78.0504 65.336L78.7731 65.7592C79.2497 66.0383 79.8623 65.8782 80.1413 65.4016L80.5502 64.7034C80.8293 64.2269 80.6692 63.6143 80.1926 63.3352L79.4699 62.912Z" fill="black"/>
<path d="M83.1427 65.0628C82.6662 64.7837 82.0536 64.9438 81.7745 65.4204L81.3656 66.1186C81.0865 66.5952 81.2466 67.2077 81.7232 67.4868L81.8338 67.5516C82.3104 67.8306 82.9229 67.6705 83.202 67.194L83.6109 66.4958C83.89 66.0192 83.7299 65.4066 83.2533 65.1275L83.1427 65.0628Z" fill="black"/>
<path d="M86.2034 66.8551C85.7268 66.576 85.1142 66.7361 84.8352 67.2127L84.4263 67.9109C84.1472 68.3875 84.3073 69.0001 84.7839 69.2791L85.5066 69.7023C85.9832 69.9814 86.5958 69.8213 86.8748 69.3447L87.2837 68.6465C87.5628 68.17 87.4027 67.5574 86.9261 67.2783L86.2034 66.8551Z" fill="black"/>
<path d="M88.3327 63.219C87.8561 62.9399 87.2435 63.1 86.9644 63.5766L86.5556 64.2748C86.2765 64.7514 86.4366 65.364 86.9132 65.6431L87.6359 66.0663C88.1125 66.3453 88.725 66.1852 89.0041 65.7087L89.413 65.0104C89.6921 64.5339 89.532 63.9213 89.0554 63.6422L88.3327 63.219Z" fill="black"/>
<path d="M85.272 61.4267C84.7954 61.1476 84.1828 61.3077 83.9038 61.7843L83.4949 62.4825C83.2158 62.9591 83.3759 63.5716 83.8525 63.8507L83.963 63.9155C84.4396 64.1946 85.0522 64.0344 85.3313 63.5579L85.7402 62.8597C86.0193 62.3831 85.8591 61.7705 85.3826 61.4914L85.272 61.4267Z" fill="black"/>
<path fill-rule="evenodd" clip-rule="evenodd" d="M99.7665 51.5415C100.046 51.0649 99.8855 50.4523 99.4089 50.1732L84.6071 41.5053C84.1305 41.2262 83.5179 41.3863 83.2388 41.8629L66.5055 70.4379C66.2264 70.9144 66.3865 71.527 66.8631 71.8061L81.6649 80.474C82.1415 80.7531 82.7541 80.593 83.0332 80.1164L99.7665 51.5415ZM70.8288 69.2454C70.3522 68.9663 69.7396 69.1264 69.4605 69.603L69.0517 70.3012C68.7726 70.7778 68.9327 71.3904 69.4093 71.6695L81.1504 78.545C81.627 78.8241 82.2396 78.664 82.5187 78.1874L82.9275 77.4892C83.2066 77.0126 83.0465 76.4001 82.5699 76.121L70.8288 69.2454ZM79.5939 71.1229C79.1174 70.8438 78.9572 70.2312 79.2363 69.7547L79.6452 69.0565C79.9243 68.5799 80.5369 68.4198 81.0135 68.6989L81.124 68.7636C81.6006 69.0427 81.7607 69.6553 81.4816 70.1318L81.0727 70.8301C80.7937 71.3066 80.1811 71.4667 79.7045 71.1877L79.5939 71.1229ZM77.3406 66.5481C76.8641 66.269 76.2515 66.4291 75.9724 66.9057L75.5635 67.6039C75.2844 68.0805 75.4445 68.693 75.9211 68.9721L76.6438 69.3953C77.1204 69.6744 77.733 69.5143 78.0121 69.0377L78.4209 68.3395C78.7 67.8629 78.5399 67.2504 78.0633 66.9713L77.3406 66.5481ZM74.7481 66.1887C75.0272 65.7122 74.8671 65.0996 74.3905 64.8205L73.6678 64.3973C73.1912 64.1182 72.5786 64.2783 72.2996 64.7549L71.8907 65.4531C71.6116 65.9297 71.7717 66.5423 72.2483 66.8213L72.971 67.2446C73.4476 67.5236 74.0602 67.3635 74.3392 66.8869L74.7481 66.1887ZM76.5198 61.1844C76.9964 61.4635 77.1565 62.0761 76.8774 62.5526L76.4685 63.2509C76.1894 63.7274 75.5768 63.8875 75.1003 63.6085L74.3776 63.1853C73.901 62.9062 73.7409 62.2936 74.02 61.817L74.4288 61.1188C74.7079 60.6422 75.3205 60.4821 75.7971 60.7612L76.5198 61.1844ZM78.0504 65.336C77.5738 65.057 77.4137 64.4444 77.6928 63.9678L78.1017 63.2696C78.3807 62.793 78.9933 62.6329 79.4699 62.912L80.1926 63.3352C80.6692 63.6143 80.8293 64.2269 80.5502 64.7034L80.1413 65.4016C79.8623 65.8782 79.2497 66.0383 78.7731 65.7592L78.0504 65.336ZM83.1427 65.0628C82.6662 64.7837 82.0536 64.9438 81.7745 65.4204L81.3656 66.1186C81.0865 66.5952 81.2466 67.2077 81.7232 67.4868L81.8338 67.5516C82.3104 67.8306 82.9229 67.6705 83.202 67.194L83.6109 66.4958C83.89 66.0192 83.7299 65.4066 83.2533 65.1275L83.1427 65.0628ZM84.7839 69.2791C84.3073 69.0001 84.1472 68.3875 84.4263 67.9109L84.8352 67.2127C85.1142 66.7361 85.7268 66.576 86.2034 66.8551L86.9261 67.2783C87.4027 67.5574 87.5628 68.17 87.2837 68.6465L86.8748 69.3447C86.5958 69.8213 85.9832 69.9814 85.5066 69.7023L84.7839 69.2791ZM88.3327 63.219C87.8561 62.9399 87.2435 63.1 86.9644 63.5766L86.5556 64.2748C86.2765 64.7514 86.4366 65.364 86.9132 65.6431L87.6359 66.0663C88.1125 66.3453 88.725 66.1852 89.0041 65.7087L89.413 65.0104C89.6921 64.5339 89.532 63.9213 89.0554 63.6422L88.3327 63.219ZM83.8525 63.8507C83.3759 63.5716 83.2158 62.9591 83.4949 62.4825L83.9038 61.7843C84.1828 61.3077 84.7954 61.1476 85.272 61.4267L85.3826 61.4914C85.8591 61.7705 86.0193 62.3831 85.7402 62.8597L85.3313 63.5579C85.0522 64.0344 84.4396 64.1946 83.963 63.9155L83.8525 63.8507ZM81.5992 59.2759C81.1226 58.9968 80.51 59.1569 80.2309 59.6335L79.8221 60.3317C79.543 60.8083 79.7031 61.4209 80.1797 61.6999L80.9024 62.1231C81.3789 62.4022 81.9915 62.2421 82.2706 61.7655L82.6795 61.0673C82.9586 60.5908 82.7985 59.9782 82.3219 59.6991L81.5992 59.2759ZM83.0316 58.4871C83.5082 58.7661 84.1208 58.606 84.3999 58.1295L84.8088 57.4312C85.0878 56.9547 84.9277 56.3421 84.4512 56.063L83.7285 55.6398C83.2519 55.3607 82.6393 55.5208 82.3602 55.9974L81.9513 56.6956C81.6723 57.1722 81.8324 57.7848 82.3089 58.0639L83.0316 58.4871ZM80.7783 53.9122C81.2549 54.1913 81.415 54.8039 81.1359 55.2805L80.7271 55.9787C80.448 56.4552 79.8354 56.6154 79.3588 56.3363L78.6361 55.9131C78.1595 55.634 77.9994 55.0214 78.2785 54.5448L78.6874 53.8466C78.9665 53.37 79.5791 53.2099 80.0556 53.489L80.7783 53.9122ZM80.7654 52.277C80.2888 51.9979 80.1287 51.3853 80.4078 50.9087L80.8167 50.2105C81.0958 49.7339 81.7083 49.5738 82.1849 49.8529L82.9076 50.2761C83.3842 50.5552 83.5443 51.1678 83.2652 51.6444L82.8564 52.3426C82.5773 52.8192 81.9647 52.9793 81.4881 52.7002L80.7654 52.277ZM85.8577 52.0037C85.3812 51.7246 84.7686 51.8847 84.4895 52.3613L84.0806 53.0595C83.8015 53.5361 83.9616 54.1487 84.4382 54.4278L85.1609 54.851C85.6375 55.13 86.2501 54.9699 86.5292 54.4934L86.938 53.7952C87.2171 53.3186 87.057 52.706 86.5804 52.4269L85.8577 52.0037ZM86.5675 50.7917C86.0909 50.5126 85.9308 49.9 86.2099 49.4234L86.6188 48.7252C86.8979 48.2486 87.5104 48.0885 87.987 48.3676L88.7097 48.7908C89.1863 49.0699 89.3464 49.6825 89.0673 50.1591L88.6585 50.8573C88.3794 51.3338 87.7668 51.494 87.2902 51.2149L86.5675 50.7917ZM84.3142 46.2168C83.8376 45.9377 83.225 46.0978 82.9459 46.5744L82.5371 47.2726C82.258 47.7492 82.4181 48.3618 82.8947 48.6409L83.6174 49.0641C84.094 49.3432 84.7065 49.1831 84.9856 48.7065L85.3945 48.0083C85.6736 47.5317 85.5135 46.9191 85.0369 46.64L84.3142 46.2168ZM90.2403 52.9424C89.7637 52.6634 89.6036 52.0508 89.8827 51.5742L90.2916 50.876C90.5707 50.3994 91.1833 50.2393 91.6598 50.5184L91.7704 50.5831C92.247 50.8622 92.4071 51.4748 92.128 51.9514L91.7191 52.6496C91.4401 53.1262 90.8275 53.2863 90.3509 53.0072L90.2403 52.9424ZM94.7205 52.3107C94.2439 52.0316 93.6314 52.1917 93.3523 52.6683L92.9434 53.3665C92.6643 53.8431 92.8244 54.4557 93.301 54.7348L94.0237 55.158C94.5003 55.4371 95.1129 55.277 95.392 54.8004L95.8008 54.1022C96.0799 53.6256 95.9198 53.013 95.4432 52.7339L94.7205 52.3107ZM88.111 56.5785C87.6345 56.2995 87.4744 55.6869 87.7534 55.2103L88.1623 54.5121C88.4414 54.0355 89.054 53.8754 89.5306 54.1545L89.6411 54.2192C90.1177 54.4983 90.2778 55.1109 89.9987 55.5875L89.5899 56.2857C89.3108 56.7623 88.6982 56.9224 88.2216 56.6433L88.111 56.5785ZM92.5913 55.9468C92.1147 55.6677 91.5021 55.8278 91.223 56.3044L90.8141 57.0026C90.535 57.4792 90.6952 58.0918 91.1717 58.3709L91.8944 58.7941C92.371 59.0732 92.9836 58.913 93.2627 58.4365L93.6715 57.7383C93.9506 57.2617 93.7905 56.6491 93.3139 56.37L92.5913 55.9468ZM89.0425 62.007C88.5659 61.7279 88.4058 61.1153 88.6849 60.6387L89.0937 59.9405C89.3728 59.4639 89.9854 59.3038 90.462 59.5829L91.1847 60.0061C91.6612 60.2852 91.8214 60.8978 91.5423 61.3744L91.1334 62.0726C90.8543 62.5491 90.2417 62.7092 89.7651 62.4302L89.0425 62.007ZM87.5118 57.8553C87.9884 58.1344 88.1485 58.747 87.8694 59.2236L87.4606 59.9218C87.1815 60.3984 86.5689 60.5585 86.0923 60.2794L85.9818 60.2146C85.5052 59.9356 85.3451 59.323 85.6242 58.8464L86.033 58.1482C86.3121 57.6716 86.9247 57.5115 87.4013 57.7906L87.5118 57.8553ZM76.5068 59.5492C76.0303 59.2701 75.8702 58.6575 76.1492 58.1809L76.5581 57.4827C76.8372 57.0061 77.4498 56.846 77.9264 57.1251L78.6491 57.5483C79.1256 57.8274 79.2857 58.44 79.0067 58.9166L78.5978 59.6148C78.3187 60.0913 77.7061 60.2514 77.2295 59.9724L76.5068 59.5492Z" fill="white"/>
<path d="M77.9264 57.1251C77.4498 56.846 76.8372 57.0061 76.5581 57.4827L76.1492 58.1809C75.8702 58.6575 76.0303 59.2701 76.5068 59.5492L77.2295 59.9724C77.7061 60.2514 78.3187 60.0913 78.5978 59.6148L79.0067 58.9166C79.2857 58.44 79.1256 57.8274 78.6491 57.5483L77.9264 57.1251Z" fill="black"/>
<path d="M81.5992 59.2759C81.1226 58.9968 80.51 59.1569 80.2309 59.6335L79.8221 60.3317C79.543 60.8083 79.7031 61.4209 80.1797 61.6999L80.9024 62.1231C81.3789 62.4022 81.9915 62.2421 82.2706 61.7655L82.6795 61.0673C82.9586 60.5908 82.7985 59.9782 82.3219 59.6991L81.5992 59.2759Z" fill="black"/>
<path d="M84.4512 56.063C84.9277 56.3421 85.0878 56.9547 84.8088 57.4312L84.3999 58.1295C84.1208 58.606 83.5082 58.7661 83.0316 58.4871L82.3089 58.0639C81.8324 57.7848 81.6723 57.1722 81.9513 56.6956L82.3602 55.9974C82.6393 55.5208 83.2519 55.3607 83.7285 55.6398L84.4512 56.063Z" fill="black"/>
<path d="M80.7783 53.9122C81.2549 54.1913 81.415 54.8039 81.1359 55.2805L80.7271 55.9787C80.448 56.4552 79.8354 56.6154 79.3588 56.3363L78.6361 55.9131C78.1595 55.634 77.9994 55.0214 78.2785 54.5448L78.6874 53.8466C78.9665 53.37 79.5791 53.2099 80.0556 53.489L80.7783 53.9122Z" fill="black"/>
<path d="M87.5118 57.8553C87.9884 58.1344 88.1485 58.747 87.8694 59.2236L87.4606 59.9218C87.1815 60.3984 86.5689 60.5585 86.0923 60.2794L85.9818 60.2146C85.5052 59.9356 85.3451 59.323 85.6242 58.8464L86.033 58.1482C86.3121 57.6716 86.9247 57.5115 87.4013 57.7906L87.5118 57.8553Z" fill="#080808"/>
<path d="M90.462 59.5829C89.9854 59.3038 89.3728 59.4639 89.0937 59.9405L88.6849 60.6387C88.4058 61.1153 88.5659 61.7279 89.0425 62.007L89.7651 62.4302C90.2417 62.7092 90.8543 62.5491 91.1334 62.0726L91.5423 61.3744C91.8214 60.8978 91.6612 60.2852 91.1847 60.0061L90.462 59.5829Z" fill="#020202"/>
<path d="M89.5306 54.1545C89.054 53.8754 88.4414 54.0355 88.1623 54.5121L87.7534 55.2103C87.4744 55.6869 87.6345 56.2995 88.111 56.5785L88.2216 56.6433C88.6982 56.9224 89.3108 56.7623 89.5899 56.2857L89.9987 55.5875C90.2778 55.1109 90.1177 54.4983 89.6411 54.2192L89.5306 54.1545Z" fill="black"/>
<path d="M85.8577 52.0037C85.3812 51.7246 84.7686 51.8847 84.4895 52.3613L84.0806 53.0595C83.8015 53.5361 83.9616 54.1487 84.4382 54.4278L85.1609 54.851C85.6375 55.13 86.2501 54.9699 86.5292 54.4934L86.938 53.7952C87.2171 53.3186 87.057 52.706 86.5804 52.4269L85.8577 52.0037Z" fill="black"/>
<path d="M82.1849 49.8529C81.7083 49.5738 81.0958 49.7339 80.8167 50.2105L80.4078 50.9087C80.1287 51.3853 80.2888 51.9979 80.7654 52.277L81.4881 52.7002C81.9647 52.9793 82.5773 52.8192 82.8564 52.3426L83.2652 51.6444C83.5443 51.1678 83.3842 50.5552 82.9076 50.2761L82.1849 49.8529Z" fill="black"/>
<path d="M84.3142 46.2168C83.8376 45.9377 83.225 46.0978 82.9459 46.5744L82.5371 47.2726C82.258 47.7492 82.4181 48.3618 82.8947 48.6409L83.6174 49.0641C84.094 49.3432 84.7065 49.1831 84.9856 48.7065L85.3945 48.0083C85.6736 47.5317 85.5135 46.9191 85.0369 46.64L84.3142 46.2168Z" fill="black"/>
<path d="M87.987 48.3676C87.5104 48.0885 86.8979 48.2486 86.6188 48.7252L86.2099 49.4234C85.9308 49.9 86.0909 50.5126 86.5675 50.7917L87.2902 51.2149C87.7668 51.494 88.3794 51.3338 88.6585 50.8573L89.0673 50.1591C89.3464 49.6825 89.1863 49.0699 88.7097 48.7908L87.987 48.3676Z" fill="black"/>
<path d="M91.6598 50.5184C91.1833 50.2393 90.5707 50.3994 90.2916 50.876L89.8827 51.5742C89.6036 52.0508 89.7637 52.6634 90.2403 52.9424L90.3509 53.0072C90.8275 53.2863 91.4401 53.1262 91.7191 52.6496L92.128 51.9514C92.4071 51.4748 92.247 50.8622 91.7704 50.5831L91.6598 50.5184Z" fill="black"/>
<path d="M94.7205 52.3107C94.2439 52.0316 93.6314 52.1917 93.3523 52.6683L92.9434 53.3665C92.6643 53.8431 92.8244 54.4557 93.301 54.7348L94.0237 55.158C94.5003 55.4371 95.1129 55.277 95.392 54.8004L95.8008 54.1022C96.0799 53.6256 95.9198 53.013 95.4432 52.7339L94.7205 52.3107Z" fill="black"/>
<path d="M92.5913 55.9468C92.1147 55.6677 91.5021 55.8278 91.223 56.3044L90.8141 57.0026C90.535 57.4792 90.6952 58.0918 91.1717 58.3709L91.8944 58.7941C92.371 59.0732 92.9836 58.913 93.2627 58.4365L93.6715 57.7383C93.9506 57.2617 93.7905 56.6491 93.3139 56.37L92.5913 55.9468Z" fill="black"/>
<path fill-rule="evenodd" clip-rule="evenodd" d="M70.8288 69.2454C70.3522 68.9663 69.7396 69.1264 69.4605 69.603L69.0517 70.3012C68.7726 70.7778 68.9327 71.3904 69.4093 71.6695L81.1504 78.545C81.627 78.8241 82.2396 78.664 82.5187 78.1874L82.9275 77.4892C83.2066 77.0126 83.0465 76.4001 82.5699 76.121L70.8288 69.2454ZM70.1194 71.2715C69.7847 71.0755 69.6722 70.6453 69.8682 70.3106V70.3106C70.0642 69.9759 70.4944 69.8634 70.8291 70.0594L71.4535 70.4251C71.7882 70.6211 71.9006 71.0513 71.7046 71.386V71.386C71.5086 71.7207 71.0784 71.8331 70.7437 71.6371L70.1194 71.2715ZM73.18 73.0638C72.8453 72.8678 72.7329 72.4376 72.9289 72.1029V72.1029C73.1249 71.7682 73.5551 71.6558 73.8898 71.8518L74.5142 72.2174C74.8489 72.4134 74.9613 72.8436 74.7653 73.1783V73.1783C74.5693 73.513 74.1391 73.6254 73.8044 73.4294L73.18 73.0638ZM76.8529 75.2146C76.5182 75.0186 76.4057 74.5884 76.6017 74.2537V74.2537C76.7977 73.919 77.2279 73.8066 77.5626 74.0025L77.8748 74.1854L78.187 74.3682C78.5217 74.5642 78.6341 74.9944 78.4381 75.3291V75.3291C78.2421 75.6638 77.8119 75.7762 77.4772 75.5802L76.8529 75.2146ZM80.5257 77.3654C80.191 77.1694 80.0786 76.7392 80.2746 76.4045V76.4045C80.4705 76.0698 80.9008 75.9573 81.2354 76.1533L81.8598 76.519C82.1945 76.715 82.307 77.1452 82.111 77.4799V77.4799C81.915 77.8146 81.4848 77.927 81.1501 77.731L80.5257 77.3654Z" stroke="black" stroke-width="0.2"/>
<path d="M77.5626 74.0025C77.2279 73.8066 76.7977 73.919 76.6017 74.2537V74.2537C76.4057 74.5884 76.5182 75.0186 76.8529 75.2146L77.4772 75.5802C77.8119 75.7762 78.2421 75.6638 78.4381 75.3291V75.3291C78.6341 74.9944 78.5217 74.5642 78.187 74.3682L77.8748 74.1854L77.5626 74.0025Z" stroke="black" stroke-width="0.2"/>
<path d="M73.8898 71.8518C73.5551 71.6558 73.1249 71.7682 72.9289 72.1029V72.1029C72.7329 72.4376 72.8453 72.8678 73.18 73.0638L73.8044 73.4294C74.1391 73.6254 74.5693 73.513 74.7653 73.1783V73.1783C74.9613 72.8436 74.8489 72.4134 74.5142 72.2174L73.8898 71.8518Z" stroke="black" stroke-width="0.2"/>
<path d="M70.8291 70.0594C70.4944 69.8634 70.0642 69.9759 69.8682 70.3106V70.3106C69.6722 70.6453 69.7847 71.0755 70.1194 71.2715L70.7437 71.6371C71.0784 71.8331 71.5086 71.7207 71.7046 71.386V71.386C71.9006 71.0513 71.7882 70.6211 71.4535 70.4251L70.8291 70.0594Z" stroke="black" stroke-width="0.2"/>
<path d="M81.2354 76.1533C80.9008 75.9573 80.4705 76.0698 80.2746 76.4045V76.4045C80.0786 76.7392 80.191 77.1694 80.5257 77.3654L81.1501 77.731C81.4848 77.927 81.915 77.8146 82.111 77.4799V77.4799C82.307 77.1452 82.1945 76.715 81.8598 76.519L81.2354 76.1533Z" stroke="black" stroke-width="0.2"/>
<path d="M81.0135 68.6989C80.5369 68.4198 79.9243 68.5799 79.6452 69.0565L79.2363 69.7547C78.9572 70.2312 79.1174 70.8438 79.5939 71.1229L79.7045 71.1877C80.1811 71.4667 80.7937 71.3066 81.0727 70.8301L81.4816 70.1318C81.7607 69.6553 81.6006 69.0427 81.124 68.7636L81.0135 68.6989Z" stroke="black" stroke-width="0.2"/>
<path d="M77.3406 66.5481C76.8641 66.269 76.2515 66.4291 75.9724 66.9057L75.5635 67.6039C75.2844 68.0805 75.4445 68.693 75.9211 68.9721L76.6438 69.3953C77.1204 69.6744 77.733 69.5143 78.0121 69.0377L78.4209 68.3395C78.7 67.8629 78.5399 67.2504 78.0633 66.9713L77.3406 66.5481Z" stroke="black" stroke-width="0.2"/>
<path d="M72.2996 64.7549C72.5786 64.2783 73.1912 64.1182 73.6678 64.3973L74.3905 64.8205C74.8671 65.0996 75.0272 65.7122 74.7481 66.1887L74.3392 66.8869C74.0602 67.3635 73.4476 67.5236 72.971 67.2446L72.2483 66.8213C71.7717 66.5423 71.6116 65.9297 71.8907 65.4531L72.2996 64.7549Z" stroke="black" stroke-width="0.2"/>
<path d="M76.5198 61.1844C76.9964 61.4635 77.1565 62.0761 76.8774 62.5526L76.4685 63.2509C76.1894 63.7274 75.5768 63.8875 75.1003 63.6085L74.3776 63.1853C73.901 62.9062 73.7409 62.2936 74.02 61.817L74.4288 61.1188C74.7079 60.6422 75.3205 60.4821 75.7971 60.7612L76.5198 61.1844Z" stroke="black" stroke-width="0.2"/>
<path d="M79.4699 62.912C78.9933 62.6329 78.3807 62.793 78.1017 63.2696L77.6928 63.9678C77.4137 64.4444 77.5738 65.057 78.0504 65.336L78.7731 65.7592C79.2497 66.0383 79.8623 65.8782 80.1413 65.4016L80.5502 64.7034C80.8293 64.2269 80.6692 63.6143 80.1926 63.3352L79.4699 62.912Z" stroke="black" stroke-width="0.2"/>
<path d="M83.1427 65.0628C82.6662 64.7837 82.0536 64.9438 81.7745 65.4204L81.3656 66.1186C81.0865 66.5952 81.2466 67.2077 81.7232 67.4868L81.8338 67.5516C82.3104 67.8306 82.9229 67.6705 83.202 67.194L83.6109 66.4958C83.89 66.0192 83.7299 65.4066 83.2533 65.1275L83.1427 65.0628Z" stroke="black" stroke-width="0.2"/>
<path d="M86.2034 66.8551C85.7268 66.576 85.1142 66.7361 84.8352 67.2127L84.4263 67.9109C84.1472 68.3875 84.3073 69.0001 84.7839 69.2791L85.5066 69.7023C85.9832 69.9814 86.5958 69.8213 86.8748 69.3447L87.2837 68.6465C87.5628 68.17 87.4027 67.5574 86.9261 67.2783L86.2034 66.8551Z" stroke="black" stroke-width="0.2"/>
<path d="M88.3327 63.219C87.8561 62.9399 87.2435 63.1 86.9644 63.5766L86.5556 64.2748C86.2765 64.7514 86.4366 65.364 86.9132 65.6431L87.6359 66.0663C88.1125 66.3453 88.725 66.1852 89.0041 65.7087L89.413 65.0104C89.6921 64.5339 89.532 63.9213 89.0554 63.6422L88.3327 63.219Z" stroke="black" stroke-width="0.2"/>
<path d="M85.272 61.4267C84.7954 61.1476 84.1828 61.3077 83.9038 61.7843L83.4949 62.4825C83.2158 62.9591 83.3759 63.5716 83.8525 63.8507L83.963 63.9155C84.4396 64.1946 85.0522 64.0344 85.3313 63.5579L85.7402 62.8597C86.0193 62.3831 85.8591 61.7705 85.3826 61.4914L85.272 61.4267Z" stroke="black" stroke-width="0.2"/>
<path fill-rule="evenodd" clip-rule="evenodd" d="M99.7665 51.5415C100.046 51.0649 99.8855 50.4523 99.4089 50.1732L84.6071 41.5053C84.1305 41.2262 83.5179 41.3863 83.2388 41.8629L66.5055 70.4379C66.2264 70.9144 66.3865 71.527 66.8631 71.8061L81.6649 80.474C82.1415 80.7531 82.7541 80.593 83.0332 80.1164L99.7665 51.5415ZM70.8288 69.2454C70.3522 68.9663 69.7396 69.1264 69.4605 69.603L69.0517 70.3012C68.7726 70.7778 68.9327 71.3904 69.4093 71.6695L81.1504 78.545C81.627 78.8241 82.2396 78.664 82.5187 78.1874L82.9275 77.4892C83.2066 77.0126 83.0465 76.4001 82.5699 76.121L70.8288 69.2454ZM79.5939 71.1229C79.1174 70.8438 78.9572 70.2312 79.2363 69.7547L79.6452 69.0565C79.9243 68.5799 80.5369 68.4198 81.0135 68.6989L81.124 68.7636C81.6006 69.0427 81.7607 69.6553 81.4816 70.1318L81.0727 70.8301C80.7937 71.3066 80.1811 71.4667 79.7045 71.1877L79.5939 71.1229ZM77.3406 66.5481C76.8641 66.269 76.2515 66.4291 75.9724 66.9057L75.5635 67.6039C75.2844 68.0805 75.4445 68.693 75.9211 68.9721L76.6438 69.3953C77.1204 69.6744 77.733 69.5143 78.0121 69.0377L78.4209 68.3395C78.7 67.8629 78.5399 67.2504 78.0633 66.9713L77.3406 66.5481ZM74.7481 66.1887C75.0272 65.7122 74.8671 65.0996 74.3905 64.8205L73.6678 64.3973C73.1912 64.1182 72.5786 64.2783 72.2996 64.7549L71.8907 65.4531C71.6116 65.9297 71.7717 66.5423 72.2483 66.8213L72.971 67.2446C73.4476 67.5236 74.0602 67.3635 74.3392 66.8869L74.7481 66.1887ZM76.5198 61.1844C76.9964 61.4635 77.1565 62.0761 76.8774 62.5526L76.4685 63.2509C76.1894 63.7274 75.5768 63.8875 75.1003 63.6085L74.3776 63.1853C73.901 62.9062 73.7409 62.2936 74.02 61.817L74.4288 61.1188C74.7079 60.6422 75.3205 60.4821 75.7971 60.7612L76.5198 61.1844ZM78.0504 65.336C77.5738 65.057 77.4137 64.4444 77.6928 63.9678L78.1017 63.2696C78.3807 62.793 78.9933 62.6329 79.4699 62.912L80.1926 63.3352C80.6692 63.6143 80.8293 64.2269 80.5502 64.7034L80.1413 65.4016C79.8623 65.8782 79.2497 66.0383 78.7731 65.7592L78.0504 65.336ZM83.1427 65.0628C82.6662 64.7837 82.0536 64.9438 81.7745 65.4204L81.3656 66.1186C81.0865 66.5952 81.2466 67.2077 81.7232 67.4868L81.8338 67.5516C82.3104 67.8306 82.9229 67.6705 83.202 67.194L83.6109 66.4958C83.89 66.0192 83.7299 65.4066 83.2533 65.1275L83.1427 65.0628ZM84.7839 69.2791C84.3073 69.0001 84.1472 68.3875 84.4263 67.9109L84.8352 67.2127C85.1142 66.7361 85.7268 66.576 86.2034 66.8551L86.9261 67.2783C87.4027 67.5574 87.5628 68.17 87.2837 68.6465L86.8748 69.3447C86.5958 69.8213 85.9832 69.9814 85.5066 69.7023L84.7839 69.2791ZM88.3327 63.219C87.8561 62.9399 87.2435 63.1 86.9644 63.5766L86.5556 64.2748C86.2765 64.7514 86.4366 65.364 86.9132 65.6431L87.6359 66.0663C88.1125 66.3453 88.725 66.1852 89.0041 65.7087L89.413 65.0104C89.6921 64.5339 89.532 63.9213 89.0554 63.6422L88.3327 63.219ZM83.8525 63.8507C83.3759 63.5716 83.2158 62.9591 83.4949 62.4825L83.9038 61.7843C84.1828 61.3077 84.7954 61.1476 85.272 61.4267L85.3826 61.4914C85.8591 61.7705 86.0193 62.3831 85.7402 62.8597L85.3313 63.5579C85.0522 64.0344 84.4396 64.1946 83.963 63.9155L83.8525 63.8507ZM81.5992 59.2759C81.1226 58.9968 80.51 59.1569 80.2309 59.6335L79.8221 60.3317C79.543 60.8083 79.7031 61.4209 80.1797 61.6999L80.9024 62.1231C81.3789 62.4022 81.9915 62.2421 82.2706 61.7655L82.6795 61.0673C82.9586 60.5908 82.7985 59.9782 82.3219 59.6991L81.5992 59.2759ZM83.0316 58.4871C83.5082 58.7661 84.1208 58.606 84.3999 58.1295L84.8088 57.4312C85.0878 56.9547 84.9277 56.3421 84.4512 56.063L83.7285 55.6398C83.2519 55.3607 82.6393 55.5208 82.3602 55.9974L81.9513 56.6956C81.6723 57.1722 81.8324 57.7848 82.3089 58.0639L83.0316 58.4871ZM80.7783 53.9122C81.2549 54.1913 81.415 54.8039 81.1359 55.2805L80.7271 55.9787C80.448 56.4552 79.8354 56.6154 79.3588 56.3363L78.6361 55.9131C78.1595 55.634 77.9994 55.0214 78.2785 54.5448L78.6874 53.8466C78.9665 53.37 79.5791 53.2099 80.0556 53.489L80.7783 53.9122ZM80.7654 52.277C80.2888 51.9979 80.1287 51.3853 80.4078 50.9087L80.8167 50.2105C81.0958 49.7339 81.7083 49.5738 82.1849 49.8529L82.9076 50.2761C83.3842 50.5552 83.5443 51.1678 83.2652 51.6444L82.8564 52.3426C82.5773 52.8192 81.9647 52.9793 81.4881 52.7002L80.7654 52.277ZM85.8577 52.0037C85.3812 51.7246 84.7686 51.8847 84.4895 52.3613L84.0806 53.0595C83.8015 53.5361 83.9616 54.1487 84.4382 54.4278L85.1609 54.851C85.6375 55.13 86.2501 54.9699 86.5292 54.4934L86.938 53.7952C87.2171 53.3186 87.057 52.706 86.5804 52.4269L85.8577 52.0037ZM86.5675 50.7917C86.0909 50.5126 85.9308 49.9 86.2099 49.4234L86.6188 48.7252C86.8979 48.2486 87.5104 48.0885 87.987 48.3676L88.7097 48.7908C89.1863 49.0699 89.3464 49.6825 89.0673 50.1591L88.6585 50.8573C88.3794 51.3338 87.7668 51.494 87.2902 51.2149L86.5675 50.7917ZM84.3142 46.2168C83.8376 45.9377 83.225 46.0978 82.9459 46.5744L82.5371 47.2726C82.258 47.7492 82.4181 48.3618 82.8947 48.6409L83.6174 49.0641C84.094 49.3432 84.7065 49.1831 84.9856 48.7065L85.3945 48.0083C85.6736 47.5317 85.5135 46.9191 85.0369 46.64L84.3142 46.2168ZM90.2403 52.9424C89.7637 52.6634 89.6036 52.0508 89.8827 51.5742L90.2916 50.876C90.5707 50.3994 91.1833 50.2393 91.6598 50.5184L91.7704 50.5831C92.247 50.8622 92.4071 51.4748 92.128 51.9514L91.7191 52.6496C91.4401 53.1262 90.8275 53.2863 90.3509 53.0072L90.2403 52.9424ZM94.7205 52.3107C94.2439 52.0316 93.6314 52.1917 93.3523 52.6683L92.9434 53.3665C92.6643 53.8431 92.8244 54.4557 93.301 54.7348L94.0237 55.158C94.5003 55.4371 95.1129 55.277 95.392 54.8004L95.8008 54.1022C96.0799 53.6256 95.9198 53.013 95.4432 52.7339L94.7205 52.3107ZM88.111 56.5785C87.6345 56.2995 87.4744 55.6869 87.7534 55.2103L88.1623 54.5121C88.4414 54.0355 89.054 53.8754 89.5306 54.1545L89.6411 54.2192C90.1177 54.4983 90.2778 55.1109 89.9987 55.5875L89.5899 56.2857C89.3108 56.7623 88.6982 56.9224 88.2216 56.6433L88.111 56.5785ZM92.5913 55.9468C92.1147 55.6677 91.5021 55.8278 91.223 56.3044L90.8141 57.0026C90.535 57.4792 90.6952 58.0918 91.1717 58.3709L91.8944 58.7941C92.371 59.0732 92.9836 58.913 93.2627 58.4365L93.6715 57.7383C93.9506 57.2617 93.7905 56.6491 93.3139 56.37L92.5913 55.9468ZM89.0425 62.007C88.5659 61.7279 88.4058 61.1153 88.6849 60.6387L89.0937 59.9405C89.3728 59.4639 89.9854 59.3038 90.462 59.5829L91.1847 60.0061C91.6612 60.2852 91.8214 60.8978 91.5423 61.3744L91.1334 62.0726C90.8543 62.5491 90.2417 62.7092 89.7651 62.4302L89.0425 62.007ZM87.5118 57.8553C87.9884 58.1344 88.1485 58.747 87.8694 59.2236L87.4606 59.9218C87.1815 60.3984 86.5689 60.5585 86.0923 60.2794L85.9818 60.2146C85.5052 59.9356 85.3451 59.323 85.6242 58.8464L86.033 58.1482C86.3121 57.6716 86.9247 57.5115 87.4013 57.7906L87.5118 57.8553ZM76.5068 59.5492C76.0303 59.2701 75.8702 58.6575 76.1492 58.1809L76.5581 57.4827C76.8372 57.0061 77.4498 56.846 77.9264 57.1251L78.6491 57.5483C79.1256 57.8274 79.2857 58.44 79.0067 58.9166L78.5978 59.6148C78.3187 60.0913 77.7061 60.2514 77.2295 59.9724L76.5068 59.5492Z" stroke="black" stroke-width="0.2"/>
<path d="M77.9264 57.1251C77.4498 56.846 76.8372 57.0061 76.5581 57.4827L76.1492 58.1809C75.8702 58.6575 76.0303 59.2701 76.5068 59.5492L77.2295 59.9724C77.7061 60.2514 78.3187 60.0913 78.5978 59.6148L79.0067 58.9166C79.2857 58.44 79.1256 57.8274 78.6491 57.5483L77.9264 57.1251Z" stroke="black" stroke-width="0.2"/>
<path d="M81.5992 59.2759C81.1226 58.9968 80.51 59.1569 80.2309 59.6335L79.8221 60.3317C79.543 60.8083 79.7031 61.4209 80.1797 61.6999L80.9024 62.1231C81.3789 62.4022 81.9915 62.2421 82.2706 61.7655L82.6795 61.0673C82.9586 60.5908 82.7985 59.9782 82.3219 59.6991L81.5992 59.2759Z" stroke="black" stroke-width="0.2"/>
<path d="M84.4512 56.063C84.9277 56.3421 85.0878 56.9547 84.8088 57.4312L84.3999 58.1295C84.1208 58.606 83.5082 58.7661 83.0316 58.4871L82.3089 58.0639C81.8324 57.7848 81.6723 57.1722 81.9513 56.6956L82.3602 55.9974C82.6393 55.5208 83.2519 55.3607 83.7285 55.6398L84.4512 56.063Z" stroke="black" stroke-width="0.2"/>
<path d="M80.7783 53.9122C81.2549 54.1913 81.415 54.8039 81.1359 55.2805L80.7271 55.9787C80.448 56.4552 79.8354 56.6154 79.3588 56.3363L78.6361 55.9131C78.1595 55.634 77.9994 55.0214 78.2785 54.5448L78.6874 53.8466C78.9665 53.37 79.5791 53.2099 80.0556 53.489L80.7783 53.9122Z" stroke="black" stroke-width="0.2"/>
<path d="M87.5118 57.8553C87.9884 58.1344 88.1485 58.747 87.8694 59.2236L87.4606 59.9218C87.1815 60.3984 86.5689 60.5585 86.0923 60.2794L85.9818 60.2146C85.5052 59.9356 85.3451 59.323 85.6242 58.8464L86.033 58.1482C86.3121 57.6716 86.9247 57.5115 87.4013 57.7906L87.5118 57.8553Z" stroke="black" stroke-width="0.2"/>
<path d="M90.462 59.5829C89.9854 59.3038 89.3728 59.4639 89.0937 59.9405L88.6849 60.6387C88.4058 61.1153 88.5659 61.7279 89.0425 62.007L89.7651 62.4302C90.2417 62.7092 90.8543 62.5491 91.1334 62.0726L91.5423 61.3744C91.8214 60.8978 91.6612 60.2852 91.1847 60.0061L90.462 59.5829Z" stroke="black" stroke-width="0.2"/>
<path d="M89.5306 54.1545C89.054 53.8754 88.4414 54.0355 88.1623 54.5121L87.7534 55.2103C87.4744 55.6869 87.6345 56.2995 88.111 56.5785L88.2216 56.6433C88.6982 56.9224 89.3108 56.7623 89.5899 56.2857L89.9987 55.5875C90.2778 55.1109 90.1177 54.4983 89.6411 54.2192L89.5306 54.1545Z" stroke="black" stroke-width="0.2"/>
<path d="M85.8577 52.0037C85.3812 51.7246 84.7686 51.8847 84.4895 52.3613L84.0806 53.0595C83.8015 53.5361 83.9616 54.1487 84.4382 54.4278L85.1609 54.851C85.6375 55.13 86.2501 54.9699 86.5292 54.4934L86.938 53.7952C87.2171 53.3186 87.057 52.706 86.5804 52.4269L85.8577 52.0037Z" stroke="black" stroke-width="0.2"/>
<path d="M82.1849 49.8529C81.7083 49.5738 81.0958 49.7339 80.8167 50.2105L80.4078 50.9087C80.1287 51.3853 80.2888 51.9979 80.7654 52.277L81.4881 52.7002C81.9647 52.9793 82.5773 52.8192 82.8564 52.3426L83.2652 51.6444C83.5443 51.1678 83.3842 50.5552 82.9076 50.2761L82.1849 49.8529Z" stroke="black" stroke-width="0.2"/>
<path d="M84.3142 46.2168C83.8376 45.9377 83.225 46.0978 82.9459 46.5744L82.5371 47.2726C82.258 47.7492 82.4181 48.3618 82.8947 48.6409L83.6174 49.0641C84.094 49.3432 84.7065 49.1831 84.9856 48.7065L85.3945 48.0083C85.6736 47.5317 85.5135 46.9191 85.0369 46.64L84.3142 46.2168Z" stroke="black" stroke-width="0.2"/>
<path d="M87.987 48.3676C87.5104 48.0885 86.8979 48.2486 86.6188 48.7252L86.2099 49.4234C85.9308 49.9 86.0909 50.5126 86.5675 50.7917L87.2902 51.2149C87.7668 51.494 88.3794 51.3338 88.6585 50.8573L89.0673 50.1591C89.3464 49.6825 89.1863 49.0699 88.7097 48.7908L87.987 48.3676Z" stroke="black" stroke-width="0.2"/>
<path d="M91.6598 50.5184C91.1833 50.2393 90.5707 50.3994 90.2916 50.876L89.8827 51.5742C89.6036 52.0508 89.7637 52.6634 90.2403 52.9424L90.3509 53.0072C90.8275 53.2863 91.4401 53.1262 91.7191 52.6496L92.128 51.9514C92.4071 51.4748 92.247 50.8622 91.7704 50.5831L91.6598 50.5184Z" stroke="black" stroke-width="0.2"/>
<path d="M94.7205 52.3107C94.2439 52.0316 93.6314 52.1917 93.3523 52.6683L92.9434 53.3665C92.6643 53.8431 92.8244 54.4557 93.301 54.7348L94.0237 55.158C94.5003 55.4371 95.1129 55.277 95.392 54.8004L95.8008 54.1022C96.0799 53.6256 95.9198 53.013 95.4432 52.7339L94.7205 52.3107Z" stroke="black" stroke-width="0.2"/>
<path d="M92.5913 55.9468C92.1147 55.6677 91.5021 55.8278 91.223 56.3044L90.8141 57.0026C90.535 57.4792 90.6952 58.0918 91.1717 58.3709L91.8944 58.7941C92.371 59.0732 92.9836 58.913 93.2627 58.4365L93.6715 57.7383C93.9506 57.2617 93.7905 56.6491 93.3139 56.37L92.5913 55.9468Z" stroke="black" stroke-width="0.2"/>
</svg>
