<svg width="85" height="85" viewBox="0 0 85 85" fill="none" xmlns="http://www.w3.org/2000/svg">
<rect x="1.05" y="2.05" width="81.9" height="81.9" rx="40.95" fill="black"/>
<rect x="1.05" y="2.05" width="81.9" height="81.9" rx="40.95" stroke="white" stroke-width="0.1"/>
<path d="M30 53.8787C45.3846 51.7574 47.3077 53.8787 55 56" stroke="white" stroke-miterlimit="16" stroke-linejoin="round"/>
<path d="M32 22.3011C28.2222 19.4695 19.5333 15.8452 15 24" stroke="white" stroke-width="0.5" stroke-miterlimit="16" stroke-linejoin="round"/>
<path d="M64 26C60.25 24.0417 52 22.7551 49 25.8884" stroke="white" stroke-width="0.5" stroke-miterlimit="4.7764" stroke-linejoin="round"/>
<path d="M27.2352 39.2187C31.0007 39.3261 33.251 27.7646 27.2339 26.0035C23.8382 25.7693 19.7052 37.4382 27.2352 39.2187Z" fill="white"/>
<path d="M53.59 29.7792C49.8249 29.7792 46.0598 39.2187 51.7074 40.9992C57.3551 41.1066 59.2376 29.7792 53.59 29.7792Z" fill="white"/>
<path d="M27.2352 39.2187C31.0007 39.3261 33.251 27.7646 27.2339 26.0035C23.8382 25.7693 19.7052 37.4382 27.2352 39.2187Z" stroke="white" stroke-width="0.5" stroke-miterlimit="16" stroke-linejoin="round"/>
<path d="M53.59 29.7792C49.8249 29.7792 46.0598 39.2187 51.7074 40.9992C57.3551 41.1066 59.2376 29.7792 53.59 29.7792Z" stroke="white" stroke-width="0.5" stroke-miterlimit="16" stroke-linejoin="round"/>
<path d="M22.0034 52.5904C22.0034 51.3181 23.0827 51 23.6223 51C27.5076 51 28.479 56.3012 28.479 58.9518L30.0978 62.1325C33.3356 63.7229 34.9545 62.1325 38.1923 62.1325C40.7825 62.1325 48.9848 60.012 52.7622 58.9518C56 58.9518 56 60.5422 56 62.1325C56 63.4048 47.3659 65.8434 43.0489 66.9036C41.9697 66.9036 40.4587 67.2217 43.0489 68.494C45.6391 69.7663 44.6678 73.2651 43.0489 73.2651H44.2835C45.9024 74.8554 44.344 78.0361 43.0489 78.0361C47.5213 78.0361 41.43 82.012 38.1923 82.8072C31.7167 84.3976 29.7133 84.3976 26.4755 82.8072C23.2378 81.2169 20.3845 74.8554 20.3845 74.8554C19.3052 72.2048 20.7083 66.5855 22.0034 65.3133C23.6223 63.7229 22.0034 54.1807 22.0034 52.5904Z" fill="white" stroke="black" stroke-width="0.5" stroke-miterlimit="16" stroke-linejoin="round"/>
</svg>
