<svg width="28" height="27" viewBox="0 0 28 27" fill="none" xmlns="http://www.w3.org/2000/svg">
<g clip-path="url(#clip0_185_44)">
<rect x="0.05" y="0.05" width="23.9" height="23.9" rx="11.95" fill="black"/>
<rect x="0.05" y="0.05" width="23.9" height="23.9" rx="11.95" stroke="white" stroke-width="0.1"/>
<path d="M9.5 16.5C13.5 16 14 16.5 16 17" stroke="white" stroke-miterlimit="16" stroke-linejoin="round"/>
<path d="M10.5 6.97152C9.5 6.13819 7.2 5.07152 6 7.47152" stroke="white" stroke-width="0.5" stroke-miterlimit="16" stroke-linejoin="round"/>
<path d="M19 8.00002C18 7.50003 15.8 7.17154 15 7.97154" stroke="white" stroke-width="0.5" stroke-miterlimit="4.7764" stroke-linejoin="round"/>
<path d="M9.12485 11.5009C10.125 11.5294 10.7226 8.46735 9.12451 8.00092C8.22262 7.93891 7.1249 11.0293 9.12485 11.5009Z" fill="white"/>
<path d="M16.1246 9.00091C15.1246 9.00091 14.1246 11.5009 15.6246 11.9725C17.1246 12.0009 17.6246 9.00091 16.1246 9.00091Z" fill="white"/>
<path d="M9.12485 11.5009C10.125 11.5294 10.7226 8.46735 9.12451 8.00092C8.22262 7.93891 7.1249 11.0293 9.12485 11.5009Z" stroke="white" stroke-width="0.5" stroke-miterlimit="16" stroke-linejoin="round"/>
<path d="M16.1246 9.00091C15.1246 9.00091 14.1246 11.5009 15.6246 11.9725C17.1246 12.0009 17.6246 9.00091 16.1246 9.00091Z" stroke="white" stroke-width="0.5" stroke-miterlimit="16" stroke-linejoin="round"/>
<path d="M25.6553 8.62402V8.62407V8.62412" stroke="white" stroke-linecap="round"/>
<path d="M4.61877 16.5C4.61877 16.1 4.9521 16 5.11877 16C6.31877 16 6.61877 17.6667 6.61877 18.5L7.11877 19.5C8.11877 20 8.61877 19.5 9.61877 19.5C10.4188 19.5 12.9521 18.8333 14.1188 18.5C15.1188 18.5 15.1188 19 15.1188 19.5C15.1188 19.9 12.4521 20.6667 11.1188 21C10.7854 21 10.3188 21.1 11.1188 21.5C11.9188 21.9 11.6188 23 11.1188 23H11.5001C12.0001 23.5 11.5188 24.5 11.1188 24.5C12.5001 24.5 10.6188 25.75 9.61877 26C7.61877 26.5 7 26.5 6 26C5 25.5 4.11877 23.5 4.11877 23.5C3.78539 22.6667 4.21877 20.9 4.61877 20.5C5.11877 20 4.61877 17 4.61877 16.5Z" fill="white" stroke="black" stroke-width="0.5" stroke-miterlimit="16" stroke-linejoin="round"/>
<path d="M24 2.40411C24.1551 0.624014 26.5928 0.596262 27 2.12404C27.5 4 25.5336 4.33447 25.5336 5.49999C25.5336 6.95532 25.5336 5.71644 25.5336 6.84874" stroke="white" stroke-width="1.2" stroke-linecap="round" stroke-linejoin="round"/>
</g>
<defs>
<clipPath id="clip0_185_44">
<rect width="28" height="27" fill="white"/>
</clipPath>
</defs>
</svg>
