<svg width="28" height="26" viewBox="0 0 28 26" fill="none" xmlns="http://www.w3.org/2000/svg">
<g clip-path="url(#clip0_185_65)">
<rect x="0.05" y="0.05" width="23.9" height="23.9" rx="11.95" fill="black"/>
<rect x="0.05" y="0.05" width="23.9" height="23.9" rx="11.95" stroke="white" stroke-width="0.1"/>
<path d="M8.08696 6.24937C9.33913 4.97235 10 8.90985 10.1739 11.0382C8.50435 7.63283 7.04348 9.61932 6.52174 11.0382C6.52174 10.5061 6.52174 7.84566 8.08696 6.24937Z" fill="white"/>
<path d="M15.913 6.24939C17.1652 4.97236 17.4783 8.90986 17.4783 11.0382C15.8087 7.63283 14.3478 9.61932 13.8261 11.0382C13.8261 11.0382 14.3478 7.84567 15.913 6.24939Z" fill="white"/>
<path d="M6 14.2308C9.75652 17.6362 15.5652 15.6497 18 14.2308C16.9565 15.295 15.0043 19.0743 12.5 19.5C9.99565 19.9257 6.86957 15.6497 6 14.2308Z" fill="white"/>
<path d="M17.1736 13.7308C18.6736 14.7308 18.6736 14.2308 18.6736 14.2308M6.52174 11.0382C7.04348 9.61932 8.50435 7.63283 10.1739 11.0382C10 8.90985 9.33913 4.97235 8.08696 6.24937C6.52174 7.84566 6.52174 10.5061 6.52174 11.0382ZM13.8261 11.0382C14.3478 9.61932 15.8087 7.63283 17.4783 11.0382C17.4783 8.90986 17.1652 4.97236 15.913 6.24939C14.3478 7.84567 13.8261 11.0382 13.8261 11.0382ZM18 14.2308C15.5652 15.6497 9.75652 17.6362 6 14.2308C6.86957 15.6497 9.99565 19.9257 12.5 19.5C15.0043 19.0743 16.9565 15.295 18 14.2308Z" stroke="white" stroke-width="0.3" stroke-miterlimit="16" stroke-linejoin="round"/>
<path d="M23.7306 15.7208C23.0423 15.3192 21.2356 16.6913 21.9841 17.4192C22.6607 18.0773 24.9781 16.4487 23.7306 15.7208Z" fill="black"/>
<path fill-rule="evenodd" clip-rule="evenodd" d="M19.7386 17.4192L23.4811 20.5734C24.6484 19.6674 26.1286 18.3394 26.7246 16.4487L23.9801 14.265C22.3001 14.6553 20.9338 15.7853 19.7386 17.4192ZM23.7306 15.7208C23.0423 15.3192 21.2356 16.6913 21.9841 17.4192C22.6607 18.0773 24.9781 16.4487 23.7306 15.7208Z" fill="white"/>
<path fill-rule="evenodd" clip-rule="evenodd" d="M17.4412 21.125L16.2455 22.2718C15.8367 22.5369 15.8 22.7296 15.7696 22.8894C15.7444 23.0222 15.7234 23.1323 15.497 23.2424C15.1087 23.4312 15.1037 23.6632 15.0993 23.8702C15.0966 23.9998 15.094 24.1195 14.998 24.2129C14.8558 24.3512 14.912 24.4978 14.9659 24.6386C15.0066 24.7447 15.046 24.8475 14.998 24.9408C14.8733 25.1834 14.8733 25.3654 14.8733 25.517C14.8733 25.6687 14.8733 25.79 14.7485 25.9113C14.5647 26.0901 14.9063 25.9668 15.3106 25.8209C15.4549 25.7688 15.6073 25.7138 15.7465 25.6687C16.0792 25.5608 16.2147 25.453 16.3503 25.3452C16.5197 25.2104 16.6891 25.0756 17.2435 24.9408C17.584 24.858 17.7809 24.628 17.9345 24.4484C18.0469 24.3172 18.1362 24.2129 18.2415 24.2129C18.3663 24.2129 18.491 23.9702 18.6158 23.7276C18.7406 23.485 19.3992 23.375 19.4629 23.2424L17.4412 21.125Z" fill="white"/>
<path d="M22.2336 23.7276C21.6348 22.9512 22.4831 21.5318 22.9821 20.9191C21.9489 21.6089 20.6229 22.3403 19.7386 22.5145L19.9881 23.2424C19.9881 23.4365 19.4891 23.6467 19.2396 23.7276C19.4392 23.7276 19.3227 25.1834 19.2396 25.9113C20.038 25.7172 21.5682 24.3746 22.2336 23.7276Z" fill="white"/>
<path d="M19.7386 17.4192C19.2396 17.9041 17.8922 18.7779 16.495 18.3897C15.6634 19.3603 14 21.3498 14 21.5439C14.6653 21.4631 16.0958 21.3498 16.495 21.5439L17.2435 20.5734L18.2415 20.816C18.388 19.536 19.1274 18.2547 19.7386 17.4192Z" fill="white"/>
<path d="M18.2415 20.816L17.4412 21.125L19.4629 23.2424L19.7386 22.5145L18.9901 21.6652L18.2415 20.816Z" fill="white"/>
<path d="M19.7386 17.4192C19.1274 18.2547 18.388 19.536 18.2415 20.816L18.9901 21.6652L19.7386 22.5145C20.6229 22.3403 21.9489 21.6089 22.9821 20.9191C23.1434 20.8114 23.3228 20.6963 23.4811 20.5734L19.7386 17.4192Z" fill="white"/>
<path d="M26.7246 14.265C26.2256 13.7798 24.8076 14.0728 23.9801 14.265L26.7246 16.4487C26.932 15.7909 27.2236 14.7503 26.7246 14.265Z" fill="white"/>
<path d="M18.2415 20.816C18.388 19.536 19.1274 18.2547 19.7386 17.4192M18.2415 20.816L17.2435 20.5734L16.495 21.5439C16.0958 21.3498 14.6653 21.4631 14 21.5439C14 21.3498 15.6634 19.3603 16.495 18.3897C17.8922 18.7779 19.2396 17.9041 19.7386 17.4192M18.2415 20.816L17.4412 21.125M18.2415 20.816L18.9901 21.6652L19.7386 22.5145M19.7386 22.5145C19.9658 22.4981 19.469 22.5676 19.7386 22.5145ZM19.7386 22.5145C20.6229 22.3403 21.9489 21.6089 22.9821 20.9191M19.7386 22.5145L19.9881 23.2424C19.9881 23.4365 19.4891 23.6467 19.2396 23.7276C19.4392 23.7276 19.3227 25.1834 19.2396 25.9113C20.038 25.7172 21.5682 24.3746 22.2336 23.7276C21.6348 22.9512 22.4831 21.5318 22.9821 20.9191M19.7386 22.5145L19.4629 23.2424M19.7386 17.4192L23.4811 20.5734M19.7386 17.4192C20.9338 15.7853 22.3001 14.6553 23.9801 14.265M22.9821 20.9191C23.1434 20.8114 23.3228 20.6963 23.4811 20.5734M23.4811 20.5734C24.6484 19.6674 26.1286 18.3394 26.7246 16.4487M23.9801 14.265C24.8076 14.0728 26.2256 13.7798 26.7246 14.265C27.2236 14.7503 26.932 15.7909 26.7246 16.4487M23.9801 14.265L26.7246 16.4487M17.4412 21.125L19.4629 23.2424M17.4412 21.125L16.2455 22.2718C15.8367 22.5369 15.8 22.7296 15.7696 22.8894C15.7444 23.0222 15.7234 23.1323 15.497 23.2424C15.1087 23.4312 15.1037 23.6632 15.0993 23.8702C15.0966 23.9998 15.094 24.1195 14.998 24.2129C14.8558 24.3512 14.912 24.4978 14.9659 24.6386C15.0066 24.7447 15.046 24.8475 14.998 24.9408C14.8733 25.1834 14.8733 25.3654 14.8733 25.517C14.8733 25.6687 14.8733 25.79 14.7485 25.9113C14.5647 26.0901 14.9063 25.9668 15.3106 25.8209C15.4549 25.7688 15.6073 25.7138 15.7465 25.6687C16.0792 25.5608 16.2147 25.453 16.3503 25.3452C16.5197 25.2104 16.6891 25.0756 17.2435 24.9408C17.584 24.858 17.7809 24.628 17.9345 24.4484C18.0469 24.3172 18.1362 24.2129 18.2415 24.2129C18.3663 24.2129 18.491 23.9702 18.6158 23.7276C18.7406 23.485 19.3992 23.375 19.4629 23.2424M23.7306 15.7208C23.0423 15.3192 21.2356 16.6913 21.9841 17.4192C22.6607 18.0773 24.9781 16.4487 23.7306 15.7208Z" stroke="black" stroke-width="0.2"/>
</g>
<defs>
<clipPath id="clip0_185_65">
<rect width="28" height="26" fill="white"/>
</clipPath>
</defs>
</svg>
