<svg width="109" height="85" viewBox="0 0 109 85" fill="none" xmlns="http://www.w3.org/2000/svg">
<rect x="2.05" y="2.05" width="81.9" height="81.9" rx="40.95" fill="black"/>
<rect x="2.05" y="2.05" width="81.9" height="81.9" rx="40.95" stroke="white" stroke-width="0.1"/>
<path d="M27.0688 18.9584C31.9101 14.0503 34.4652 29.1838 35.1376 37.364C28.6826 24.2756 23.0344 31.9105 21.0172 37.364C21.0172 35.319 21.0172 25.0936 27.0688 18.9584Z" fill="white"/>
<path d="M57.3269 18.9585C62.1681 14.0504 63.3785 29.1838 63.3785 37.364C56.9234 24.2757 51.2752 31.9105 49.258 37.364C49.258 37.364 51.2752 25.0937 57.3269 18.9585Z" fill="white"/>
<path d="M19 49.6344C33.5239 62.7228 55.9821 55.0879 65.3957 49.6344C61.3613 53.7245 53.8136 68.25 44.131 69.8861C34.4484 71.5221 22.362 55.0879 19 49.6344Z" fill="white"/>
<path d="M62.2005 47.7127C68 51.5561 68 49.6344 68 49.6344M21.0172 37.364C23.0344 31.9105 28.6826 24.2756 35.1376 37.364C34.4652 29.1838 31.9101 14.0503 27.0688 18.9584C21.0172 25.0936 21.0172 35.319 21.0172 37.364ZM49.258 37.364C51.2753 31.9105 56.9234 24.2757 63.3785 37.364C63.3785 29.1838 62.1681 14.0504 57.3269 18.9585C51.2752 25.0937 49.258 37.364 49.258 37.364ZM65.3957 49.6344C55.9821 55.0879 33.5239 62.7228 19 49.6344C22.362 55.0879 34.4484 71.5221 44.131 69.8861C53.8136 68.25 61.3613 53.7245 65.3957 49.6344Z" stroke="white" stroke-width="0.3" stroke-miterlimit="16" stroke-linejoin="round"/>
<path d="M95.6829 44.8794C93.3004 43.5074 87.0462 48.1954 89.6372 50.6824C91.9795 52.9306 100.001 47.3664 95.6829 44.8794Z" fill="black"/>
<path fill-rule="evenodd" clip-rule="evenodd" d="M81.8643 50.6824L94.8192 61.4592C98.86 58.3637 103.984 53.8264 106.047 47.3664L96.5465 39.9055C90.731 41.2388 86.0017 45.0997 81.8643 50.6824ZM95.6829 44.8794C93.3004 43.5074 87.0462 48.1954 89.6372 50.6824C91.9795 52.9306 100.001 47.3664 95.6829 44.8794Z" fill="white"/>
<path fill-rule="evenodd" clip-rule="evenodd" d="M73.9118 63.3438L69.773 67.2621C68.3577 68.1677 68.2309 68.826 68.1257 69.3721C68.0383 69.8257 67.9658 70.2019 67.182 70.578C65.8378 71.2232 65.8206 72.0158 65.8054 72.7233C65.7958 73.1658 65.787 73.575 65.4547 73.894C64.9623 74.3666 65.1568 74.8676 65.3436 75.3485C65.4844 75.7111 65.6207 76.0622 65.4547 76.381C65.0228 77.21 65.0228 77.8317 65.0228 78.3498C65.0228 78.8679 65.0228 79.2824 64.591 79.6969C63.9546 80.3078 65.1372 79.8865 66.5366 79.388C67.0363 79.21 67.5636 79.0222 68.0456 78.8679C69.1972 78.4995 69.6663 78.1311 70.1355 77.7626C70.7219 77.3021 71.3084 76.8415 73.2276 76.381C74.406 76.0982 75.0876 75.3123 75.6195 74.6988C76.0085 74.2503 76.3175 73.894 76.6823 73.894C77.1141 73.894 77.5459 73.065 77.9778 72.236C78.4096 71.407 80.6896 71.0313 80.91 70.578L73.9118 63.3438Z" fill="white"/>
<path d="M90.5009 72.236C88.4281 69.5832 91.3646 64.7335 93.0919 62.6403C89.5154 64.9971 84.9255 67.496 81.8643 68.0911L82.7279 70.578C82.7279 71.2412 81.0006 71.9597 80.1369 72.236C80.8279 72.236 80.4248 77.21 80.1369 79.6969C82.9007 79.0337 88.1978 74.4467 90.5009 72.236Z" fill="white"/>
<path d="M81.8643 50.6824C80.1369 52.3391 75.4731 55.3246 70.6366 53.9982C67.7578 57.3142 62 64.1119 62 64.7751C64.3031 64.4988 69.2548 64.1119 70.6366 64.7751L73.2276 61.4591L76.6823 62.2881C77.1894 57.9145 79.7488 53.5368 81.8643 50.6824Z" fill="white"/>
<path d="M76.6823 62.2881L73.9118 63.3438L80.91 70.578L81.8643 68.0911L79.2733 65.1896L76.6823 62.2881Z" fill="white"/>
<path d="M81.8643 50.6824C79.7488 53.5368 77.1894 57.9145 76.6823 62.2881L79.2733 65.1896L81.8643 68.0911C84.9255 67.496 89.5154 64.9971 93.0919 62.6403C93.6503 62.2723 94.2712 61.8791 94.8192 61.4592L81.8643 50.6824Z" fill="white"/>
<path d="M106.047 39.9054C104.32 38.2475 99.411 39.2487 96.5465 39.9055L106.047 47.3664C106.765 45.1189 107.774 41.5635 106.047 39.9054Z" fill="white"/>
<path d="M76.6823 62.2881C77.1894 57.9145 79.7488 53.5368 81.8643 50.6824M76.6823 62.2881L73.2276 61.4591L70.6366 64.7751C69.2548 64.1119 64.3031 64.4988 62 64.7751C62 64.1119 67.7578 57.3142 70.6366 53.9982C75.4731 55.3246 80.1369 52.3391 81.8643 50.6824M76.6823 62.2881L73.9118 63.3438M76.6823 62.2881L79.2733 65.1896L81.8643 68.0911M81.8643 68.0911C82.6507 68.0351 80.9311 68.2725 81.8643 68.0911ZM81.8643 68.0911C84.9255 67.496 89.5154 64.9971 93.0919 62.6403M81.8643 68.0911L82.7279 70.578C82.7279 71.2412 81.0006 71.9597 80.1369 72.236C80.8279 72.236 80.4248 77.21 80.1369 79.6969C82.9007 79.0337 88.1978 74.4467 90.5009 72.236C88.4281 69.5832 91.3646 64.7335 93.0919 62.6403M81.8643 68.0911L80.91 70.578M81.8643 50.6824L94.8192 61.4592M81.8643 50.6824C86.0017 45.0997 90.731 41.2388 96.5465 39.9055M93.0919 62.6403C93.6503 62.2723 94.2712 61.8791 94.8192 61.4592M94.8192 61.4592C98.86 58.3637 103.984 53.8264 106.047 47.3664M96.5465 39.9055C99.411 39.2487 104.32 38.2475 106.047 39.9054C107.774 41.5635 106.765 45.1189 106.047 47.3664M96.5465 39.9055L106.047 47.3664M73.9118 63.3438L80.91 70.578M73.9118 63.3438L69.773 67.2621C68.3577 68.1677 68.2309 68.826 68.1257 69.3721C68.0383 69.8257 67.9658 70.2019 67.182 70.578C65.8378 71.2232 65.8206 72.0158 65.8054 72.7233C65.7958 73.1658 65.787 73.575 65.4547 73.894C64.9623 74.3666 65.1568 74.8676 65.3436 75.3485C65.4844 75.7111 65.6207 76.0622 65.4547 76.381C65.0228 77.21 65.0228 77.8317 65.0228 78.3498C65.0228 78.8679 65.0228 79.2824 64.591 79.6969C63.9546 80.3078 65.1372 79.8865 66.5366 79.388C67.0363 79.21 67.5636 79.0222 68.0456 78.8679C69.1972 78.4995 69.6663 78.1311 70.1355 77.7626C70.7219 77.3021 71.3084 76.8415 73.2276 76.381C74.406 76.0982 75.0876 75.3123 75.6195 74.6988C76.0085 74.2503 76.3175 73.894 76.6823 73.894C77.1141 73.894 77.5459 73.065 77.9778 72.236C78.4096 71.407 80.6896 71.0313 80.91 70.578M95.6829 44.8794C93.3004 43.5074 87.0462 48.1954 89.6372 50.6824C91.9795 52.9306 100.001 47.3664 95.6829 44.8794Z" stroke="black" stroke-width="0.2"/>
</svg>
