<svg width="29" height="24" viewBox="0 0 29 24" fill="none" xmlns="http://www.w3.org/2000/svg">
<g clip-path="url(#clip0_185_63)">
<rect x="5.05" y="0.05" width="23.9" height="23.9" rx="11.95" fill="black"/>
<rect x="5.05" y="0.05" width="23.9" height="23.9" rx="11.95" stroke="white" stroke-width="0.1"/>
<path d="M15.5 10.7778C15.8561 11.4899 14.5 8.77798 13 9.27776C12.1434 9.56317 11.6129 10.0118 11.3155 10.3441C11.115 10.5937 11 10.7778 11 10.7778C11 10.7778 11.092 10.5937 11.3155 10.3441C12.0495 9.42987 13.9289 7.63577 15.5 10.7778Z" fill="white"/>
<path d="M11 10.7778C11 10.7778 11.4999 9.77757 13 9.27776C14.5 8.77798 15.8561 11.4899 15.5 10.7778C13.4999 6.77777 11 10.7778 11 10.7778Z" stroke="white" stroke-miterlimit="16" stroke-linejoin="round"/>
<path d="M20.2799 8C21.0761 8 21.8771 9.68441 21 11C20 12.5 19.5 11 19.5 11C19.5 11 18.5 8 20.2799 8Z" fill="white"/>
<path d="M12 15.2308C15.7565 18.6362 19.8451 16.6497 22.2799 15.2308C21.2364 16.295 19.3142 17.326 16.7799 17.5C15.7799 17.5687 12.8696 16.6497 12 15.2308Z" fill="white"/>
<path d="M20.2799 8C21.0761 8 21.8771 9.68441 21 11C20 12.5 19.5 11 19.5 11C19.5 11 18.5 8 20.2799 8Z" stroke="white" stroke-miterlimit="16" stroke-linejoin="round"/>
<path d="M12 15.2308C15.7565 18.6362 19.8451 16.6497 22.2799 15.2308C21.2364 16.295 19.3142 17.326 16.7799 17.5C15.7799 17.5687 12.8696 16.6497 12 15.2308Z" stroke="white" stroke-miterlimit="16" stroke-linejoin="round"/>
<path d="M0 23L0.818182 20L5.05378 15.7644L6.12204 14.6961L6.81818 14C7.36364 14 8.56364 14.3818 9 15.9091L8.18182 16.7273L7.17554 17.7336L3 21.9091L0.871466 22.6831L0 23Z" fill="black"/>
<path d="M0.818182 20L0 23L0.871466 22.6831M0.818182 20H1.09091V20.5455H1.90909V21.3636H2.72727L3 21.9091M0.818182 20L5.05378 15.7644M3 21.9091L0.871466 22.6831M3 21.9091L7.17554 17.7336M0.272727 22.1818L0.871466 22.6831M5.05378 15.7644L7.17554 17.7336M5.05378 15.7644L6.12204 14.6961M7.17554 17.7336L8.18182 16.7273M6.12204 14.6961L6.81818 14C7.36364 14 8.56364 14.3818 9 15.9091L8.18182 16.7273M6.12204 14.6961L8.18182 16.7273" stroke="white" stroke-width="0.2"/>
</g>
<defs>
<clipPath id="clip0_185_63">
<rect width="29" height="24" fill="white"/>
</clipPath>
</defs>
</svg>
