<svg width="91" height="85" viewBox="0 0 91 85" fill="none" xmlns="http://www.w3.org/2000/svg">
<g clip-path="url(#clip0_189_3)">
<rect x="6.05" y="2.05" width="81.9" height="81.9" rx="40.95" fill="black"/>
<rect x="6.05" y="2.05" width="81.9" height="81.9" rx="40.95" stroke="white" stroke-width="0.1"/>
<path d="M42.7605 34.4942C44.2451 37.4964 38.5915 26.0641 32.338 28.1709C28.7668 29.3741 26.5553 31.2651 25.3151 32.666C24.4795 33.7184 24 34.4943 24 34.4943C24 34.4943 24.3835 33.7184 25.3151 32.666C28.3752 28.8121 36.2107 21.2491 42.7605 34.4942Z" fill="white"/>
<path d="M24 34.4943C24 34.4943 26.0842 30.2779 32.338 28.1709C38.5915 26.0641 44.2451 37.4964 42.7605 34.4942C34.4221 17.6322 24 34.4943 24 34.4943Z" stroke="white" stroke-miterlimit="16" stroke-linejoin="round"/>
<path d="M62.6342 23C65.9647 23 69.3149 30.0896 65.6462 35.6268C61.4633 41.9402 59.3718 35.6268 59.3718 35.6268C59.3718 35.6268 55.1889 23 62.6342 23Z" fill="white"/>
<path d="M28 53.434C43.7132 67.7671 60.8155 59.4061 71 53.434C66.6352 57.9131 58.5947 62.2525 47.994 62.9848C43.8111 63.2738 31.6373 59.4061 28 53.434Z" fill="white"/>
<path d="M62.6342 23C65.9647 23 69.3149 30.0896 65.6462 35.6268C61.4633 41.9402 59.3718 35.6268 59.3718 35.6268C59.3718 35.6268 55.1889 23 62.6342 23Z" stroke="white" stroke-miterlimit="16" stroke-linejoin="round"/>
<path d="M28 53.434C43.7132 67.7671 60.8155 59.4061 71 53.434C66.6352 57.9131 58.5947 62.2525 47.994 62.9848C43.8111 63.2738 31.6373 59.4061 28 53.434Z" stroke="white" stroke-miterlimit="16" stroke-linejoin="round"/>
<path d="M1.6052 77.0584L2.32345 67.0644L13.0762 51.0358L15.7881 46.9932L17.5554 44.3589C19.2799 44.0191 23.3114 44.4789 25.6421 49.0355L23.565 52.1318L21.0104 55.9398L10.4102 71.7411L4.16294 75.5138L1.6052 77.0584Z" fill="black"/>
<path d="M2.32345 67.0644L1.6052 77.0584L4.16295 75.5138M2.32345 67.0644L3.18567 66.8946L3.52538 68.619L6.11203 68.1094L6.62159 70.6961L9.20824 70.1865L10.4102 71.7411M2.32345 67.0644L13.0762 51.0358M10.4102 71.7411L4.16295 75.5138M10.4102 71.7411L21.0104 55.9398M1.95786 74.3019L4.16295 75.5138M13.0762 51.0358L21.0104 55.9398M13.0762 51.0358L15.7881 46.9932M21.0104 55.9398L23.565 52.1318M15.7881 46.9932L17.5554 44.3589C19.2799 44.0191 23.3114 44.4789 25.6421 49.0355L23.565 52.1318M15.7881 46.9932L23.565 52.1318" stroke="white" stroke-width="0.2"/>
</g>
<defs>
<clipPath id="clip0_189_3">
<rect width="91" height="85" fill="white"/>
</clipPath>
</defs>
</svg>
