<svg width="141" height="24" viewBox="0 0 141 24" fill="none" xmlns="http://www.w3.org/2000/svg">
<g clip-path="url(#clip0_58_40)">
<g filter="url(#filter0_d_58_40)">
<mask id="path-1-outside-1_58_40" maskUnits="userSpaceOnUse" x="1" y="5" width="139" height="17" fill="black">
<rect fill="white" x="1" y="5" width="139" height="17"/>
<path d="M1.81534 13.1705V12.1477L10.0483 7.95455V9.59091L3.73295 12.6335L3.78409 12.5312V12.7869L3.73295 12.6847L10.0483 15.7273V17.3636L1.81534 13.1705ZM13.4505 19V5.90909H15.0357V17.5938H21.1209V19H13.4505ZM32.1664 5.90909H33.7516V14.5767C33.7516 15.4716 33.5407 16.2706 33.1188 16.9737C32.7012 17.6726 32.111 18.2244 31.3482 18.6293C30.5854 19.0298 29.6905 19.2301 28.6635 19.2301C27.6365 19.2301 26.7417 19.0298 25.9789 18.6293C25.2161 18.2244 24.6238 17.6726 24.2019 16.9737C23.7843 16.2706 23.5755 15.4716 23.5755 14.5767V5.90909H25.1607V14.4489C25.1607 15.0881 25.3013 15.657 25.5826 16.1555C25.8638 16.6499 26.2644 17.0398 26.7843 17.3253C27.3084 17.6065 27.9348 17.7472 28.6635 17.7472C29.3922 17.7472 30.0186 17.6065 30.5428 17.3253C31.0669 17.0398 31.4675 16.6499 31.7445 16.1555C32.0257 15.657 32.1664 15.0881 32.1664 14.4489V5.90909ZM38.5025 5.90909V19H36.9173V5.90909H38.5025ZM41.2463 19V17.8494L48.3031 7.31534H41.1696V5.90909H50.1951V7.05966L43.1383 17.5938H50.2718V19H41.2463ZM65.1525 9.18182C65.0758 8.53409 64.7647 8.03125 64.2193 7.6733C63.6738 7.31534 63.0048 7.13636 62.2122 7.13636C61.6326 7.13636 61.1255 7.23011 60.6909 7.41761C60.2605 7.60511 59.9238 7.86293 59.6809 8.19105C59.4423 8.51918 59.323 8.89204 59.323 9.30966C59.323 9.65909 59.4061 9.95952 59.5723 10.2109C59.7427 10.4581 59.96 10.6648 60.2243 10.831C60.4885 10.9929 60.7654 11.1271 61.0552 11.2337C61.345 11.3359 61.6113 11.419 61.8542 11.483L63.1838 11.8409C63.5247 11.9304 63.9039 12.054 64.3216 12.2116C64.7434 12.3693 65.1461 12.5845 65.5297 12.8572C65.9174 13.1257 66.237 13.4709 66.4885 13.8928C66.7399 14.3146 66.8656 14.8324 66.8656 15.446C66.8656 16.1534 66.6802 16.7926 66.3095 17.3636C65.943 17.9347 65.4061 18.3885 64.6987 18.7251C63.9956 19.0618 63.1412 19.2301 62.1355 19.2301C61.198 19.2301 60.3862 19.0788 59.7001 18.7763C59.0183 18.4737 58.4814 18.0518 58.0893 17.5107C57.7015 16.9695 57.4821 16.3409 57.4309 15.625H59.0673C59.1099 16.1193 59.2761 16.5284 59.5659 16.8523C59.8599 17.1719 60.2306 17.4105 60.6781 17.5682C61.1298 17.7216 61.6156 17.7983 62.1355 17.7983C62.7406 17.7983 63.2839 17.7003 63.7654 17.5043C64.247 17.304 64.6284 17.027 64.9096 16.6733C65.1909 16.3153 65.3315 15.8977 65.3315 15.4205C65.3315 14.9858 65.2101 14.6321 64.9672 14.3594C64.7243 14.0866 64.4047 13.8651 64.0083 13.6946C63.612 13.5241 63.1838 13.375 62.7235 13.2472L61.1127 12.7869C60.09 12.4929 59.2804 12.0732 58.6838 11.5277C58.0872 10.9822 57.7889 10.2685 57.7889 9.38636C57.7889 8.65341 57.987 8.0142 58.3833 7.46875C58.7839 6.91903 59.3208 6.4929 59.9941 6.19034C60.6717 5.88352 61.4281 5.73011 62.2633 5.73011C63.1071 5.73011 63.8571 5.88139 64.5133 6.18395C65.1696 6.48224 65.6895 6.89133 66.073 7.41122C66.4608 7.93111 66.6653 8.52131 66.6866 9.18182H65.1525ZM80.5174 12.4545C80.5174 13.8352 80.2681 15.0284 79.7695 16.0341C79.271 17.0398 78.587 17.8153 77.7177 18.3608C76.8484 18.9062 75.8555 19.179 74.739 19.179C73.6225 19.179 72.6296 18.9062 71.7603 18.3608C70.891 17.8153 70.207 17.0398 69.7085 16.0341C69.2099 15.0284 68.9606 13.8352 68.9606 12.4545C68.9606 11.0739 69.2099 9.88068 69.7085 8.875C70.207 7.86932 70.891 7.09375 71.7603 6.5483C72.6296 6.00284 73.6225 5.73011 74.739 5.73011C75.8555 5.73011 76.8484 6.00284 77.7177 6.5483C78.587 7.09375 79.271 7.86932 79.7695 8.875C80.2681 9.88068 80.5174 11.0739 80.5174 12.4545ZM78.9833 12.4545C78.9833 11.321 78.7937 10.3643 78.4144 9.58452C78.0394 8.80469 77.5302 8.21449 76.8867 7.81392C76.2475 7.41335 75.5316 7.21307 74.739 7.21307C73.9464 7.21307 73.2283 7.41335 72.5849 7.81392C71.9457 8.21449 71.4364 8.80469 71.0572 9.58452C70.6822 10.3643 70.4947 11.321 70.4947 12.4545C70.4947 13.5881 70.6822 14.5447 71.0572 15.3246C71.4364 16.1044 71.9457 16.6946 72.5849 17.0952C73.2283 17.4957 73.9464 17.696 74.739 17.696C75.5316 17.696 76.2475 17.4957 76.8867 17.0952C77.5302 16.6946 78.0394 16.1044 78.4144 15.3246C78.7937 14.5447 78.9833 13.5881 78.9833 12.4545ZM91.7738 5.90909H93.359V14.5767C93.359 15.4716 93.1481 16.2706 92.7262 16.9737C92.3086 17.6726 91.7184 18.2244 90.9556 18.6293C90.1928 19.0298 89.2979 19.2301 88.271 19.2301C87.244 19.2301 86.3491 19.0298 85.5863 18.6293C84.8235 18.2244 84.2312 17.6726 83.8093 16.9737C83.3917 16.2706 83.1829 15.4716 83.1829 14.5767V5.90909H84.7681V14.4489C84.7681 15.0881 84.9087 15.657 85.19 16.1555C85.4712 16.6499 85.8718 17.0398 86.3917 17.3253C86.9158 17.6065 87.5423 17.7472 88.271 17.7472C88.9996 17.7472 89.6261 17.6065 90.1502 17.3253C90.6744 17.0398 91.0749 16.6499 91.3519 16.1555C91.6332 15.657 91.7738 15.0881 91.7738 14.4489V5.90909ZM96.09 19V17.8494L103.147 7.31534H96.0133V5.90909H105.039V7.05966L97.9821 17.5938H105.116V19H96.09ZM108.312 19H106.65L111.456 5.90909H113.093L117.9 19H116.238L112.326 7.98011H112.224L108.312 19ZM108.925 13.8864H115.624V15.2926H108.925V13.8864ZM129.425 5.29545L125.206 20.9688H123.825L128.044 5.29545H129.425ZM139.88 14.3977L131.647 18.5909V16.9545L137.963 13.9119L137.912 14.0142V13.7585L137.963 13.8608L131.647 10.8182V9.18182L139.88 13.375V14.3977Z"/>
</mask>
<path d="M1.81534 13.1705V12.1477L10.0483 7.95455V9.59091L3.73295 12.6335L3.78409 12.5312V12.7869L3.73295 12.6847L10.0483 15.7273V17.3636L1.81534 13.1705ZM13.4505 19V5.90909H15.0357V17.5938H21.1209V19H13.4505ZM32.1664 5.90909H33.7516V14.5767C33.7516 15.4716 33.5407 16.2706 33.1188 16.9737C32.7012 17.6726 32.111 18.2244 31.3482 18.6293C30.5854 19.0298 29.6905 19.2301 28.6635 19.2301C27.6365 19.2301 26.7417 19.0298 25.9789 18.6293C25.2161 18.2244 24.6238 17.6726 24.2019 16.9737C23.7843 16.2706 23.5755 15.4716 23.5755 14.5767V5.90909H25.1607V14.4489C25.1607 15.0881 25.3013 15.657 25.5826 16.1555C25.8638 16.6499 26.2644 17.0398 26.7843 17.3253C27.3084 17.6065 27.9348 17.7472 28.6635 17.7472C29.3922 17.7472 30.0186 17.6065 30.5428 17.3253C31.0669 17.0398 31.4675 16.6499 31.7445 16.1555C32.0257 15.657 32.1664 15.0881 32.1664 14.4489V5.90909ZM38.5025 5.90909V19H36.9173V5.90909H38.5025ZM41.2463 19V17.8494L48.3031 7.31534H41.1696V5.90909H50.1951V7.05966L43.1383 17.5938H50.2718V19H41.2463ZM65.1525 9.18182C65.0758 8.53409 64.7647 8.03125 64.2193 7.6733C63.6738 7.31534 63.0048 7.13636 62.2122 7.13636C61.6326 7.13636 61.1255 7.23011 60.6909 7.41761C60.2605 7.60511 59.9238 7.86293 59.6809 8.19105C59.4423 8.51918 59.323 8.89204 59.323 9.30966C59.323 9.65909 59.4061 9.95952 59.5723 10.2109C59.7427 10.4581 59.96 10.6648 60.2243 10.831C60.4885 10.9929 60.7654 11.1271 61.0552 11.2337C61.345 11.3359 61.6113 11.419 61.8542 11.483L63.1838 11.8409C63.5247 11.9304 63.9039 12.054 64.3216 12.2116C64.7434 12.3693 65.1461 12.5845 65.5297 12.8572C65.9174 13.1257 66.237 13.4709 66.4885 13.8928C66.7399 14.3146 66.8656 14.8324 66.8656 15.446C66.8656 16.1534 66.6802 16.7926 66.3095 17.3636C65.943 17.9347 65.4061 18.3885 64.6987 18.7251C63.9956 19.0618 63.1412 19.2301 62.1355 19.2301C61.198 19.2301 60.3862 19.0788 59.7001 18.7763C59.0183 18.4737 58.4814 18.0518 58.0893 17.5107C57.7015 16.9695 57.4821 16.3409 57.4309 15.625H59.0673C59.1099 16.1193 59.2761 16.5284 59.5659 16.8523C59.8599 17.1719 60.2306 17.4105 60.6781 17.5682C61.1298 17.7216 61.6156 17.7983 62.1355 17.7983C62.7406 17.7983 63.2839 17.7003 63.7654 17.5043C64.247 17.304 64.6284 17.027 64.9096 16.6733C65.1909 16.3153 65.3315 15.8977 65.3315 15.4205C65.3315 14.9858 65.2101 14.6321 64.9672 14.3594C64.7243 14.0866 64.4047 13.8651 64.0083 13.6946C63.612 13.5241 63.1838 13.375 62.7235 13.2472L61.1127 12.7869C60.09 12.4929 59.2804 12.0732 58.6838 11.5277C58.0872 10.9822 57.7889 10.2685 57.7889 9.38636C57.7889 8.65341 57.987 8.0142 58.3833 7.46875C58.7839 6.91903 59.3208 6.4929 59.9941 6.19034C60.6717 5.88352 61.4281 5.73011 62.2633 5.73011C63.1071 5.73011 63.8571 5.88139 64.5133 6.18395C65.1696 6.48224 65.6895 6.89133 66.073 7.41122C66.4608 7.93111 66.6653 8.52131 66.6866 9.18182H65.1525ZM80.5174 12.4545C80.5174 13.8352 80.2681 15.0284 79.7695 16.0341C79.271 17.0398 78.587 17.8153 77.7177 18.3608C76.8484 18.9062 75.8555 19.179 74.739 19.179C73.6225 19.179 72.6296 18.9062 71.7603 18.3608C70.891 17.8153 70.207 17.0398 69.7085 16.0341C69.2099 15.0284 68.9606 13.8352 68.9606 12.4545C68.9606 11.0739 69.2099 9.88068 69.7085 8.875C70.207 7.86932 70.891 7.09375 71.7603 6.5483C72.6296 6.00284 73.6225 5.73011 74.739 5.73011C75.8555 5.73011 76.8484 6.00284 77.7177 6.5483C78.587 7.09375 79.271 7.86932 79.7695 8.875C80.2681 9.88068 80.5174 11.0739 80.5174 12.4545ZM78.9833 12.4545C78.9833 11.321 78.7937 10.3643 78.4144 9.58452C78.0394 8.80469 77.5302 8.21449 76.8867 7.81392C76.2475 7.41335 75.5316 7.21307 74.739 7.21307C73.9464 7.21307 73.2283 7.41335 72.5849 7.81392C71.9457 8.21449 71.4364 8.80469 71.0572 9.58452C70.6822 10.3643 70.4947 11.321 70.4947 12.4545C70.4947 13.5881 70.6822 14.5447 71.0572 15.3246C71.4364 16.1044 71.9457 16.6946 72.5849 17.0952C73.2283 17.4957 73.9464 17.696 74.739 17.696C75.5316 17.696 76.2475 17.4957 76.8867 17.0952C77.5302 16.6946 78.0394 16.1044 78.4144 15.3246C78.7937 14.5447 78.9833 13.5881 78.9833 12.4545ZM91.7738 5.90909H93.359V14.5767C93.359 15.4716 93.1481 16.2706 92.7262 16.9737C92.3086 17.6726 91.7184 18.2244 90.9556 18.6293C90.1928 19.0298 89.2979 19.2301 88.271 19.2301C87.244 19.2301 86.3491 19.0298 85.5863 18.6293C84.8235 18.2244 84.2312 17.6726 83.8093 16.9737C83.3917 16.2706 83.1829 15.4716 83.1829 14.5767V5.90909H84.7681V14.4489C84.7681 15.0881 84.9087 15.657 85.19 16.1555C85.4712 16.6499 85.8718 17.0398 86.3917 17.3253C86.9158 17.6065 87.5423 17.7472 88.271 17.7472C88.9996 17.7472 89.6261 17.6065 90.1502 17.3253C90.6744 17.0398 91.0749 16.6499 91.3519 16.1555C91.6332 15.657 91.7738 15.0881 91.7738 14.4489V5.90909ZM96.09 19V17.8494L103.147 7.31534H96.0133V5.90909H105.039V7.05966L97.9821 17.5938H105.116V19H96.09ZM108.312 19H106.65L111.456 5.90909H113.093L117.9 19H116.238L112.326 7.98011H112.224L108.312 19ZM108.925 13.8864H115.624V15.2926H108.925V13.8864ZM129.425 5.29545L125.206 20.9688H123.825L128.044 5.29545H129.425ZM139.88 14.3977L131.647 18.5909V16.9545L137.963 13.9119L137.912 14.0142V13.7585L137.963 13.8608L131.647 10.8182V9.18182L139.88 13.375V14.3977Z" fill="url(#paint0_linear_58_40)"/>
<path d="M1.81534 13.1705V12.1477L10.0483 7.95455V9.59091L3.73295 12.6335L3.78409 12.5312V12.7869L3.73295 12.6847L10.0483 15.7273V17.3636L1.81534 13.1705ZM13.4505 19V5.90909H15.0357V17.5938H21.1209V19H13.4505ZM32.1664 5.90909H33.7516V14.5767C33.7516 15.4716 33.5407 16.2706 33.1188 16.9737C32.7012 17.6726 32.111 18.2244 31.3482 18.6293C30.5854 19.0298 29.6905 19.2301 28.6635 19.2301C27.6365 19.2301 26.7417 19.0298 25.9789 18.6293C25.2161 18.2244 24.6238 17.6726 24.2019 16.9737C23.7843 16.2706 23.5755 15.4716 23.5755 14.5767V5.90909H25.1607V14.4489C25.1607 15.0881 25.3013 15.657 25.5826 16.1555C25.8638 16.6499 26.2644 17.0398 26.7843 17.3253C27.3084 17.6065 27.9348 17.7472 28.6635 17.7472C29.3922 17.7472 30.0186 17.6065 30.5428 17.3253C31.0669 17.0398 31.4675 16.6499 31.7445 16.1555C32.0257 15.657 32.1664 15.0881 32.1664 14.4489V5.90909ZM38.5025 5.90909V19H36.9173V5.90909H38.5025ZM41.2463 19V17.8494L48.3031 7.31534H41.1696V5.90909H50.1951V7.05966L43.1383 17.5938H50.2718V19H41.2463ZM65.1525 9.18182C65.0758 8.53409 64.7647 8.03125 64.2193 7.6733C63.6738 7.31534 63.0048 7.13636 62.2122 7.13636C61.6326 7.13636 61.1255 7.23011 60.6909 7.41761C60.2605 7.60511 59.9238 7.86293 59.6809 8.19105C59.4423 8.51918 59.323 8.89204 59.323 9.30966C59.323 9.65909 59.4061 9.95952 59.5723 10.2109C59.7427 10.4581 59.96 10.6648 60.2243 10.831C60.4885 10.9929 60.7654 11.1271 61.0552 11.2337C61.345 11.3359 61.6113 11.419 61.8542 11.483L63.1838 11.8409C63.5247 11.9304 63.9039 12.054 64.3216 12.2116C64.7434 12.3693 65.1461 12.5845 65.5297 12.8572C65.9174 13.1257 66.237 13.4709 66.4885 13.8928C66.7399 14.3146 66.8656 14.8324 66.8656 15.446C66.8656 16.1534 66.6802 16.7926 66.3095 17.3636C65.943 17.9347 65.4061 18.3885 64.6987 18.7251C63.9956 19.0618 63.1412 19.2301 62.1355 19.2301C61.198 19.2301 60.3862 19.0788 59.7001 18.7763C59.0183 18.4737 58.4814 18.0518 58.0893 17.5107C57.7015 16.9695 57.4821 16.3409 57.4309 15.625H59.0673C59.1099 16.1193 59.2761 16.5284 59.5659 16.8523C59.8599 17.1719 60.2306 17.4105 60.6781 17.5682C61.1298 17.7216 61.6156 17.7983 62.1355 17.7983C62.7406 17.7983 63.2839 17.7003 63.7654 17.5043C64.247 17.304 64.6284 17.027 64.9096 16.6733C65.1909 16.3153 65.3315 15.8977 65.3315 15.4205C65.3315 14.9858 65.2101 14.6321 64.9672 14.3594C64.7243 14.0866 64.4047 13.8651 64.0083 13.6946C63.612 13.5241 63.1838 13.375 62.7235 13.2472L61.1127 12.7869C60.09 12.4929 59.2804 12.0732 58.6838 11.5277C58.0872 10.9822 57.7889 10.2685 57.7889 9.38636C57.7889 8.65341 57.987 8.0142 58.3833 7.46875C58.7839 6.91903 59.3208 6.4929 59.9941 6.19034C60.6717 5.88352 61.4281 5.73011 62.2633 5.73011C63.1071 5.73011 63.8571 5.88139 64.5133 6.18395C65.1696 6.48224 65.6895 6.89133 66.073 7.41122C66.4608 7.93111 66.6653 8.52131 66.6866 9.18182H65.1525ZM80.5174 12.4545C80.5174 13.8352 80.2681 15.0284 79.7695 16.0341C79.271 17.0398 78.587 17.8153 77.7177 18.3608C76.8484 18.9062 75.8555 19.179 74.739 19.179C73.6225 19.179 72.6296 18.9062 71.7603 18.3608C70.891 17.8153 70.207 17.0398 69.7085 16.0341C69.2099 15.0284 68.9606 13.8352 68.9606 12.4545C68.9606 11.0739 69.2099 9.88068 69.7085 8.875C70.207 7.86932 70.891 7.09375 71.7603 6.5483C72.6296 6.00284 73.6225 5.73011 74.739 5.73011C75.8555 5.73011 76.8484 6.00284 77.7177 6.5483C78.587 7.09375 79.271 7.86932 79.7695 8.875C80.2681 9.88068 80.5174 11.0739 80.5174 12.4545ZM78.9833 12.4545C78.9833 11.321 78.7937 10.3643 78.4144 9.58452C78.0394 8.80469 77.5302 8.21449 76.8867 7.81392C76.2475 7.41335 75.5316 7.21307 74.739 7.21307C73.9464 7.21307 73.2283 7.41335 72.5849 7.81392C71.9457 8.21449 71.4364 8.80469 71.0572 9.58452C70.6822 10.3643 70.4947 11.321 70.4947 12.4545C70.4947 13.5881 70.6822 14.5447 71.0572 15.3246C71.4364 16.1044 71.9457 16.6946 72.5849 17.0952C73.2283 17.4957 73.9464 17.696 74.739 17.696C75.5316 17.696 76.2475 17.4957 76.8867 17.0952C77.5302 16.6946 78.0394 16.1044 78.4144 15.3246C78.7937 14.5447 78.9833 13.5881 78.9833 12.4545ZM91.7738 5.90909H93.359V14.5767C93.359 15.4716 93.1481 16.2706 92.7262 16.9737C92.3086 17.6726 91.7184 18.2244 90.9556 18.6293C90.1928 19.0298 89.2979 19.2301 88.271 19.2301C87.244 19.2301 86.3491 19.0298 85.5863 18.6293C84.8235 18.2244 84.2312 17.6726 83.8093 16.9737C83.3917 16.2706 83.1829 15.4716 83.1829 14.5767V5.90909H84.7681V14.4489C84.7681 15.0881 84.9087 15.657 85.19 16.1555C85.4712 16.6499 85.8718 17.0398 86.3917 17.3253C86.9158 17.6065 87.5423 17.7472 88.271 17.7472C88.9996 17.7472 89.6261 17.6065 90.1502 17.3253C90.6744 17.0398 91.0749 16.6499 91.3519 16.1555C91.6332 15.657 91.7738 15.0881 91.7738 14.4489V5.90909ZM96.09 19V17.8494L103.147 7.31534H96.0133V5.90909H105.039V7.05966L97.9821 17.5938H105.116V19H96.09ZM108.312 19H106.65L111.456 5.90909H113.093L117.9 19H116.238L112.326 7.98011H112.224L108.312 19ZM108.925 13.8864H115.624V15.2926H108.925V13.8864ZM129.425 5.29545L125.206 20.9688H123.825L128.044 5.29545H129.425ZM139.88 14.3977L131.647 18.5909V16.9545L137.963 13.9119L137.912 14.0142V13.7585L137.963 13.8608L131.647 10.8182V9.18182L139.88 13.375V14.3977Z" fill="url(#paint1_linear_58_40)"/>
<path d="M1.81534 13.1705H1.71534V13.2317L1.76996 13.2596L1.81534 13.1705ZM1.81534 12.1477L1.76996 12.0586L1.71534 12.0864V12.1477H1.81534ZM10.0483 7.95455H10.1483V7.79139L10.0029 7.86544L10.0483 7.95455ZM10.0483 9.59091L10.0917 9.681L10.1483 9.65373V9.59091H10.0483ZM3.73295 12.6335L3.64351 12.5888L3.51256 12.8507L3.77636 12.7236L3.73295 12.6335ZM3.78409 12.5312H3.88409L3.69465 12.4865L3.78409 12.5312ZM3.78409 12.7869L3.69465 12.8317L3.88409 12.7869H3.78409ZM3.73295 12.6847L3.77636 12.5946L3.51256 12.4675L3.64351 12.7294L3.73295 12.6847ZM10.0483 15.7273H10.1483V15.6645L10.0917 15.6372L10.0483 15.7273ZM10.0483 17.3636L10.0029 17.4527L10.1483 17.5268V17.3636H10.0483ZM1.91534 13.1705V12.1477H1.71534V13.1705H1.91534ZM1.86073 12.2368L10.0937 8.04365L10.0029 7.86544L1.76996 12.0586L1.86073 12.2368ZM9.9483 7.95455V9.59091H10.1483V7.95455H9.9483ZM10.0049 9.50082L3.68955 12.5434L3.77636 12.7236L10.0917 9.681L10.0049 9.50082ZM3.8224 12.6782L3.87353 12.576L3.69465 12.4865L3.64351 12.5888L3.8224 12.6782ZM3.68409 12.5312V12.7869H3.88409V12.5312H3.68409ZM3.87353 12.7422L3.8224 12.6399L3.64351 12.7294L3.69465 12.8317L3.87353 12.7422ZM3.68955 12.7747L10.0049 15.8174L10.0917 15.6372L3.77636 12.5946L3.68955 12.7747ZM9.9483 15.7273V17.3636H10.1483V15.7273H9.9483ZM10.0937 17.2745L1.86073 13.0813L1.76996 13.2596L10.0029 17.4527L10.0937 17.2745ZM13.4505 19H13.3505V19.1H13.4505V19ZM13.4505 5.90909V5.80909H13.3505V5.90909H13.4505ZM15.0357 5.90909H15.1357V5.80909H15.0357V5.90909ZM15.0357 17.5938H14.9357V17.6938H15.0357V17.5938ZM21.1209 17.5938H21.2209V17.4937H21.1209V17.5938ZM21.1209 19V19.1H21.2209V19H21.1209ZM13.5505 19V5.90909H13.3505V19H13.5505ZM13.4505 6.00909H15.0357V5.80909H13.4505V6.00909ZM14.9357 5.90909V17.5938H15.1357V5.90909H14.9357ZM15.0357 17.6938H21.1209V17.4937H15.0357V17.6938ZM21.0209 17.5938V19H21.2209V17.5938H21.0209ZM21.1209 18.9H13.4505V19.1H21.1209V18.9ZM32.1664 5.90909V5.80909H32.0664V5.90909H32.1664ZM33.7516 5.90909H33.8516V5.80909H33.7516V5.90909ZM33.1188 16.9737L33.033 16.9223L33.0329 16.9224L33.1188 16.9737ZM31.3482 18.6293L31.3947 18.7178L31.3951 18.7176L31.3482 18.6293ZM25.9789 18.6293L25.932 18.7176L25.9324 18.7178L25.9789 18.6293ZM24.2019 16.9737L24.1159 17.0248L24.1163 17.0254L24.2019 16.9737ZM23.5755 5.90909V5.80909H23.4755V5.90909H23.5755ZM25.1607 5.90909H25.2607V5.80909H25.1607V5.90909ZM25.5826 16.1555L25.4955 16.2047L25.4956 16.205L25.5826 16.1555ZM26.7843 17.3253L26.7361 17.4129L26.737 17.4134L26.7843 17.3253ZM30.5428 17.3253L30.5901 17.4134L30.5906 17.4131L30.5428 17.3253ZM31.7445 16.1555L31.6574 16.1064L31.6573 16.1067L31.7445 16.1555ZM32.1664 6.00909H33.7516V5.80909H32.1664V6.00909ZM33.6516 5.90909V14.5767H33.8516V5.90909H33.6516ZM33.6516 14.5767C33.6516 15.4552 33.4447 16.2361 33.033 16.9223L33.2045 17.0252C33.6366 16.3051 33.8516 15.488 33.8516 14.5767H33.6516ZM33.0329 16.9224C32.6253 17.6047 32.049 18.1441 31.3013 18.5409L31.3951 18.7176C32.173 18.3047 32.7771 17.7405 33.2046 17.025L33.0329 16.9224ZM31.3017 18.5407C30.5558 18.9324 29.6774 19.1301 28.6635 19.1301V19.3301C29.7036 19.3301 30.615 19.1272 31.3947 18.7178L31.3017 18.5407ZM28.6635 19.1301C27.6496 19.1301 26.7713 18.9324 26.0254 18.5407L25.9324 18.7178C26.712 19.1272 27.6234 19.3301 28.6635 19.3301V19.1301ZM26.0258 18.5409C25.278 18.1441 24.6995 17.6045 24.2875 16.922L24.1163 17.0254C24.548 17.7407 25.1542 18.3048 25.932 18.7176L26.0258 18.5409ZM24.2879 16.9227C23.8803 16.2364 23.6755 15.4554 23.6755 14.5767H23.4755C23.4755 15.4878 23.6883 16.3048 24.1159 17.0248L24.2879 16.9227ZM23.6755 14.5767V5.90909H23.4755V14.5767H23.6755ZM23.5755 6.00909H25.1607V5.80909H23.5755V6.00909ZM25.0607 5.90909V14.4489H25.2607V5.90909H25.0607ZM25.0607 14.4489C25.0607 15.1032 25.2048 15.6894 25.4955 16.2047L25.6697 16.1064C25.3978 15.6245 25.2607 15.0729 25.2607 14.4489H25.0607ZM25.4956 16.205C25.7864 16.7161 26.2008 17.1189 26.7361 17.4129L26.8324 17.2376C26.328 16.9606 25.9412 16.5836 25.6695 16.1061L25.4956 16.205ZM26.737 17.4134C27.2786 17.704 27.922 17.8472 28.6635 17.8472V17.6472C27.9477 17.6472 27.3382 17.509 26.8316 17.2372L26.737 17.4134ZM28.6635 17.8472C29.4051 17.8472 30.0485 17.704 30.5901 17.4134L30.4955 17.2372C29.9888 17.509 29.3794 17.6472 28.6635 17.6472V17.8472ZM30.5906 17.4131C31.1304 17.1191 31.545 16.7161 31.8317 16.2044L31.6573 16.1067C31.39 16.5837 31.0035 16.9605 30.495 17.2375L30.5906 17.4131ZM31.8316 16.2047C32.1223 15.6894 32.2664 15.1032 32.2664 14.4489H32.0664C32.0664 15.0729 31.9292 15.6245 31.6574 16.1064L31.8316 16.2047ZM32.2664 14.4489V5.90909H32.0664V14.4489H32.2664ZM38.5025 5.90909H38.6025V5.80909H38.5025V5.90909ZM38.5025 19V19.1H38.6025V19H38.5025ZM36.9173 19H36.8173V19.1H36.9173V19ZM36.9173 5.90909V5.80909H36.8173V5.90909H36.9173ZM38.4025 5.90909V19H38.6025V5.90909H38.4025ZM38.5025 18.9H36.9173V19.1H38.5025V18.9ZM37.0173 19V5.90909H36.8173V19H37.0173ZM36.9173 6.00909H38.5025V5.80909H36.9173V6.00909ZM41.2463 19H41.1463V19.1H41.2463V19ZM41.2463 17.8494L41.1632 17.7938L41.1463 17.819V17.8494H41.2463ZM48.3031 7.31534L48.3862 7.371L48.4904 7.21534H48.3031V7.31534ZM41.1696 7.31534H41.0696V7.41534H41.1696V7.31534ZM41.1696 5.90909V5.80909H41.0696V5.90909H41.1696ZM50.1951 5.90909H50.2951V5.80909H50.1951V5.90909ZM50.1951 7.05966L50.2782 7.11531L50.2951 7.09006V7.05966H50.1951ZM43.1383 17.5938L43.0552 17.5381L42.951 17.6938H43.1383V17.5938ZM50.2718 17.5938H50.3718V17.4937H50.2718V17.5938ZM50.2718 19V19.1H50.3718V19H50.2718ZM41.3463 19V17.8494H41.1463V19H41.3463ZM41.3294 17.9051L48.3862 7.371L48.22 7.25968L41.1632 17.7938L41.3294 17.9051ZM48.3031 7.21534H41.1696V7.41534H48.3031V7.21534ZM41.2696 7.31534V5.90909H41.0696V7.31534H41.2696ZM41.1696 6.00909H50.1951V5.80909H41.1696V6.00909ZM50.0951 5.90909V7.05966H50.2951V5.90909H50.0951ZM50.1121 7.004L43.0552 17.5381L43.2214 17.6494L50.2782 7.11531L50.1121 7.004ZM43.1383 17.6938H50.2718V17.4937H43.1383V17.6938ZM50.1718 17.5938V19H50.3718V17.5938H50.1718ZM50.2718 18.9H41.2463V19.1H50.2718V18.9ZM65.1525 9.18182L65.0532 9.19358L65.0637 9.28182H65.1525V9.18182ZM64.2193 7.6733L64.1644 7.7569L64.1644 7.7569L64.2193 7.6733ZM60.6909 7.41761L60.6513 7.32579L60.6509 7.32594L60.6909 7.41761ZM59.6809 8.19105L59.6006 8.13155L59.6001 8.13223L59.6809 8.19105ZM59.5723 10.2109L59.4888 10.2661L59.4899 10.2677L59.5723 10.2109ZM60.2243 10.831L60.171 10.9156L60.172 10.9162L60.2243 10.831ZM61.0552 11.2337L61.0207 11.3275L61.0219 11.328L61.0552 11.2337ZM61.8542 11.483L61.8802 11.3864L61.8797 11.3862L61.8542 11.483ZM63.1838 11.8409L63.1578 11.9375L63.1584 11.9376L63.1838 11.8409ZM64.3216 12.2116L64.2862 12.3052L64.2865 12.3053L64.3216 12.2116ZM65.5297 12.8572L65.4717 12.9387L65.4727 12.9395L65.5297 12.8572ZM66.4885 13.8928L66.5744 13.8416L66.5744 13.8416L66.4885 13.8928ZM66.3095 17.3636L66.2256 17.3092L66.2253 17.3096L66.3095 17.3636ZM64.6987 18.7251L64.6557 18.6348L64.6555 18.6349L64.6987 18.7251ZM59.7001 18.7763L59.6595 18.8677L59.6598 18.8678L59.7001 18.7763ZM58.0893 17.5107L58.008 17.5689L58.0083 17.5693L58.0893 17.5107ZM57.4309 15.625V15.525H57.3235L57.3312 15.6321L57.4309 15.625ZM59.0673 15.625L59.1669 15.6164L59.159 15.525H59.0673V15.625ZM59.5659 16.8523L59.4913 16.919L59.4923 16.92L59.5659 16.8523ZM60.6781 17.5682L60.6449 17.6625L60.6459 17.6629L60.6781 17.5682ZM63.7654 17.5043L63.8032 17.5969L63.8039 17.5966L63.7654 17.5043ZM64.9096 16.6733L64.9879 16.7355L64.9883 16.7351L64.9096 16.6733ZM64.9672 14.3594L65.0418 14.2929L65.0418 14.2929L64.9672 14.3594ZM64.0083 13.6946L63.9688 13.7865L63.9688 13.7865L64.0083 13.6946ZM62.7235 13.2472L62.6961 13.3433L62.6968 13.3435L62.7235 13.2472ZM61.1127 12.7869L61.0851 12.883L61.0853 12.8831L61.1127 12.7869ZM58.6838 11.5277L58.6163 11.6015L58.6163 11.6015L58.6838 11.5277ZM58.3833 7.46875L58.3025 7.40986L58.3024 7.40997L58.3833 7.46875ZM59.9941 6.19034L60.0351 6.28155L60.0354 6.28144L59.9941 6.19034ZM64.5133 6.18395L64.4714 6.27476L64.4719 6.27498L64.5133 6.18395ZM66.073 7.41122L65.9925 7.47059L65.9928 7.47101L66.073 7.41122ZM66.6866 9.18182V9.28182H66.7899L66.7866 9.17859L66.6866 9.18182ZM65.2518 9.17006C65.1716 8.49299 64.8443 7.96385 64.2741 7.58969L64.1644 7.7569C64.6852 8.09865 64.98 8.5752 65.0532 9.19358L65.2518 9.17006ZM64.2741 7.58969C63.7092 7.21893 63.0201 7.03636 62.2122 7.03636V7.23636C62.9895 7.23636 63.6385 7.41175 64.1644 7.7569L64.2741 7.58969ZM62.2122 7.03636C61.622 7.03636 61.1009 7.13183 60.6513 7.32579L60.7305 7.50943C61.1502 7.3284 61.6433 7.23636 62.2122 7.23636V7.03636ZM60.6509 7.32594C60.2069 7.51937 59.8554 7.78735 59.6006 8.13155L59.7613 8.25055C59.9923 7.9385 60.314 7.69086 60.7308 7.50929L60.6509 7.32594ZM59.6001 8.13223C59.3486 8.47798 59.223 8.87157 59.223 9.30966H59.423C59.423 8.91252 59.536 8.56037 59.7618 8.24987L59.6001 8.13223ZM59.223 9.30966C59.223 9.6755 59.3102 9.99582 59.4888 10.2661L59.6557 10.1558C59.5019 9.92321 59.423 9.64268 59.423 9.30966H59.223ZM59.4899 10.2677C59.6684 10.5265 59.8958 10.7425 60.171 10.9156L60.2775 10.7463C60.0243 10.5871 59.817 10.3897 59.6546 10.1542L59.4899 10.2677ZM60.172 10.9162C60.4418 11.0816 60.7247 11.2187 61.0207 11.3275L61.0897 11.1398C60.8062 11.0356 60.5351 10.9042 60.2765 10.7457L60.172 10.9162ZM61.0219 11.328C61.3137 11.431 61.5827 11.5149 61.8288 11.5797L61.8797 11.3862C61.6399 11.3232 61.3762 11.2409 61.0885 11.1394L61.0219 11.328ZM61.8282 11.5795L63.1578 11.9375L63.2098 11.7443L61.8802 11.3864L61.8282 11.5795ZM63.1584 11.9376C63.4952 12.026 63.8711 12.1485 64.2862 12.3052L64.3569 12.1181C63.9368 11.9595 63.5542 11.8348 63.2092 11.7442L63.1584 11.9376ZM64.2865 12.3053C64.6999 12.4598 65.0949 12.6708 65.4717 12.9387L65.5876 12.7757C65.1973 12.4982 64.7869 12.2788 64.3566 12.118L64.2865 12.3053ZM65.4727 12.9395C65.8483 13.1994 66.1582 13.5339 66.4026 13.9439L66.5744 13.8416C66.3159 13.4079 65.9866 13.052 65.5866 12.775L65.4727 12.9395ZM66.4026 13.9439C66.6427 14.3469 66.7656 14.846 66.7656 15.446H66.9656C66.9656 14.8188 66.8371 14.2823 66.5744 13.8416L66.4026 13.9439ZM66.7656 15.446C66.7656 16.1349 66.5854 16.755 66.2256 17.3092L66.3934 17.4181C66.775 16.8302 66.9656 16.1719 66.9656 15.446H66.7656ZM66.2253 17.3096C65.8704 17.8626 65.3489 18.305 64.6557 18.6348L64.7417 18.8154C65.4632 18.472 66.0156 18.0067 66.3936 17.4176L66.2253 17.3096ZM64.6555 18.6349C63.9692 18.9636 63.1304 19.1301 62.1355 19.1301V19.3301C63.1519 19.3301 64.0219 19.16 64.7419 18.8153L64.6555 18.6349ZM62.1355 19.1301C61.2085 19.1301 60.4111 18.9805 59.7405 18.6848L59.6598 18.8678C60.3613 19.1772 61.1875 19.3301 62.1355 19.3301V19.1301ZM59.7407 18.6849C59.0731 18.3886 58.5508 17.9773 58.1703 17.452L58.0083 17.5693C58.4119 18.1264 58.9635 18.5588 59.6595 18.8677L59.7407 18.6849ZM58.1706 17.4524C57.7944 16.9274 57.5806 16.3169 57.5307 15.6179L57.3312 15.6321C57.3835 16.365 57.6086 17.0115 58.008 17.5689L58.1706 17.4524ZM57.4309 15.725H59.0673V15.525H57.4309V15.725ZM58.9677 15.6336C59.0119 16.1463 59.1851 16.5767 59.4913 16.919L59.6404 16.7856C59.3671 16.4801 59.208 16.0924 59.1669 15.6164L58.9677 15.6336ZM59.4923 16.92C59.7984 17.2527 60.1834 17.4999 60.6449 17.6625L60.7113 17.4739C60.2779 17.3211 59.9214 17.091 59.6395 16.7846L59.4923 16.92ZM60.6459 17.6629C61.1089 17.8201 61.6056 17.8983 62.1355 17.8983V17.6983C61.6255 17.6983 61.1507 17.6231 60.7102 17.4735L60.6459 17.6629ZM62.1355 17.8983C62.7514 17.8983 63.3078 17.7985 63.8032 17.5969L63.7277 17.4116C63.26 17.6021 62.7298 17.6983 62.1355 17.6983V17.8983ZM63.8039 17.5966C64.2986 17.3908 64.6946 17.1044 64.9879 16.7355L64.8314 16.6111C64.5622 16.9496 64.1954 17.2171 63.727 17.4119L63.8039 17.5966ZM64.9883 16.7351C65.2841 16.3586 65.4315 15.919 65.4315 15.4205H65.2315C65.2315 15.8765 65.0977 16.2721 64.831 16.6115L64.9883 16.7351ZM65.4315 15.4205C65.4315 14.9662 65.304 14.5873 65.0418 14.2929L64.8925 14.4259C65.1161 14.6769 65.2315 15.0054 65.2315 15.4205H65.4315ZM65.0418 14.2929C64.7876 14.0074 64.4552 13.7779 64.0479 13.6027L63.9688 13.7865C64.3541 13.9522 64.6609 14.1659 64.8925 14.4259L65.0418 14.2929ZM64.0479 13.6027C63.647 13.4303 63.2144 13.2797 62.7503 13.1508L62.6968 13.3435C63.1531 13.4703 63.5771 13.618 63.9688 13.7865L64.0479 13.6027ZM62.751 13.151L61.1402 12.6908L61.0853 12.8831L62.6961 13.3433L62.751 13.151ZM61.1404 12.6908C60.128 12.3998 59.3334 11.9862 58.7512 11.4539L58.6163 11.6015C59.2273 12.1601 60.0521 12.586 61.0851 12.883L61.1404 12.6908ZM58.7512 11.4539C58.1774 10.9292 57.8889 10.2433 57.8889 9.38636H57.6889C57.6889 10.2937 57.997 11.0353 58.6163 11.6015L58.7512 11.4539ZM57.8889 9.38636C57.8889 8.67259 58.0814 8.05439 58.4642 7.52753L58.3024 7.40997C57.8926 7.97402 57.6889 8.63423 57.6889 9.38636H57.8889ZM58.4642 7.52764C58.8536 6.99316 59.3763 6.57761 60.0351 6.28155L59.9532 6.09913C59.2654 6.40819 58.7142 6.8449 58.3025 7.40986L58.4642 7.52764ZM60.0354 6.28144C60.6985 5.98117 61.4406 5.83011 62.2633 5.83011V5.63011C61.4156 5.63011 60.6449 5.78588 59.9529 6.09925L60.0354 6.28144ZM62.2633 5.83011C63.095 5.83011 63.8303 5.97919 64.4714 6.27476L64.5552 6.09314C63.8838 5.78359 63.1191 5.63011 62.2633 5.63011V5.83011ZM64.4719 6.27498C65.1145 6.56706 65.6202 6.96595 65.9925 7.47059L66.1534 7.35186C65.7587 6.81672 65.2246 6.39743 64.5547 6.09291L64.4719 6.27498ZM65.9928 7.47101C66.3681 7.97418 66.566 8.54455 66.5867 9.18504L66.7866 9.17859C66.7646 8.49806 66.5534 7.88803 66.1531 7.35143L65.9928 7.47101ZM66.6866 9.08182H65.1525V9.28182H66.6866V9.08182ZM79.7695 16.0341L79.6799 15.9897L79.6799 15.9897L79.7695 16.0341ZM77.7177 18.3608L77.7708 18.4455L77.7708 18.4455L77.7177 18.3608ZM71.7603 18.3608L71.7071 18.4455L71.7071 18.4455L71.7603 18.3608ZM69.7085 16.0341L69.798 15.9897L69.798 15.9897L69.7085 16.0341ZM77.7177 6.5483L77.7708 6.46359L77.7708 6.46359L77.7177 6.5483ZM79.7695 8.875L79.6799 8.91942L79.6799 8.91942L79.7695 8.875ZM78.4144 9.58452L78.3243 9.62785L78.3245 9.62825L78.4144 9.58452ZM76.8867 7.81392L76.8336 7.89866L76.8339 7.89881L76.8867 7.81392ZM72.5849 7.81392L72.532 7.72903L72.5318 7.72918L72.5849 7.81392ZM71.0572 9.58452L70.9672 9.54078L70.9671 9.54118L71.0572 9.58452ZM71.0572 15.3246L70.9671 15.3679L70.9672 15.3683L71.0572 15.3246ZM72.5849 17.0952L72.5318 17.1799L72.532 17.1801L72.5849 17.0952ZM76.8867 17.0952L76.8339 17.0103L76.8336 17.0104L76.8867 17.0952ZM78.4144 15.3246L78.3245 15.2808L78.3243 15.2812L78.4144 15.3246ZM80.4174 12.4545C80.4174 13.8233 80.1703 15.0006 79.6799 15.9897L79.8591 16.0785C80.3659 15.0562 80.6174 13.8472 80.6174 12.4545H80.4174ZM79.6799 15.9897C79.1888 16.9804 78.5168 17.7414 77.6645 18.2761L77.7708 18.4455C78.6572 17.8893 79.3531 17.0991 79.8591 16.0785L79.6799 15.9897ZM77.6645 18.2761C76.8125 18.8107 75.8384 19.079 74.739 19.079V19.279C75.8726 19.279 76.8842 19.0018 77.7708 18.4455L77.6645 18.2761ZM74.739 19.079C73.6396 19.079 72.6654 18.8107 71.8134 18.2761L71.7071 18.4455C72.5938 19.0018 73.6054 19.279 74.739 19.279V19.079ZM71.8134 18.2761C70.9612 17.7414 70.2892 16.9804 69.798 15.9897L69.6189 16.0785C70.1248 17.0991 70.8207 17.8893 71.7071 18.4455L71.8134 18.2761ZM69.798 15.9897C69.3077 15.0006 69.0606 13.8233 69.0606 12.4545H68.8606C68.8606 13.8472 69.112 15.0562 69.6189 16.0785L69.798 15.9897ZM69.0606 12.4545C69.0606 11.0858 69.3077 9.90848 69.798 8.91942L69.6189 8.83058C69.112 9.85288 68.8606 11.0619 68.8606 12.4545H69.0606ZM69.798 8.91942C70.2892 7.92867 70.9612 7.16774 71.8134 6.633L71.7071 6.46359C70.8207 7.01976 70.1248 7.80997 69.6189 8.83058L69.798 8.91942ZM71.8134 6.633C72.6654 6.09841 73.6396 5.83011 74.739 5.83011V5.63011C73.6054 5.63011 72.5938 5.90727 71.7071 6.46359L71.8134 6.633ZM74.739 5.83011C75.8384 5.83011 76.8125 6.09841 77.6645 6.633L77.7708 6.46359C76.8842 5.90727 75.8726 5.63011 74.739 5.63011V5.83011ZM77.6645 6.633C78.5168 7.16774 79.1888 7.92867 79.6799 8.91942L79.8591 8.83058C79.3531 7.80997 78.6572 7.01976 77.7708 6.46359L77.6645 6.633ZM79.6799 8.91942C80.1703 9.90848 80.4174 11.0858 80.4174 12.4545H80.6174C80.6174 11.0619 80.3659 9.85288 79.8591 8.83058L79.6799 8.91942ZM79.0833 12.4545C79.0833 11.3103 78.8919 10.3378 78.5043 9.54078L78.3245 9.62825C78.6954 10.3909 78.8833 11.3317 78.8833 12.4545H79.0833ZM78.5045 9.54118C78.1225 8.74673 77.6013 8.14099 76.9396 7.72903L76.8339 7.89881C77.459 8.28799 77.9563 8.86265 78.3243 9.62785L78.5045 9.54118ZM76.9398 7.72918C76.2839 7.31812 75.5494 7.11307 74.739 7.11307V7.31307C75.5138 7.31307 76.2112 7.50858 76.8336 7.89866L76.9398 7.72918ZM74.739 7.11307C73.9286 7.11307 73.1921 7.31812 72.532 7.72903L72.6377 7.89881C73.2646 7.50858 73.9642 7.31307 74.739 7.31307V7.11307ZM72.5318 7.72918C71.8744 8.14112 71.3534 8.74668 70.9672 9.54078L71.1471 9.62825C71.5194 8.8627 72.0169 8.28786 72.638 7.89866L72.5318 7.72918ZM70.9671 9.54118C70.5839 10.338 70.3947 11.3105 70.3947 12.4545H70.5947C70.5947 11.3316 70.7805 10.3906 71.1473 9.62785L70.9671 9.54118ZM70.3947 12.4545C70.3947 13.5986 70.5839 14.571 70.9671 15.3679L71.1473 15.2812C70.7805 14.5184 70.5947 13.5775 70.5947 12.4545H70.3947ZM70.9672 15.3683C71.3534 16.1624 71.8744 16.768 72.5318 17.1799L72.638 17.0104C72.0169 16.6212 71.5194 16.0464 71.1471 15.2808L70.9672 15.3683ZM72.532 17.1801C73.1921 17.591 73.9286 17.796 74.739 17.796V17.596C73.9642 17.596 73.2646 17.4005 72.6377 17.0103L72.532 17.1801ZM74.739 17.796C75.5494 17.796 76.2839 17.591 76.9398 17.1799L76.8336 17.0104C76.2112 17.4005 75.5138 17.596 74.739 17.596V17.796ZM76.9396 17.1801C77.6013 16.7681 78.1225 16.1624 78.5045 15.3679L78.3243 15.2812C77.9563 16.0464 77.459 16.6211 76.8339 17.0103L76.9396 17.1801ZM78.5043 15.3683C78.8919 14.5713 79.0833 13.5987 79.0833 12.4545H78.8833C78.8833 13.5774 78.6954 14.5182 78.3245 15.2808L78.5043 15.3683ZM91.7738 5.90909V5.80909H91.6738V5.90909H91.7738ZM93.359 5.90909H93.459V5.80909H93.359V5.90909ZM92.7262 16.9737L92.6405 16.9223L92.6404 16.9224L92.7262 16.9737ZM90.9556 18.6293L91.0021 18.7178L91.0025 18.7176L90.9556 18.6293ZM85.5863 18.6293L85.5394 18.7176L85.5398 18.7178L85.5863 18.6293ZM83.8093 16.9737L83.7233 17.0248L83.7237 17.0254L83.8093 16.9737ZM83.1829 5.90909V5.80909H83.0829V5.90909H83.1829ZM84.7681 5.90909H84.8681V5.80909H84.7681V5.90909ZM85.19 16.1555L85.1029 16.2047L85.1031 16.205L85.19 16.1555ZM86.3917 17.3253L86.3436 17.4129L86.3444 17.4134L86.3917 17.3253ZM90.1502 17.3253L90.1975 17.4134L90.198 17.4131L90.1502 17.3253ZM91.3519 16.1555L91.2648 16.1064L91.2647 16.1067L91.3519 16.1555ZM91.7738 6.00909H93.359V5.80909H91.7738V6.00909ZM93.259 5.90909V14.5767H93.459V5.90909H93.259ZM93.259 14.5767C93.259 15.4552 93.0522 16.2361 92.6405 16.9223L92.812 17.0252C93.244 16.3051 93.459 15.488 93.459 14.5767H93.259ZM92.6404 16.9224C92.2327 17.6047 91.6564 18.1441 90.9087 18.5409L91.0025 18.7176C91.7804 18.3047 92.3845 17.7405 92.812 17.025L92.6404 16.9224ZM90.9091 18.5407C90.1632 18.9324 89.2848 19.1301 88.271 19.1301V19.3301C89.311 19.3301 90.2225 19.1272 91.0021 18.7178L90.9091 18.5407ZM88.271 19.1301C87.2571 19.1301 86.3787 18.9324 85.6328 18.5407L85.5398 18.7178C86.3194 19.1272 87.2309 19.3301 88.271 19.3301V19.1301ZM85.6332 18.5409C84.8854 18.1441 84.3069 17.6045 83.8949 16.922L83.7237 17.0254C84.1555 17.7407 84.7616 18.3048 85.5394 18.7176L85.6332 18.5409ZM83.8953 16.9227C83.4877 16.2364 83.2829 15.4554 83.2829 14.5767H83.0829C83.0829 15.4878 83.2957 16.3048 83.7233 17.0248L83.8953 16.9227ZM83.2829 14.5767V5.90909H83.0829V14.5767H83.2829ZM83.1829 6.00909H84.7681V5.80909H83.1829V6.00909ZM84.6681 5.90909V14.4489H84.8681V5.90909H84.6681ZM84.6681 14.4489C84.6681 15.1032 84.8122 15.6894 85.1029 16.2047L85.2771 16.1064C85.0052 15.6245 84.8681 15.0729 84.8681 14.4489H84.6681ZM85.1031 16.205C85.3939 16.7161 85.8082 17.1189 86.3436 17.4129L86.4398 17.2376C85.9354 16.9606 85.5486 16.5836 85.2769 16.1061L85.1031 16.205ZM86.3444 17.4134C86.886 17.704 87.5294 17.8472 88.271 17.8472V17.6472C87.5551 17.6472 86.9457 17.509 86.439 17.2372L86.3444 17.4134ZM88.271 17.8472C89.0125 17.8472 89.6559 17.704 90.1975 17.4134L90.1029 17.2372C89.5962 17.509 88.9868 17.6472 88.271 17.6472V17.8472ZM90.198 17.4131C90.7378 17.1191 91.1525 16.7161 91.4392 16.2044L91.2647 16.1067C90.9974 16.5837 90.6109 16.9605 90.1024 17.2375L90.198 17.4131ZM91.439 16.2047C91.7297 15.6894 91.8738 15.1032 91.8738 14.4489H91.6738C91.6738 15.0729 91.5367 15.6245 91.2648 16.1064L91.439 16.2047ZM91.8738 14.4489V5.90909H91.6738V14.4489H91.8738ZM96.09 19H95.99V19.1H96.09V19ZM96.09 17.8494L96.0069 17.7938L95.99 17.819V17.8494H96.09ZM103.147 7.31534L103.23 7.371L103.334 7.21534H103.147V7.31534ZM96.0133 7.31534H95.9133V7.41534H96.0133V7.31534ZM96.0133 5.90909V5.80909H95.9133V5.90909H96.0133ZM105.039 5.90909H105.139V5.80909H105.039V5.90909ZM105.039 7.05966L105.122 7.11531L105.139 7.09006V7.05966H105.039ZM97.9821 17.5938L97.899 17.5381L97.7947 17.6938H97.9821V17.5938ZM105.116 17.5938H105.216V17.4937H105.116V17.5938ZM105.116 19V19.1H105.216V19H105.116ZM96.19 19V17.8494H95.99V19H96.19ZM96.1731 17.9051L103.23 7.371L103.064 7.25968L96.0069 17.7938L96.1731 17.9051ZM103.147 7.21534H96.0133V7.41534H103.147V7.21534ZM96.1133 7.31534V5.90909H95.9133V7.31534H96.1133ZM96.0133 6.00909H105.039V5.80909H96.0133V6.00909ZM104.939 5.90909V7.05966H105.139V5.90909H104.939ZM104.956 7.004L97.899 17.5381L98.0651 17.6494L105.122 7.11531L104.956 7.004ZM97.9821 17.6938H105.116V17.4937H97.9821V17.6938ZM105.016 17.5938V19H105.216V17.5938H105.016ZM105.116 18.9H96.09V19.1H105.116V18.9ZM108.312 19V19.1H108.382L108.406 19.0335L108.312 19ZM106.65 19L106.556 18.9655L106.506 19.1H106.65V19ZM111.456 5.90909V5.80909H111.387L111.363 5.87462L111.456 5.90909ZM113.093 5.90909L113.187 5.87462L113.163 5.80909H113.093V5.90909ZM117.9 19V19.1H118.043L117.994 18.9655L117.9 19ZM116.238 19L116.144 19.0335L116.167 19.1H116.238V19ZM112.326 7.98011L112.42 7.94666L112.396 7.88011H112.326V7.98011ZM112.224 7.98011V7.88011H112.153L112.129 7.94666L112.224 7.98011ZM108.925 13.8864V13.7864H108.825V13.8864H108.925ZM115.624 13.8864H115.724V13.7864H115.624V13.8864ZM115.624 15.2926V15.3926H115.724V15.2926H115.624ZM108.925 15.2926H108.825V15.3926H108.925V15.2926ZM108.312 18.9H106.65V19.1H108.312V18.9ZM106.744 19.0345L111.55 5.94356L111.363 5.87462L106.556 18.9655L106.744 19.0345ZM111.456 6.00909H113.093V5.80909H111.456V6.00909ZM112.999 5.94356L117.806 19.0345L117.994 18.9655L113.187 5.87462L112.999 5.94356ZM117.9 18.9H116.238V19.1H117.9V18.9ZM116.332 18.9665L112.42 7.94666L112.232 8.01357L116.144 19.0335L116.332 18.9665ZM112.326 7.88011H112.224V8.08011H112.326V7.88011ZM112.129 7.94666L108.217 18.9665L108.406 19.0335L112.318 8.01357L112.129 7.94666ZM108.925 13.9864H115.624V13.7864H108.925V13.9864ZM115.524 13.8864V15.2926H115.724V13.8864H115.524ZM115.624 15.1926H108.925V15.3926H115.624V15.1926ZM109.025 15.2926V13.8864H108.825V15.2926H109.025ZM129.425 5.29545L129.521 5.32145L129.555 5.19545H129.425V5.29545ZM125.206 20.9688V21.0688H125.282L125.302 20.9947L125.206 20.9688ZM123.825 20.9688L123.729 20.9428L123.695 21.0688H123.825V20.9688ZM128.044 5.29545V5.19545H127.967L127.947 5.26946L128.044 5.29545ZM129.328 5.26946L125.109 20.9428L125.302 20.9947L129.521 5.32145L129.328 5.26946ZM125.206 20.8687H123.825V21.0688H125.206V20.8687ZM123.922 20.9947L128.14 5.32145L127.947 5.26946L123.729 20.9428L123.922 20.9947ZM128.044 5.39545H129.425V5.19545H128.044V5.39545ZM139.88 14.3977L139.926 14.4868L139.98 14.459V14.3977H139.88ZM131.647 18.5909H131.547V18.7541L131.693 18.68L131.647 18.5909ZM131.647 16.9545L131.604 16.8645L131.547 16.8917V16.9545H131.647ZM137.963 13.9119L138.052 13.9567L138.183 13.6947L137.919 13.8218L137.963 13.9119ZM137.912 14.0142H137.812L138.001 14.0589L137.912 14.0142ZM137.912 13.7585L138.001 13.7138L137.812 13.7585H137.912ZM137.963 13.8608L137.919 13.9509L138.183 14.078L138.052 13.8161L137.963 13.8608ZM131.647 10.8182H131.547V10.881L131.604 10.9083L131.647 10.8182ZM131.647 9.18182L131.693 9.09271L131.547 9.01866V9.18182H131.647ZM139.88 13.375H139.98V13.3137L139.926 13.2859L139.88 13.375ZM139.835 14.3086L131.602 18.5018L131.693 18.68L139.926 14.4868L139.835 14.3086ZM131.747 18.5909V16.9545H131.547V18.5909H131.747ZM131.691 17.0446L138.006 14.002L137.919 13.8218L131.604 16.8645L131.691 17.0446ZM137.873 13.8672L137.822 13.9695L138.001 14.0589L138.052 13.9567L137.873 13.8672ZM138.012 14.0142V13.7585H137.812V14.0142H138.012ZM137.822 13.8032L137.873 13.9055L138.052 13.8161L138.001 13.7138L137.822 13.8032ZM138.006 13.7707L131.691 10.7281L131.604 10.9083L137.919 13.9509L138.006 13.7707ZM131.747 10.8182V9.18182H131.547V10.8182H131.747ZM131.602 9.27093L139.835 13.4641L139.926 13.2859L131.693 9.09271L131.602 9.27093ZM139.78 13.375V14.3977H139.98V13.375H139.78Z" fill="black" mask="url(#path-1-outside-1_58_40)"/>
<path d="M1.81534 13.1705H1.71534V13.2317L1.76996 13.2596L1.81534 13.1705ZM1.81534 12.1477L1.76996 12.0586L1.71534 12.0864V12.1477H1.81534ZM10.0483 7.95455H10.1483V7.79139L10.0029 7.86544L10.0483 7.95455ZM10.0483 9.59091L10.0917 9.681L10.1483 9.65373V9.59091H10.0483ZM3.73295 12.6335L3.64351 12.5888L3.51256 12.8507L3.77636 12.7236L3.73295 12.6335ZM3.78409 12.5312H3.88409L3.69465 12.4865L3.78409 12.5312ZM3.78409 12.7869L3.69465 12.8317L3.88409 12.7869H3.78409ZM3.73295 12.6847L3.77636 12.5946L3.51256 12.4675L3.64351 12.7294L3.73295 12.6847ZM10.0483 15.7273H10.1483V15.6645L10.0917 15.6372L10.0483 15.7273ZM10.0483 17.3636L10.0029 17.4527L10.1483 17.5268V17.3636H10.0483ZM1.91534 13.1705V12.1477H1.71534V13.1705H1.91534ZM1.86073 12.2368L10.0937 8.04365L10.0029 7.86544L1.76996 12.0586L1.86073 12.2368ZM9.9483 7.95455V9.59091H10.1483V7.95455H9.9483ZM10.0049 9.50082L3.68955 12.5434L3.77636 12.7236L10.0917 9.681L10.0049 9.50082ZM3.8224 12.6782L3.87353 12.576L3.69465 12.4865L3.64351 12.5888L3.8224 12.6782ZM3.68409 12.5312V12.7869H3.88409V12.5312H3.68409ZM3.87353 12.7422L3.8224 12.6399L3.64351 12.7294L3.69465 12.8317L3.87353 12.7422ZM3.68955 12.7747L10.0049 15.8174L10.0917 15.6372L3.77636 12.5946L3.68955 12.7747ZM9.9483 15.7273V17.3636H10.1483V15.7273H9.9483ZM10.0937 17.2745L1.86073 13.0813L1.76996 13.2596L10.0029 17.4527L10.0937 17.2745ZM13.4505 19H13.3505V19.1H13.4505V19ZM13.4505 5.90909V5.80909H13.3505V5.90909H13.4505ZM15.0357 5.90909H15.1357V5.80909H15.0357V5.90909ZM15.0357 17.5938H14.9357V17.6938H15.0357V17.5938ZM21.1209 17.5938H21.2209V17.4937H21.1209V17.5938ZM21.1209 19V19.1H21.2209V19H21.1209ZM13.5505 19V5.90909H13.3505V19H13.5505ZM13.4505 6.00909H15.0357V5.80909H13.4505V6.00909ZM14.9357 5.90909V17.5938H15.1357V5.90909H14.9357ZM15.0357 17.6938H21.1209V17.4937H15.0357V17.6938ZM21.0209 17.5938V19H21.2209V17.5938H21.0209ZM21.1209 18.9H13.4505V19.1H21.1209V18.9ZM32.1664 5.90909V5.80909H32.0664V5.90909H32.1664ZM33.7516 5.90909H33.8516V5.80909H33.7516V5.90909ZM33.1188 16.9737L33.033 16.9223L33.0329 16.9224L33.1188 16.9737ZM31.3482 18.6293L31.3947 18.7178L31.3951 18.7176L31.3482 18.6293ZM25.9789 18.6293L25.932 18.7176L25.9324 18.7178L25.9789 18.6293ZM24.2019 16.9737L24.1159 17.0248L24.1163 17.0254L24.2019 16.9737ZM23.5755 5.90909V5.80909H23.4755V5.90909H23.5755ZM25.1607 5.90909H25.2607V5.80909H25.1607V5.90909ZM25.5826 16.1555L25.4955 16.2047L25.4956 16.205L25.5826 16.1555ZM26.7843 17.3253L26.7361 17.4129L26.737 17.4134L26.7843 17.3253ZM30.5428 17.3253L30.5901 17.4134L30.5906 17.4131L30.5428 17.3253ZM31.7445 16.1555L31.6574 16.1064L31.6573 16.1067L31.7445 16.1555ZM32.1664 6.00909H33.7516V5.80909H32.1664V6.00909ZM33.6516 5.90909V14.5767H33.8516V5.90909H33.6516ZM33.6516 14.5767C33.6516 15.4552 33.4447 16.2361 33.033 16.9223L33.2045 17.0252C33.6366 16.3051 33.8516 15.488 33.8516 14.5767H33.6516ZM33.0329 16.9224C32.6253 17.6047 32.049 18.1441 31.3013 18.5409L31.3951 18.7176C32.173 18.3047 32.7771 17.7405 33.2046 17.025L33.0329 16.9224ZM31.3017 18.5407C30.5558 18.9324 29.6774 19.1301 28.6635 19.1301V19.3301C29.7036 19.3301 30.615 19.1272 31.3947 18.7178L31.3017 18.5407ZM28.6635 19.1301C27.6496 19.1301 26.7713 18.9324 26.0254 18.5407L25.9324 18.7178C26.712 19.1272 27.6234 19.3301 28.6635 19.3301V19.1301ZM26.0258 18.5409C25.278 18.1441 24.6995 17.6045 24.2875 16.922L24.1163 17.0254C24.548 17.7407 25.1542 18.3048 25.932 18.7176L26.0258 18.5409ZM24.2879 16.9227C23.8803 16.2364 23.6755 15.4554 23.6755 14.5767H23.4755C23.4755 15.4878 23.6883 16.3048 24.1159 17.0248L24.2879 16.9227ZM23.6755 14.5767V5.90909H23.4755V14.5767H23.6755ZM23.5755 6.00909H25.1607V5.80909H23.5755V6.00909ZM25.0607 5.90909V14.4489H25.2607V5.90909H25.0607ZM25.0607 14.4489C25.0607 15.1032 25.2048 15.6894 25.4955 16.2047L25.6697 16.1064C25.3978 15.6245 25.2607 15.0729 25.2607 14.4489H25.0607ZM25.4956 16.205C25.7864 16.7161 26.2008 17.1189 26.7361 17.4129L26.8324 17.2376C26.328 16.9606 25.9412 16.5836 25.6695 16.1061L25.4956 16.205ZM26.737 17.4134C27.2786 17.704 27.922 17.8472 28.6635 17.8472V17.6472C27.9477 17.6472 27.3382 17.509 26.8316 17.2372L26.737 17.4134ZM28.6635 17.8472C29.4051 17.8472 30.0485 17.704 30.5901 17.4134L30.4955 17.2372C29.9888 17.509 29.3794 17.6472 28.6635 17.6472V17.8472ZM30.5906 17.4131C31.1304 17.1191 31.545 16.7161 31.8317 16.2044L31.6573 16.1067C31.39 16.5837 31.0035 16.9605 30.495 17.2375L30.5906 17.4131ZM31.8316 16.2047C32.1223 15.6894 32.2664 15.1032 32.2664 14.4489H32.0664C32.0664 15.0729 31.9292 15.6245 31.6574 16.1064L31.8316 16.2047ZM32.2664 14.4489V5.90909H32.0664V14.4489H32.2664ZM38.5025 5.90909H38.6025V5.80909H38.5025V5.90909ZM38.5025 19V19.1H38.6025V19H38.5025ZM36.9173 19H36.8173V19.1H36.9173V19ZM36.9173 5.90909V5.80909H36.8173V5.90909H36.9173ZM38.4025 5.90909V19H38.6025V5.90909H38.4025ZM38.5025 18.9H36.9173V19.1H38.5025V18.9ZM37.0173 19V5.90909H36.8173V19H37.0173ZM36.9173 6.00909H38.5025V5.80909H36.9173V6.00909ZM41.2463 19H41.1463V19.1H41.2463V19ZM41.2463 17.8494L41.1632 17.7938L41.1463 17.819V17.8494H41.2463ZM48.3031 7.31534L48.3862 7.371L48.4904 7.21534H48.3031V7.31534ZM41.1696 7.31534H41.0696V7.41534H41.1696V7.31534ZM41.1696 5.90909V5.80909H41.0696V5.90909H41.1696ZM50.1951 5.90909H50.2951V5.80909H50.1951V5.90909ZM50.1951 7.05966L50.2782 7.11531L50.2951 7.09006V7.05966H50.1951ZM43.1383 17.5938L43.0552 17.5381L42.951 17.6938H43.1383V17.5938ZM50.2718 17.5938H50.3718V17.4937H50.2718V17.5938ZM50.2718 19V19.1H50.3718V19H50.2718ZM41.3463 19V17.8494H41.1463V19H41.3463ZM41.3294 17.9051L48.3862 7.371L48.22 7.25968L41.1632 17.7938L41.3294 17.9051ZM48.3031 7.21534H41.1696V7.41534H48.3031V7.21534ZM41.2696 7.31534V5.90909H41.0696V7.31534H41.2696ZM41.1696 6.00909H50.1951V5.80909H41.1696V6.00909ZM50.0951 5.90909V7.05966H50.2951V5.90909H50.0951ZM50.1121 7.004L43.0552 17.5381L43.2214 17.6494L50.2782 7.11531L50.1121 7.004ZM43.1383 17.6938H50.2718V17.4937H43.1383V17.6938ZM50.1718 17.5938V19H50.3718V17.5938H50.1718ZM50.2718 18.9H41.2463V19.1H50.2718V18.9ZM65.1525 9.18182L65.0532 9.19358L65.0637 9.28182H65.1525V9.18182ZM64.2193 7.6733L64.1644 7.7569L64.1644 7.7569L64.2193 7.6733ZM60.6909 7.41761L60.6513 7.32579L60.6509 7.32594L60.6909 7.41761ZM59.6809 8.19105L59.6006 8.13155L59.6001 8.13223L59.6809 8.19105ZM59.5723 10.2109L59.4888 10.2661L59.4899 10.2677L59.5723 10.2109ZM60.2243 10.831L60.171 10.9156L60.172 10.9162L60.2243 10.831ZM61.0552 11.2337L61.0207 11.3275L61.0219 11.328L61.0552 11.2337ZM61.8542 11.483L61.8802 11.3864L61.8797 11.3862L61.8542 11.483ZM63.1838 11.8409L63.1578 11.9375L63.1584 11.9376L63.1838 11.8409ZM64.3216 12.2116L64.2862 12.3052L64.2865 12.3053L64.3216 12.2116ZM65.5297 12.8572L65.4717 12.9387L65.4727 12.9395L65.5297 12.8572ZM66.4885 13.8928L66.5744 13.8416L66.5744 13.8416L66.4885 13.8928ZM66.3095 17.3636L66.2256 17.3092L66.2253 17.3096L66.3095 17.3636ZM64.6987 18.7251L64.6557 18.6348L64.6555 18.6349L64.6987 18.7251ZM59.7001 18.7763L59.6595 18.8677L59.6598 18.8678L59.7001 18.7763ZM58.0893 17.5107L58.008 17.5689L58.0083 17.5693L58.0893 17.5107ZM57.4309 15.625V15.525H57.3235L57.3312 15.6321L57.4309 15.625ZM59.0673 15.625L59.1669 15.6164L59.159 15.525H59.0673V15.625ZM59.5659 16.8523L59.4913 16.919L59.4923 16.92L59.5659 16.8523ZM60.6781 17.5682L60.6449 17.6625L60.6459 17.6629L60.6781 17.5682ZM63.7654 17.5043L63.8032 17.5969L63.8039 17.5966L63.7654 17.5043ZM64.9096 16.6733L64.9879 16.7355L64.9883 16.7351L64.9096 16.6733ZM64.9672 14.3594L65.0418 14.2929L65.0418 14.2929L64.9672 14.3594ZM64.0083 13.6946L63.9688 13.7865L63.9688 13.7865L64.0083 13.6946ZM62.7235 13.2472L62.6961 13.3433L62.6968 13.3435L62.7235 13.2472ZM61.1127 12.7869L61.0851 12.883L61.0853 12.8831L61.1127 12.7869ZM58.6838 11.5277L58.6163 11.6015L58.6163 11.6015L58.6838 11.5277ZM58.3833 7.46875L58.3025 7.40986L58.3024 7.40997L58.3833 7.46875ZM59.9941 6.19034L60.0351 6.28155L60.0354 6.28144L59.9941 6.19034ZM64.5133 6.18395L64.4714 6.27476L64.4719 6.27498L64.5133 6.18395ZM66.073 7.41122L65.9925 7.47059L65.9928 7.47101L66.073 7.41122ZM66.6866 9.18182V9.28182H66.7899L66.7866 9.17859L66.6866 9.18182ZM65.2518 9.17006C65.1716 8.49299 64.8443 7.96385 64.2741 7.58969L64.1644 7.7569C64.6852 8.09865 64.98 8.5752 65.0532 9.19358L65.2518 9.17006ZM64.2741 7.58969C63.7092 7.21893 63.0201 7.03636 62.2122 7.03636V7.23636C62.9895 7.23636 63.6385 7.41175 64.1644 7.7569L64.2741 7.58969ZM62.2122 7.03636C61.622 7.03636 61.1009 7.13183 60.6513 7.32579L60.7305 7.50943C61.1502 7.3284 61.6433 7.23636 62.2122 7.23636V7.03636ZM60.6509 7.32594C60.2069 7.51937 59.8554 7.78735 59.6006 8.13155L59.7613 8.25055C59.9923 7.9385 60.314 7.69086 60.7308 7.50929L60.6509 7.32594ZM59.6001 8.13223C59.3486 8.47798 59.223 8.87157 59.223 9.30966H59.423C59.423 8.91252 59.536 8.56037 59.7618 8.24987L59.6001 8.13223ZM59.223 9.30966C59.223 9.6755 59.3102 9.99582 59.4888 10.2661L59.6557 10.1558C59.5019 9.92321 59.423 9.64268 59.423 9.30966H59.223ZM59.4899 10.2677C59.6684 10.5265 59.8958 10.7425 60.171 10.9156L60.2775 10.7463C60.0243 10.5871 59.817 10.3897 59.6546 10.1542L59.4899 10.2677ZM60.172 10.9162C60.4418 11.0816 60.7247 11.2187 61.0207 11.3275L61.0897 11.1398C60.8062 11.0356 60.5351 10.9042 60.2765 10.7457L60.172 10.9162ZM61.0219 11.328C61.3137 11.431 61.5827 11.5149 61.8288 11.5797L61.8797 11.3862C61.6399 11.3232 61.3762 11.2409 61.0885 11.1394L61.0219 11.328ZM61.8282 11.5795L63.1578 11.9375L63.2098 11.7443L61.8802 11.3864L61.8282 11.5795ZM63.1584 11.9376C63.4952 12.026 63.8711 12.1485 64.2862 12.3052L64.3569 12.1181C63.9368 11.9595 63.5542 11.8348 63.2092 11.7442L63.1584 11.9376ZM64.2865 12.3053C64.6999 12.4598 65.0949 12.6708 65.4717 12.9387L65.5876 12.7757C65.1973 12.4982 64.7869 12.2788 64.3566 12.118L64.2865 12.3053ZM65.4727 12.9395C65.8483 13.1994 66.1582 13.5339 66.4026 13.9439L66.5744 13.8416C66.3159 13.4079 65.9866 13.052 65.5866 12.775L65.4727 12.9395ZM66.4026 13.9439C66.6427 14.3469 66.7656 14.846 66.7656 15.446H66.9656C66.9656 14.8188 66.8371 14.2823 66.5744 13.8416L66.4026 13.9439ZM66.7656 15.446C66.7656 16.1349 66.5854 16.755 66.2256 17.3092L66.3934 17.4181C66.775 16.8302 66.9656 16.1719 66.9656 15.446H66.7656ZM66.2253 17.3096C65.8704 17.8626 65.3489 18.305 64.6557 18.6348L64.7417 18.8154C65.4632 18.472 66.0156 18.0067 66.3936 17.4176L66.2253 17.3096ZM64.6555 18.6349C63.9692 18.9636 63.1304 19.1301 62.1355 19.1301V19.3301C63.1519 19.3301 64.0219 19.16 64.7419 18.8153L64.6555 18.6349ZM62.1355 19.1301C61.2085 19.1301 60.4111 18.9805 59.7405 18.6848L59.6598 18.8678C60.3613 19.1772 61.1875 19.3301 62.1355 19.3301V19.1301ZM59.7407 18.6849C59.0731 18.3886 58.5508 17.9773 58.1703 17.452L58.0083 17.5693C58.4119 18.1264 58.9635 18.5588 59.6595 18.8677L59.7407 18.6849ZM58.1706 17.4524C57.7944 16.9274 57.5806 16.3169 57.5307 15.6179L57.3312 15.6321C57.3835 16.365 57.6086 17.0115 58.008 17.5689L58.1706 17.4524ZM57.4309 15.725H59.0673V15.525H57.4309V15.725ZM58.9677 15.6336C59.0119 16.1463 59.1851 16.5767 59.4913 16.919L59.6404 16.7856C59.3671 16.4801 59.208 16.0924 59.1669 15.6164L58.9677 15.6336ZM59.4923 16.92C59.7984 17.2527 60.1834 17.4999 60.6449 17.6625L60.7113 17.4739C60.2779 17.3211 59.9214 17.091 59.6395 16.7846L59.4923 16.92ZM60.6459 17.6629C61.1089 17.8201 61.6056 17.8983 62.1355 17.8983V17.6983C61.6255 17.6983 61.1507 17.6231 60.7102 17.4735L60.6459 17.6629ZM62.1355 17.8983C62.7514 17.8983 63.3078 17.7985 63.8032 17.5969L63.7277 17.4116C63.26 17.6021 62.7298 17.6983 62.1355 17.6983V17.8983ZM63.8039 17.5966C64.2986 17.3908 64.6946 17.1044 64.9879 16.7355L64.8314 16.6111C64.5622 16.9496 64.1954 17.2171 63.727 17.4119L63.8039 17.5966ZM64.9883 16.7351C65.2841 16.3586 65.4315 15.919 65.4315 15.4205H65.2315C65.2315 15.8765 65.0977 16.2721 64.831 16.6115L64.9883 16.7351ZM65.4315 15.4205C65.4315 14.9662 65.304 14.5873 65.0418 14.2929L64.8925 14.4259C65.1161 14.6769 65.2315 15.0054 65.2315 15.4205H65.4315ZM65.0418 14.2929C64.7876 14.0074 64.4552 13.7779 64.0479 13.6027L63.9688 13.7865C64.3541 13.9522 64.6609 14.1659 64.8925 14.4259L65.0418 14.2929ZM64.0479 13.6027C63.647 13.4303 63.2144 13.2797 62.7503 13.1508L62.6968 13.3435C63.1531 13.4703 63.5771 13.618 63.9688 13.7865L64.0479 13.6027ZM62.751 13.151L61.1402 12.6908L61.0853 12.8831L62.6961 13.3433L62.751 13.151ZM61.1404 12.6908C60.128 12.3998 59.3334 11.9862 58.7512 11.4539L58.6163 11.6015C59.2273 12.1601 60.0521 12.586 61.0851 12.883L61.1404 12.6908ZM58.7512 11.4539C58.1774 10.9292 57.8889 10.2433 57.8889 9.38636H57.6889C57.6889 10.2937 57.997 11.0353 58.6163 11.6015L58.7512 11.4539ZM57.8889 9.38636C57.8889 8.67259 58.0814 8.05439 58.4642 7.52753L58.3024 7.40997C57.8926 7.97402 57.6889 8.63423 57.6889 9.38636H57.8889ZM58.4642 7.52764C58.8536 6.99316 59.3763 6.57761 60.0351 6.28155L59.9532 6.09913C59.2654 6.40819 58.7142 6.8449 58.3025 7.40986L58.4642 7.52764ZM60.0354 6.28144C60.6985 5.98117 61.4406 5.83011 62.2633 5.83011V5.63011C61.4156 5.63011 60.6449 5.78588 59.9529 6.09925L60.0354 6.28144ZM62.2633 5.83011C63.095 5.83011 63.8303 5.97919 64.4714 6.27476L64.5552 6.09314C63.8838 5.78359 63.1191 5.63011 62.2633 5.63011V5.83011ZM64.4719 6.27498C65.1145 6.56706 65.6202 6.96595 65.9925 7.47059L66.1534 7.35186C65.7587 6.81672 65.2246 6.39743 64.5547 6.09291L64.4719 6.27498ZM65.9928 7.47101C66.3681 7.97418 66.566 8.54455 66.5867 9.18504L66.7866 9.17859C66.7646 8.49806 66.5534 7.88803 66.1531 7.35143L65.9928 7.47101ZM66.6866 9.08182H65.1525V9.28182H66.6866V9.08182ZM79.7695 16.0341L79.6799 15.9897L79.6799 15.9897L79.7695 16.0341ZM77.7177 18.3608L77.7708 18.4455L77.7708 18.4455L77.7177 18.3608ZM71.7603 18.3608L71.7071 18.4455L71.7071 18.4455L71.7603 18.3608ZM69.7085 16.0341L69.798 15.9897L69.798 15.9897L69.7085 16.0341ZM77.7177 6.5483L77.7708 6.46359L77.7708 6.46359L77.7177 6.5483ZM79.7695 8.875L79.6799 8.91942L79.6799 8.91942L79.7695 8.875ZM78.4144 9.58452L78.3243 9.62785L78.3245 9.62825L78.4144 9.58452ZM76.8867 7.81392L76.8336 7.89866L76.8339 7.89881L76.8867 7.81392ZM72.5849 7.81392L72.532 7.72903L72.5318 7.72918L72.5849 7.81392ZM71.0572 9.58452L70.9672 9.54078L70.9671 9.54118L71.0572 9.58452ZM71.0572 15.3246L70.9671 15.3679L70.9672 15.3683L71.0572 15.3246ZM72.5849 17.0952L72.5318 17.1799L72.532 17.1801L72.5849 17.0952ZM76.8867 17.0952L76.8339 17.0103L76.8336 17.0104L76.8867 17.0952ZM78.4144 15.3246L78.3245 15.2808L78.3243 15.2812L78.4144 15.3246ZM80.4174 12.4545C80.4174 13.8233 80.1703 15.0006 79.6799 15.9897L79.8591 16.0785C80.3659 15.0562 80.6174 13.8472 80.6174 12.4545H80.4174ZM79.6799 15.9897C79.1888 16.9804 78.5168 17.7414 77.6645 18.2761L77.7708 18.4455C78.6572 17.8893 79.3531 17.0991 79.8591 16.0785L79.6799 15.9897ZM77.6645 18.2761C76.8125 18.8107 75.8384 19.079 74.739 19.079V19.279C75.8726 19.279 76.8842 19.0018 77.7708 18.4455L77.6645 18.2761ZM74.739 19.079C73.6396 19.079 72.6654 18.8107 71.8134 18.2761L71.7071 18.4455C72.5938 19.0018 73.6054 19.279 74.739 19.279V19.079ZM71.8134 18.2761C70.9612 17.7414 70.2892 16.9804 69.798 15.9897L69.6189 16.0785C70.1248 17.0991 70.8207 17.8893 71.7071 18.4455L71.8134 18.2761ZM69.798 15.9897C69.3077 15.0006 69.0606 13.8233 69.0606 12.4545H68.8606C68.8606 13.8472 69.112 15.0562 69.6189 16.0785L69.798 15.9897ZM69.0606 12.4545C69.0606 11.0858 69.3077 9.90848 69.798 8.91942L69.6189 8.83058C69.112 9.85288 68.8606 11.0619 68.8606 12.4545H69.0606ZM69.798 8.91942C70.2892 7.92867 70.9612 7.16774 71.8134 6.633L71.7071 6.46359C70.8207 7.01976 70.1248 7.80997 69.6189 8.83058L69.798 8.91942ZM71.8134 6.633C72.6654 6.09841 73.6396 5.83011 74.739 5.83011V5.63011C73.6054 5.63011 72.5938 5.90727 71.7071 6.46359L71.8134 6.633ZM74.739 5.83011C75.8384 5.83011 76.8125 6.09841 77.6645 6.633L77.7708 6.46359C76.8842 5.90727 75.8726 5.63011 74.739 5.63011V5.83011ZM77.6645 6.633C78.5168 7.16774 79.1888 7.92867 79.6799 8.91942L79.8591 8.83058C79.3531 7.80997 78.6572 7.01976 77.7708 6.46359L77.6645 6.633ZM79.6799 8.91942C80.1703 9.90848 80.4174 11.0858 80.4174 12.4545H80.6174C80.6174 11.0619 80.3659 9.85288 79.8591 8.83058L79.6799 8.91942ZM79.0833 12.4545C79.0833 11.3103 78.8919 10.3378 78.5043 9.54078L78.3245 9.62825C78.6954 10.3909 78.8833 11.3317 78.8833 12.4545H79.0833ZM78.5045 9.54118C78.1225 8.74673 77.6013 8.14099 76.9396 7.72903L76.8339 7.89881C77.459 8.28799 77.9563 8.86265 78.3243 9.62785L78.5045 9.54118ZM76.9398 7.72918C76.2839 7.31812 75.5494 7.11307 74.739 7.11307V7.31307C75.5138 7.31307 76.2112 7.50858 76.8336 7.89866L76.9398 7.72918ZM74.739 7.11307C73.9286 7.11307 73.1921 7.31812 72.532 7.72903L72.6377 7.89881C73.2646 7.50858 73.9642 7.31307 74.739 7.31307V7.11307ZM72.5318 7.72918C71.8744 8.14112 71.3534 8.74668 70.9672 9.54078L71.1471 9.62825C71.5194 8.8627 72.0169 8.28786 72.638 7.89866L72.5318 7.72918ZM70.9671 9.54118C70.5839 10.338 70.3947 11.3105 70.3947 12.4545H70.5947C70.5947 11.3316 70.7805 10.3906 71.1473 9.62785L70.9671 9.54118ZM70.3947 12.4545C70.3947 13.5986 70.5839 14.571 70.9671 15.3679L71.1473 15.2812C70.7805 14.5184 70.5947 13.5775 70.5947 12.4545H70.3947ZM70.9672 15.3683C71.3534 16.1624 71.8744 16.768 72.5318 17.1799L72.638 17.0104C72.0169 16.6212 71.5194 16.0464 71.1471 15.2808L70.9672 15.3683ZM72.532 17.1801C73.1921 17.591 73.9286 17.796 74.739 17.796V17.596C73.9642 17.596 73.2646 17.4005 72.6377 17.0103L72.532 17.1801ZM74.739 17.796C75.5494 17.796 76.2839 17.591 76.9398 17.1799L76.8336 17.0104C76.2112 17.4005 75.5138 17.596 74.739 17.596V17.796ZM76.9396 17.1801C77.6013 16.7681 78.1225 16.1624 78.5045 15.3679L78.3243 15.2812C77.9563 16.0464 77.459 16.6211 76.8339 17.0103L76.9396 17.1801ZM78.5043 15.3683C78.8919 14.5713 79.0833 13.5987 79.0833 12.4545H78.8833C78.8833 13.5774 78.6954 14.5182 78.3245 15.2808L78.5043 15.3683ZM91.7738 5.90909V5.80909H91.6738V5.90909H91.7738ZM93.359 5.90909H93.459V5.80909H93.359V5.90909ZM92.7262 16.9737L92.6405 16.9223L92.6404 16.9224L92.7262 16.9737ZM90.9556 18.6293L91.0021 18.7178L91.0025 18.7176L90.9556 18.6293ZM85.5863 18.6293L85.5394 18.7176L85.5398 18.7178L85.5863 18.6293ZM83.8093 16.9737L83.7233 17.0248L83.7237 17.0254L83.8093 16.9737ZM83.1829 5.90909V5.80909H83.0829V5.90909H83.1829ZM84.7681 5.90909H84.8681V5.80909H84.7681V5.90909ZM85.19 16.1555L85.1029 16.2047L85.1031 16.205L85.19 16.1555ZM86.3917 17.3253L86.3436 17.4129L86.3444 17.4134L86.3917 17.3253ZM90.1502 17.3253L90.1975 17.4134L90.198 17.4131L90.1502 17.3253ZM91.3519 16.1555L91.2648 16.1064L91.2647 16.1067L91.3519 16.1555ZM91.7738 6.00909H93.359V5.80909H91.7738V6.00909ZM93.259 5.90909V14.5767H93.459V5.90909H93.259ZM93.259 14.5767C93.259 15.4552 93.0522 16.2361 92.6405 16.9223L92.812 17.0252C93.244 16.3051 93.459 15.488 93.459 14.5767H93.259ZM92.6404 16.9224C92.2327 17.6047 91.6564 18.1441 90.9087 18.5409L91.0025 18.7176C91.7804 18.3047 92.3845 17.7405 92.812 17.025L92.6404 16.9224ZM90.9091 18.5407C90.1632 18.9324 89.2848 19.1301 88.271 19.1301V19.3301C89.311 19.3301 90.2225 19.1272 91.0021 18.7178L90.9091 18.5407ZM88.271 19.1301C87.2571 19.1301 86.3787 18.9324 85.6328 18.5407L85.5398 18.7178C86.3194 19.1272 87.2309 19.3301 88.271 19.3301V19.1301ZM85.6332 18.5409C84.8854 18.1441 84.3069 17.6045 83.8949 16.922L83.7237 17.0254C84.1555 17.7407 84.7616 18.3048 85.5394 18.7176L85.6332 18.5409ZM83.8953 16.9227C83.4877 16.2364 83.2829 15.4554 83.2829 14.5767H83.0829C83.0829 15.4878 83.2957 16.3048 83.7233 17.0248L83.8953 16.9227ZM83.2829 14.5767V5.90909H83.0829V14.5767H83.2829ZM83.1829 6.00909H84.7681V5.80909H83.1829V6.00909ZM84.6681 5.90909V14.4489H84.8681V5.90909H84.6681ZM84.6681 14.4489C84.6681 15.1032 84.8122 15.6894 85.1029 16.2047L85.2771 16.1064C85.0052 15.6245 84.8681 15.0729 84.8681 14.4489H84.6681ZM85.1031 16.205C85.3939 16.7161 85.8082 17.1189 86.3436 17.4129L86.4398 17.2376C85.9354 16.9606 85.5486 16.5836 85.2769 16.1061L85.1031 16.205ZM86.3444 17.4134C86.886 17.704 87.5294 17.8472 88.271 17.8472V17.6472C87.5551 17.6472 86.9457 17.509 86.439 17.2372L86.3444 17.4134ZM88.271 17.8472C89.0125 17.8472 89.6559 17.704 90.1975 17.4134L90.1029 17.2372C89.5962 17.509 88.9868 17.6472 88.271 17.6472V17.8472ZM90.198 17.4131C90.7378 17.1191 91.1525 16.7161 91.4392 16.2044L91.2647 16.1067C90.9974 16.5837 90.6109 16.9605 90.1024 17.2375L90.198 17.4131ZM91.439 16.2047C91.7297 15.6894 91.8738 15.1032 91.8738 14.4489H91.6738C91.6738 15.0729 91.5367 15.6245 91.2648 16.1064L91.439 16.2047ZM91.8738 14.4489V5.90909H91.6738V14.4489H91.8738ZM96.09 19H95.99V19.1H96.09V19ZM96.09 17.8494L96.0069 17.7938L95.99 17.819V17.8494H96.09ZM103.147 7.31534L103.23 7.371L103.334 7.21534H103.147V7.31534ZM96.0133 7.31534H95.9133V7.41534H96.0133V7.31534ZM96.0133 5.90909V5.80909H95.9133V5.90909H96.0133ZM105.039 5.90909H105.139V5.80909H105.039V5.90909ZM105.039 7.05966L105.122 7.11531L105.139 7.09006V7.05966H105.039ZM97.9821 17.5938L97.899 17.5381L97.7947 17.6938H97.9821V17.5938ZM105.116 17.5938H105.216V17.4937H105.116V17.5938ZM105.116 19V19.1H105.216V19H105.116ZM96.19 19V17.8494H95.99V19H96.19ZM96.1731 17.9051L103.23 7.371L103.064 7.25968L96.0069 17.7938L96.1731 17.9051ZM103.147 7.21534H96.0133V7.41534H103.147V7.21534ZM96.1133 7.31534V5.90909H95.9133V7.31534H96.1133ZM96.0133 6.00909H105.039V5.80909H96.0133V6.00909ZM104.939 5.90909V7.05966H105.139V5.90909H104.939ZM104.956 7.004L97.899 17.5381L98.0651 17.6494L105.122 7.11531L104.956 7.004ZM97.9821 17.6938H105.116V17.4937H97.9821V17.6938ZM105.016 17.5938V19H105.216V17.5938H105.016ZM105.116 18.9H96.09V19.1H105.116V18.9ZM108.312 19V19.1H108.382L108.406 19.0335L108.312 19ZM106.65 19L106.556 18.9655L106.506 19.1H106.65V19ZM111.456 5.90909V5.80909H111.387L111.363 5.87462L111.456 5.90909ZM113.093 5.90909L113.187 5.87462L113.163 5.80909H113.093V5.90909ZM117.9 19V19.1H118.043L117.994 18.9655L117.9 19ZM116.238 19L116.144 19.0335L116.167 19.1H116.238V19ZM112.326 7.98011L112.42 7.94666L112.396 7.88011H112.326V7.98011ZM112.224 7.98011V7.88011H112.153L112.129 7.94666L112.224 7.98011ZM108.925 13.8864V13.7864H108.825V13.8864H108.925ZM115.624 13.8864H115.724V13.7864H115.624V13.8864ZM115.624 15.2926V15.3926H115.724V15.2926H115.624ZM108.925 15.2926H108.825V15.3926H108.925V15.2926ZM108.312 18.9H106.65V19.1H108.312V18.9ZM106.744 19.0345L111.55 5.94356L111.363 5.87462L106.556 18.9655L106.744 19.0345ZM111.456 6.00909H113.093V5.80909H111.456V6.00909ZM112.999 5.94356L117.806 19.0345L117.994 18.9655L113.187 5.87462L112.999 5.94356ZM117.9 18.9H116.238V19.1H117.9V18.9ZM116.332 18.9665L112.42 7.94666L112.232 8.01357L116.144 19.0335L116.332 18.9665ZM112.326 7.88011H112.224V8.08011H112.326V7.88011ZM112.129 7.94666L108.217 18.9665L108.406 19.0335L112.318 8.01357L112.129 7.94666ZM108.925 13.9864H115.624V13.7864H108.925V13.9864ZM115.524 13.8864V15.2926H115.724V13.8864H115.524ZM115.624 15.1926H108.925V15.3926H115.624V15.1926ZM109.025 15.2926V13.8864H108.825V15.2926H109.025ZM129.425 5.29545L129.521 5.32145L129.555 5.19545H129.425V5.29545ZM125.206 20.9688V21.0688H125.282L125.302 20.9947L125.206 20.9688ZM123.825 20.9688L123.729 20.9428L123.695 21.0688H123.825V20.9688ZM128.044 5.29545V5.19545H127.967L127.947 5.26946L128.044 5.29545ZM129.328 5.26946L125.109 20.9428L125.302 20.9947L129.521 5.32145L129.328 5.26946ZM125.206 20.8687H123.825V21.0688H125.206V20.8687ZM123.922 20.9947L128.14 5.32145L127.947 5.26946L123.729 20.9428L123.922 20.9947ZM128.044 5.39545H129.425V5.19545H128.044V5.39545ZM139.88 14.3977L139.926 14.4868L139.98 14.459V14.3977H139.88ZM131.647 18.5909H131.547V18.7541L131.693 18.68L131.647 18.5909ZM131.647 16.9545L131.604 16.8645L131.547 16.8917V16.9545H131.647ZM137.963 13.9119L138.052 13.9567L138.183 13.6947L137.919 13.8218L137.963 13.9119ZM137.912 14.0142H137.812L138.001 14.0589L137.912 14.0142ZM137.912 13.7585L138.001 13.7138L137.812 13.7585H137.912ZM137.963 13.8608L137.919 13.9509L138.183 14.078L138.052 13.8161L137.963 13.8608ZM131.647 10.8182H131.547V10.881L131.604 10.9083L131.647 10.8182ZM131.647 9.18182L131.693 9.09271L131.547 9.01866V9.18182H131.647ZM139.88 13.375H139.98V13.3137L139.926 13.2859L139.88 13.375ZM139.835 14.3086L131.602 18.5018L131.693 18.68L139.926 14.4868L139.835 14.3086ZM131.747 18.5909V16.9545H131.547V18.5909H131.747ZM131.691 17.0446L138.006 14.002L137.919 13.8218L131.604 16.8645L131.691 17.0446ZM137.873 13.8672L137.822 13.9695L138.001 14.0589L138.052 13.9567L137.873 13.8672ZM138.012 14.0142V13.7585H137.812V14.0142H138.012ZM137.822 13.8032L137.873 13.9055L138.052 13.8161L138.001 13.7138L137.822 13.8032ZM138.006 13.7707L131.691 10.7281L131.604 10.9083L137.919 13.9509L138.006 13.7707ZM131.747 10.8182V9.18182H131.547V10.8182H131.747ZM131.602 9.27093L139.835 13.4641L139.926 13.2859L131.693 9.09271L131.602 9.27093ZM139.78 13.375V14.3977H139.98V13.375H139.78Z" fill="white" fill-opacity="0.5" mask="url(#path-1-outside-1_58_40)"/>
</g>
</g>
<defs>
<filter id="filter0_d_58_40" x="-1.18463" y="5.29541" width="144.065" height="22.6733" filterUnits="userSpaceOnUse" color-interpolation-filters="sRGB">
<feFlood flood-opacity="0" result="BackgroundImageFix"/>
<feColorMatrix in="SourceAlpha" type="matrix" values="0 0 0 0 0 0 0 0 0 0 0 0 0 0 0 0 0 0 127 0" result="hardAlpha"/>
<feOffset dy="4"/>
<feGaussianBlur stdDeviation="1.5"/>
<feComposite in2="hardAlpha" operator="out"/>
<feColorMatrix type="matrix" values="0 0 0 0 0.429167 0 0 0 0 0.429167 0 0 0 0 0.429167 0 0 0 0.25 0"/>
<feBlend mode="normal" in2="BackgroundImageFix" result="effect1_dropShadow_58_40"/>
<feBlend mode="normal" in="SourceGraphic" in2="effect1_dropShadow_58_40" result="shape"/>
</filter>
<linearGradient id="paint0_linear_58_40" x1="0" y1="13.5" x2="142" y2="13.5" gradientUnits="userSpaceOnUse">
<stop/>
<stop offset="0.503536" stop-color="white"/>
<stop offset="1"/>
</linearGradient>
<linearGradient id="paint1_linear_58_40" x1="0" y1="13.5" x2="142" y2="13.5" gradientUnits="userSpaceOnUse">
<stop offset="0.015" stop-color="white"/>
<stop offset="0.215"/>
<stop offset="0.395" stop-color="white"/>
<stop offset="0.54"/>
<stop offset="0.715" stop-color="white"/>
<stop offset="0.855"/>
<stop offset="0.985" stop-color="white"/>
</linearGradient>
<clipPath id="clip0_58_40">
<rect width="141" height="24" fill="white"/>
</clipPath>
</defs>
</svg>
