<svg width="150" height="29" viewBox="0 0 150 29" fill="none" xmlns="http://www.w3.org/2000/svg">
<g clip-path="url(#clip0_104_16)" filter="url(#filter0_d_104_16)">
<g filter="url(#filter1_d_104_16)">
<path d="M4.75142 13.3366V11.9048L13.2401 7.78835V9.73793L6.97585 12.5952L7.03338 12.4801V12.755L6.97585 12.6463L13.2401 15.4972V17.4531L4.75142 13.3366ZM16.4265 19V5.90909H18.4016V17.2997H24.3335V19H16.4265ZM35.005 5.90909H36.9865V14.5192C36.9865 15.4354 36.7713 16.2472 36.3409 16.9545C35.9105 17.6577 35.3054 18.2116 34.5256 18.6165C33.7457 19.017 32.8317 19.2173 31.7834 19.2173C30.7393 19.2173 29.8274 19.017 29.0476 18.6165C28.2678 18.2116 27.6626 17.6577 27.2322 16.9545C26.8018 16.2472 26.5866 15.4354 26.5866 14.5192V5.90909H28.5618V14.3594C28.5618 14.9517 28.6918 15.478 28.9517 15.9382C29.2159 16.3984 29.5888 16.7607 30.0703 17.0249C30.5518 17.2848 31.1229 17.4148 31.7834 17.4148C32.4482 17.4148 33.0213 17.2848 33.5028 17.0249C33.9886 16.7607 34.3594 16.3984 34.6151 15.9382C34.875 15.478 35.005 14.9517 35.005 14.3594V5.90909ZM41.8333 5.90909V19H39.8581V5.90909H41.8333ZM44.3709 19V17.6832L51.2551 7.60938H44.3134V5.90909H53.6713V7.22585L46.7871 17.2997H53.7289V19H44.3709ZM68.1094 9.34801C68.0412 8.7429 67.7599 8.27415 67.2656 7.94176C66.7713 7.60511 66.1491 7.43679 65.3991 7.43679C64.8622 7.43679 64.3977 7.52202 64.0057 7.69247C63.6136 7.85866 63.3089 8.08878 63.0916 8.38281C62.8786 8.67258 62.772 9.00284 62.772 9.37358C62.772 9.68466 62.8445 9.95312 62.9893 10.179C63.1385 10.4048 63.3324 10.5945 63.571 10.7479C63.8139 10.897 64.0739 11.0227 64.3509 11.125C64.6278 11.223 64.8942 11.304 65.1499 11.3679L66.4283 11.7003C66.8459 11.8026 67.2741 11.9411 67.7131 12.1158C68.152 12.2905 68.5589 12.5206 68.9339 12.8061C69.3089 13.0916 69.6115 13.4453 69.8416 13.8672C70.076 14.2891 70.1932 14.794 70.1932 15.3821C70.1932 16.1236 70.0014 16.782 69.6179 17.3572C69.2386 17.9325 68.6868 18.3864 67.9624 18.7188C67.2422 19.0511 66.3707 19.2173 65.348 19.2173C64.3679 19.2173 63.5199 19.0618 62.804 18.7507C62.0881 18.4396 61.5277 17.9986 61.1229 17.4276C60.718 16.8523 60.4943 16.1705 60.4517 15.3821H62.4332C62.4716 15.8551 62.625 16.2493 62.8935 16.5646C63.1662 16.8757 63.5135 17.108 63.9354 17.2614C64.3615 17.4105 64.8281 17.4851 65.3352 17.4851C65.8935 17.4851 66.3899 17.3977 66.8246 17.223C67.2635 17.044 67.6087 16.7969 67.8601 16.4815C68.1115 16.1619 68.2372 15.7891 68.2372 15.3629C68.2372 14.9751 68.1264 14.6577 67.9048 14.4105C67.6875 14.1634 67.3913 13.9588 67.0163 13.7969C66.6456 13.6349 66.2259 13.4922 65.7571 13.3686L64.2102 12.9467C63.1619 12.6612 62.331 12.2415 61.7173 11.6875C61.108 11.1335 60.8033 10.4006 60.8033 9.48864C60.8033 8.73437 61.0078 8.07599 61.4169 7.51349C61.826 6.95099 62.38 6.5142 63.0788 6.20312C63.7777 5.88778 64.5661 5.73011 65.4439 5.73011C66.3303 5.73011 67.1122 5.88565 67.7898 6.19673C68.4716 6.50781 69.0085 6.93608 69.4006 7.48153C69.7926 8.02273 69.9972 8.64489 70.0142 9.34801H68.1094ZM83.9249 12.4545C83.9249 13.8523 83.6692 15.054 83.1578 16.0597C82.6465 17.0611 81.9455 17.8324 81.0549 18.3736C80.1685 18.9105 79.1607 19.179 78.0314 19.179C76.8979 19.179 75.8858 18.9105 74.9952 18.3736C74.1088 17.8324 73.41 17.0589 72.8986 16.0533C72.3873 15.0476 72.1316 13.848 72.1316 12.4545C72.1316 11.0568 72.3873 9.85724 72.8986 8.85582C73.41 7.85014 74.1088 7.07883 74.9952 6.5419C75.8858 6.00071 76.8979 5.73011 78.0314 5.73011C79.1607 5.73011 80.1685 6.00071 81.0549 6.5419C81.9455 7.07883 82.6465 7.85014 83.1578 8.85582C83.6692 9.85724 83.9249 11.0568 83.9249 12.4545ZM81.9689 12.4545C81.9689 11.3892 81.7963 10.4922 81.4512 9.76349C81.1103 9.03054 80.6415 8.47656 80.0449 8.10156C79.4526 7.7223 78.7814 7.53267 78.0314 7.53267C77.2772 7.53267 76.6039 7.7223 76.0115 8.10156C75.4192 8.47656 74.9505 9.03054 74.6053 9.76349C74.2644 10.4922 74.0939 11.3892 74.0939 12.4545C74.0939 13.5199 74.2644 14.419 74.6053 15.152C74.9505 15.8807 75.4192 16.4347 76.0115 16.8139C76.6039 17.1889 77.2772 17.3764 78.0314 17.3764C78.7814 17.3764 79.4526 17.1889 80.0449 16.8139C80.6415 16.4347 81.1103 15.8807 81.4512 15.152C81.7963 14.419 81.9689 13.5199 81.9689 12.4545ZM94.8058 5.90909H96.7873V14.5192C96.7873 15.4354 96.5721 16.2472 96.1417 16.9545C95.7113 17.6577 95.1062 18.2116 94.3264 18.6165C93.5465 19.017 92.6325 19.2173 91.5842 19.2173C90.5401 19.2173 89.6282 19.017 88.8484 18.6165C88.0685 18.2116 87.4634 17.6577 87.033 16.9545C86.6026 16.2472 86.3874 15.4354 86.3874 14.5192V5.90909H88.3626V14.3594C88.3626 14.9517 88.4925 15.478 88.7525 15.9382C89.0167 16.3984 89.3896 16.7607 89.8711 17.0249C90.3526 17.2848 90.9237 17.4148 91.5842 17.4148C92.2489 17.4148 92.8221 17.2848 93.3036 17.0249C93.7894 16.7607 94.1602 16.3984 94.4158 15.9382C94.6758 15.478 94.8058 14.9517 94.8058 14.3594V5.90909ZM99.3201 19V17.6832L106.204 7.60938H99.2626V5.90909H108.621V7.22585L101.736 17.2997H108.678V19H99.3201ZM112.261 19H110.164L114.875 5.90909H117.157L121.868 19H119.771L116.07 8.28693H115.968L112.261 19ZM112.612 13.8736H119.414V15.5355H112.612V13.8736ZM133.355 5.29545L129.136 20.9688H127.429L131.648 5.29545H133.355ZM143.933 14.5639L135.445 18.6804V16.7244L141.709 13.8736L141.645 13.9822V13.7074L141.709 13.8224L135.445 10.9652V9.01562L143.933 13.1321V14.5639Z" fill="black"/>
</g>
</g>
<defs>
<filter id="filter0_d_104_16" x="-1" y="0" width="155" height="32" filterUnits="userSpaceOnUse" color-interpolation-filters="sRGB">
<feFlood flood-opacity="0" result="BackgroundImageFix"/>
<feColorMatrix in="SourceAlpha" type="matrix" values="0 0 0 0 0 0 0 0 0 0 0 0 0 0 0 0 0 0 127 0" result="hardAlpha"/>
<feOffset dy="4"/>
<feGaussianBlur stdDeviation="2"/>
<feComposite in2="hardAlpha" operator="out"/>
<feColorMatrix type="matrix" values="0 0 0 0 0 0 0 0 0 0 0 0 0 0 0 0 0 0 0.25 0"/>
<feBlend mode="normal" in2="BackgroundImageFix" result="effect1_dropShadow_104_16"/>
<feBlend mode="normal" in="SourceGraphic" in2="effect1_dropShadow_104_16" result="shape"/>
</filter>
<filter id="filter1_d_104_16" x="1.75146" y="5.29546" width="145.182" height="22.6733" filterUnits="userSpaceOnUse" color-interpolation-filters="sRGB">
<feFlood flood-opacity="0" result="BackgroundImageFix"/>
<feColorMatrix in="SourceAlpha" type="matrix" values="0 0 0 0 0 0 0 0 0 0 0 0 0 0 0 0 0 0 127 0" result="hardAlpha"/>
<feOffset dy="4"/>
<feGaussianBlur stdDeviation="1.5"/>
<feComposite in2="hardAlpha" operator="out"/>
<feColorMatrix type="matrix" values="0 0 0 0 0.429167 0 0 0 0 0.429167 0 0 0 0 0.429167 0 0 0 0.25 0"/>
<feBlend mode="normal" in2="BackgroundImageFix" result="effect1_dropShadow_104_16"/>
<feBlend mode="normal" in="SourceGraphic" in2="effect1_dropShadow_104_16" result="shape"/>
</filter>
<clipPath id="clip0_104_16">
<rect width="147" height="24" fill="white" transform="translate(3)"/>
</clipPath>
</defs>
</svg>
