<svg width="147" height="24" viewBox="0 0 147 24" fill="none" xmlns="http://www.w3.org/2000/svg">
<g clip-path="url(#clip0_103_13)">
<g filter="url(#filter0_d_103_13)">
<path d="M1.48295 13.9886V10.9205L10.9943 7.1108V10.3324L4.93466 12.429L5.03693 12.2756V12.6335L4.93466 12.4801L10.9943 14.5767V17.7983L1.48295 13.9886ZM13.3242 19V5.90909H16.8782V16.1364H22.1708V19H13.3242ZM31.3546 5.90909H34.9086V14.2955C34.9086 15.2926 34.6699 16.1555 34.1926 16.8842C33.7196 17.6087 33.0591 18.169 32.2111 18.5653C31.3631 18.9574 30.3787 19.1534 29.258 19.1534C28.1287 19.1534 27.1401 18.9574 26.2921 18.5653C25.4441 18.169 24.7836 17.6087 24.3105 16.8842C23.8418 16.1555 23.6074 15.2926 23.6074 14.2955V5.90909H27.1614V13.9886C27.1614 14.3935 27.2509 14.7557 27.4299 15.0753C27.6088 15.3906 27.856 15.6378 28.1713 15.8168C28.4909 15.9957 28.8532 16.0852 29.258 16.0852C29.6671 16.0852 30.0293 15.9957 30.3446 15.8168C30.66 15.6378 30.9071 15.3906 31.0861 15.0753C31.2651 14.7557 31.3546 14.3935 31.3546 13.9886V5.90909ZM40.1516 5.90909V19H36.5977V5.90909H40.1516ZM41.8871 19V17.0312L48.0746 8.77273H41.9126V5.90909H52.6001V7.87784L46.4126 16.1364H52.5746V19H41.8871ZM64.9767 10C64.9426 9.57386 64.7828 9.24148 64.4973 9.00284C64.2161 8.7642 63.7878 8.64489 63.2125 8.64489C62.8461 8.64489 62.5456 8.68963 62.3113 8.77912C62.0811 8.86435 61.9107 8.98153 61.7999 9.13068C61.6891 9.27983 61.6316 9.45028 61.6273 9.64205C61.6188 9.79972 61.6465 9.94247 61.7104 10.0703C61.7786 10.1939 61.8851 10.3068 62.03 10.4091C62.1749 10.5071 62.3603 10.5966 62.5861 10.6776C62.812 10.7585 63.0804 10.831 63.3915 10.8949L64.4654 11.125C65.1898 11.2784 65.8098 11.4808 66.3255 11.7322C66.8411 11.9837 67.263 12.2798 67.5911 12.6207C67.9192 12.9574 68.16 13.3366 68.3134 13.7585C68.4711 14.1804 68.552 14.6406 68.5563 15.1392C68.552 16 68.3368 16.7287 67.9107 17.3253C67.4846 17.9219 66.8752 18.3757 66.0826 18.6868C65.2942 18.9979 64.3461 19.1534 63.2381 19.1534C62.1003 19.1534 61.1074 18.9851 60.2594 18.6484C59.4157 18.3118 58.7594 17.794 58.2907 17.0952C57.8262 16.392 57.5918 15.4929 57.5875 14.3977H60.9625C60.9838 14.7983 61.084 15.1349 61.263 15.4077C61.4419 15.6804 61.6934 15.8871 62.0172 16.0277C62.3453 16.1683 62.7353 16.2386 63.187 16.2386C63.5662 16.2386 63.8837 16.1918 64.1394 16.098C64.3951 16.0043 64.589 15.8743 64.7211 15.7081C64.8532 15.5419 64.9213 15.3523 64.9256 15.1392C64.9213 14.9389 64.8553 14.7642 64.7275 14.6151C64.6039 14.4616 64.3993 14.3253 64.1138 14.206C63.8283 14.0824 63.4426 13.9673 62.9569 13.8608L61.6529 13.5795C60.4938 13.3281 59.5797 12.9084 58.9107 12.3203C58.2459 11.728 57.9157 10.9205 57.9199 9.89773C57.9157 9.06676 58.1373 8.3402 58.5847 7.71804C59.0364 7.09162 59.6607 6.60369 60.4576 6.25426C61.2587 5.90483 62.177 5.73011 63.2125 5.73011C64.2694 5.73011 65.1834 5.90696 65.9547 6.26065C66.726 6.61435 67.3205 7.11293 67.7381 7.75639C68.16 8.3956 68.373 9.14347 68.3773 10H64.9767ZM82.59 12.4545C82.59 13.9119 82.3066 15.1413 81.7399 16.1428C81.1731 17.1399 80.4082 17.8963 79.4451 18.4119C78.4821 18.9233 77.4082 19.179 76.2235 19.179C75.0304 19.179 73.9522 18.9212 72.9892 18.4055C72.0304 17.8857 71.2676 17.1271 70.7008 16.13C70.1383 15.1286 69.8571 13.9034 69.8571 12.4545C69.8571 10.9972 70.1383 9.76989 70.7008 8.77273C71.2676 7.77131 72.0304 7.01491 72.9892 6.50355C73.9522 5.98793 75.0304 5.73011 76.2235 5.73011C77.4082 5.73011 78.4821 5.98793 79.4451 6.50355C80.4082 7.01491 81.1731 7.77131 81.7399 8.77273C82.3066 9.76989 82.59 10.9972 82.59 12.4545ZM78.9338 12.4545C78.9338 11.6705 78.8294 11.0099 78.6206 10.473C78.416 9.93182 78.1113 9.52273 77.7065 9.24574C77.3059 8.96449 76.8116 8.82386 76.2235 8.82386C75.6355 8.82386 75.139 8.96449 74.7342 9.24574C74.3336 9.52273 74.0289 9.93182 73.8201 10.473C73.6156 11.0099 73.5133 11.6705 73.5133 12.4545C73.5133 13.2386 73.6156 13.9013 73.8201 14.4425C74.0289 14.9794 74.3336 15.3885 74.7342 15.6697C75.139 15.9467 75.6355 16.0852 76.2235 16.0852C76.8116 16.0852 77.3059 15.9467 77.7065 15.6697C78.1113 15.3885 78.416 14.9794 78.6206 14.4425C78.8294 13.9013 78.9338 13.2386 78.9338 12.4545ZM91.9815 5.90909H95.5355V14.2955C95.5355 15.2926 95.2969 16.1555 94.8196 16.8842C94.3466 17.6087 93.6861 18.169 92.8381 18.5653C91.9901 18.9574 91.0057 19.1534 89.8849 19.1534C88.7557 19.1534 87.767 18.9574 86.919 18.5653C86.071 18.169 85.4105 17.6087 84.9375 16.8842C84.4688 16.1555 84.2344 15.2926 84.2344 14.2955V5.90909H87.7884V13.9886C87.7884 14.3935 87.8778 14.7557 88.0568 15.0753C88.2358 15.3906 88.483 15.6378 88.7983 15.8168C89.1179 15.9957 89.4801 16.0852 89.8849 16.0852C90.294 16.0852 90.6563 15.9957 90.9716 15.8168C91.2869 15.6378 91.5341 15.3906 91.7131 15.0753C91.892 14.7557 91.9815 14.3935 91.9815 13.9886V5.90909ZM97.2757 19V17.0312L103.463 8.77273H97.3013V5.90909H107.989V7.87784L101.801 16.1364H107.963V19H97.2757ZM113.123 19H109.288L113.609 5.90909H118.467L122.788 19H118.953L116.089 9.5142H115.987L113.123 19ZM112.407 13.8352H119.618V16.4943H112.407V13.8352ZM134.104 5.29545L129.885 20.9688H126.893L131.112 5.29545H134.104ZM145.203 15.2159L135.692 19.0256V15.804L141.752 13.7074L141.649 13.8608V13.5028L141.752 13.6562L135.692 11.5597V8.33807L145.203 12.1477V15.2159Z" fill="white"/>
</g>
</g>
<defs>
<filter id="filter0_d_103_13" x="-1.51703" y="5.29541" width="149.72" height="22.6733" filterUnits="userSpaceOnUse" color-interpolation-filters="sRGB">
<feFlood flood-opacity="0" result="BackgroundImageFix"/>
<feColorMatrix in="SourceAlpha" type="matrix" values="0 0 0 0 0 0 0 0 0 0 0 0 0 0 0 0 0 0 127 0" result="hardAlpha"/>
<feOffset dy="4"/>
<feGaussianBlur stdDeviation="1.5"/>
<feComposite in2="hardAlpha" operator="out"/>
<feColorMatrix type="matrix" values="0 0 0 0 0.429167 0 0 0 0 0.429167 0 0 0 0 0.429167 0 0 0 0.25 0"/>
<feBlend mode="normal" in2="BackgroundImageFix" result="effect1_dropShadow_103_13"/>
<feBlend mode="normal" in="SourceGraphic" in2="effect1_dropShadow_103_13" result="shape"/>
</filter>
<clipPath id="clip0_103_13">
<rect width="147" height="24" fill="white"/>
</clipPath>
</defs>
</svg>
