<svg width="147" height="24" viewBox="0 0 147 24" fill="none" xmlns="http://www.w3.org/2000/svg">
<g clip-path="url(#clip0_103_13)">
<g filter="url(#filter0_d_103_13)">
<path d="M3.75142 12.3366V10.9048L12.2401 6.78835V8.73793L5.97585 11.5952L6.03338 11.4801V11.755L5.97585 11.6463L12.2401 14.4972V16.4531L3.75142 12.3366ZM15.4265 18V4.90909H17.4016V16.2997H23.3335V18H15.4265ZM34.005 4.90909H35.9865V13.5192C35.9865 14.4354 35.7713 15.2472 35.3409 15.9545C34.9105 16.6577 34.3054 17.2116 33.5256 17.6165C32.7457 18.017 31.8317 18.2173 30.7834 18.2173C29.7393 18.2173 28.8274 18.017 28.0476 17.6165C27.2678 17.2116 26.6626 16.6577 26.2322 15.9545C25.8018 15.2472 25.5866 14.4354 25.5866 13.5192V4.90909H27.5618V13.3594C27.5618 13.9517 27.6918 14.478 27.9517 14.9382C28.2159 15.3984 28.5888 15.7607 29.0703 16.0249C29.5518 16.2848 30.1229 16.4148 30.7834 16.4148C31.4482 16.4148 32.0213 16.2848 32.5028 16.0249C32.9886 15.7607 33.3594 15.3984 33.6151 14.9382C33.875 14.478 34.005 13.9517 34.005 13.3594V4.90909ZM40.8333 4.90909V18H38.8581V4.90909H40.8333ZM43.3709 18V16.6832L50.2551 6.60938H43.3134V4.90909H52.6713V6.22585L45.7871 16.2997H52.7289V18H43.3709ZM67.1094 8.34801C67.0412 7.7429 66.7599 7.27415 66.2656 6.94176C65.7713 6.60511 65.1491 6.43679 64.3991 6.43679C63.8622 6.43679 63.3977 6.52202 63.0057 6.69247C62.6136 6.85866 62.3089 7.08878 62.0916 7.38281C61.8786 7.67258 61.772 8.00284 61.772 8.37358C61.772 8.68466 61.8445 8.95312 61.9893 9.17898C62.1385 9.40483 62.3324 9.59446 62.571 9.74787C62.8139 9.89702 63.0739 10.0227 63.3509 10.125C63.6278 10.223 63.8942 10.304 64.1499 10.3679L65.4283 10.7003C65.8459 10.8026 66.2741 10.9411 66.7131 11.1158C67.152 11.2905 67.5589 11.5206 67.9339 11.8061C68.3089 12.0916 68.6115 12.4453 68.8416 12.8672C69.076 13.2891 69.1932 13.794 69.1932 14.3821C69.1932 15.1236 69.0014 15.782 68.6179 16.3572C68.2386 16.9325 67.6868 17.3864 66.9624 17.7188C66.2422 18.0511 65.3707 18.2173 64.348 18.2173C63.3679 18.2173 62.5199 18.0618 61.804 17.7507C61.0881 17.4396 60.5277 16.9986 60.1229 16.4276C59.718 15.8523 59.4943 15.1705 59.4517 14.3821H61.4332C61.4716 14.8551 61.625 15.2493 61.8935 15.5646C62.1662 15.8757 62.5135 16.108 62.9354 16.2614C63.3615 16.4105 63.8281 16.4851 64.3352 16.4851C64.8935 16.4851 65.3899 16.3977 65.8246 16.223C66.2635 16.044 66.6087 15.7969 66.8601 15.4815C67.1115 15.1619 67.2372 14.7891 67.2372 14.3629C67.2372 13.9751 67.1264 13.6577 66.9048 13.4105C66.6875 13.1634 66.3913 12.9588 66.0163 12.7969C65.6456 12.6349 65.2259 12.4922 64.7571 12.3686L63.2102 11.9467C62.1619 11.6612 61.331 11.2415 60.7173 10.6875C60.108 10.1335 59.8033 9.40057 59.8033 8.48864C59.8033 7.73437 60.0078 7.07599 60.4169 6.51349C60.826 5.95099 61.38 5.5142 62.0788 5.20312C62.7777 4.88778 63.5661 4.73011 64.4439 4.73011C65.3303 4.73011 66.1122 4.88565 66.7898 5.19673C67.4716 5.50781 68.0085 5.93608 68.4006 6.48153C68.7926 7.02273 68.9972 7.64489 69.0142 8.34801H67.1094ZM83.0016 11.5568C82.7715 12.9205 82.3304 14.0987 81.6784 15.0916C81.0265 16.0803 80.2296 16.843 79.2878 17.38C78.3461 17.9126 77.3255 18.179 76.226 18.179C75.0925 18.179 74.1273 17.902 73.3304 17.348C72.5378 16.7898 71.9711 16.0014 71.6301 14.983C71.2935 13.9602 71.2402 12.75 71.4703 11.3523C71.7005 9.98864 72.1415 8.8125 72.7935 7.82386C73.4455 6.83097 74.2445 6.06818 75.1905 5.53551C76.1365 4.99858 77.1635 4.73011 78.2715 4.73011C79.3965 4.73011 80.3532 5.00923 81.1415 5.56747C81.9341 6.12145 82.4988 6.9098 82.8354 7.93253C83.1763 8.95099 83.2317 10.1591 83.0016 11.5568ZM81.4931 11.3523C81.6806 10.2358 81.6529 9.29616 81.41 8.53338C81.1671 7.7706 80.7644 7.19318 80.2019 6.80114C79.6394 6.40909 78.9703 6.21307 78.1948 6.21307C77.3851 6.21307 76.6181 6.41974 75.8936 6.8331C75.1692 7.24219 74.5492 7.84517 74.0336 8.64205C73.5179 9.43466 73.1664 10.4062 72.9789 11.5568C72.7914 12.6733 72.8191 13.6129 73.062 14.3757C73.3049 15.1385 73.7076 15.7159 74.2701 16.108C74.8326 16.5 75.5016 16.696 76.2772 16.696C77.0868 16.696 77.8539 16.4915 78.5783 16.0824C79.3027 15.669 79.9228 15.0661 80.4384 14.2734C80.954 13.4766 81.3056 12.5028 81.4931 11.3523ZM93.6827 4.90909H95.6642V13.5192C95.6642 14.4354 95.449 15.2472 95.0186 15.9545C94.5882 16.6577 93.9831 17.2116 93.2033 17.6165C92.4235 18.017 91.5094 18.2173 90.4611 18.2173C89.4171 18.2173 88.5051 18.017 87.7253 17.6165C86.9455 17.2116 86.3404 16.6577 85.91 15.9545C85.4796 15.2472 85.2644 14.4354 85.2644 13.5192V4.90909H87.2395V13.3594C87.2395 13.9517 87.3695 14.478 87.6294 14.9382C87.8936 15.3984 88.2665 15.7607 88.748 16.0249C89.2296 16.2848 89.8006 16.4148 90.4611 16.4148C91.1259 16.4148 91.699 16.2848 92.1806 16.0249C92.6664 15.7607 93.0371 15.3984 93.2928 14.9382C93.5527 14.478 93.6827 13.9517 93.6827 13.3594V4.90909ZM98.1971 18V16.6832L105.081 6.60938H98.1396V4.90909H107.498V6.22585L100.613 16.2997H107.555V18H98.1971ZM111.138 18H109.041L113.752 4.90909H116.034L120.745 18H118.648L114.947 7.28693H114.845L111.138 18ZM111.489 12.8736H118.29V14.5355H111.489V12.8736ZM132.232 4.29545L128.013 19.9688H126.306L130.525 4.29545H132.232ZM142.81 13.5639L134.322 17.6804V15.7244L140.586 12.8736L140.522 12.9822V12.7074L140.586 12.8224L134.322 9.9652V8.01562L142.81 12.1321V13.5639Z" fill="white"/>
</g>
</g>
<defs>
<filter id="filter0_d_103_13" x="0.751404" y="4.29547" width="145.059" height="22.6733" filterUnits="userSpaceOnUse" color-interpolation-filters="sRGB">
<feFlood flood-opacity="0" result="BackgroundImageFix"/>
<feColorMatrix in="SourceAlpha" type="matrix" values="0 0 0 0 0 0 0 0 0 0 0 0 0 0 0 0 0 0 127 0" result="hardAlpha"/>
<feOffset dy="4"/>
<feGaussianBlur stdDeviation="1.5"/>
<feComposite in2="hardAlpha" operator="out"/>
<feColorMatrix type="matrix" values="0 0 0 0 0.429167 0 0 0 0 0.429167 0 0 0 0 0.429167 0 0 0 0.25 0"/>
<feBlend mode="normal" in2="BackgroundImageFix" result="effect1_dropShadow_103_13"/>
<feBlend mode="normal" in="SourceGraphic" in2="effect1_dropShadow_103_13" result="shape"/>
</filter>
<clipPath id="clip0_103_13">
<rect width="147" height="24" fill="white"/>
</clipPath>
</defs>
</svg>
