<svg width="431" height="93" viewBox="0 0 431 93" fill="none" xmlns="http://www.w3.org/2000/svg">
<path d="M45.5 12L57.5 35L83 39L65 57.5L69 82.5L45.5 71L23.5 82.5L27.5 57.5L8 39L34.5 35L45.5 12Z" fill="black" stroke="black" stroke-width="5" stroke-linejoin="round"/>
<path d="M126.5 12L138.5 35L164 39L146 57.5L150 82.5L126.5 71L104.5 82.5L108.5 57.5L89 39L115.5 35L126.5 12Z" fill="black" stroke="black" stroke-width="5" stroke-linejoin="round"/>
<path d="M207.5 12L219.5 35L245 39L227 57.5L231 82.5L207.5 71L185.5 82.5L189.5 57.5L170 39L196.5 35L207.5 12Z" fill="black" stroke="black" stroke-width="5" stroke-linejoin="round"/>
<path d="M287.5 12L299.5 35L325 39L307 57.5L311 82.5L287.5 71L265.5 82.5L269.5 57.5L250 39L276.5 35L287.5 12Z" fill="black" stroke="black" stroke-width="5" stroke-linejoin="round"/>
<path d="M368.5 12L380.5 35L406 39L388 57.5L392 82.5L368.5 71L346.5 82.5L350.5 57.5L331 39L357.5 35L368.5 12Z" fill="black" stroke="black" stroke-width="5" stroke-linejoin="round"/>
</svg>
